<svg width="1920" height="1027" viewBox="0 0 1920 1027" fill="none" xmlns="http://www.w3.org/2000/svg">
<path d="M129.766 734.883C148.907 720.503 170.295 711.53 192.496 707.574C214.536 703.648 237.322 704.702 259.494 710.315C281.454 715.871 302.793 725.905 322.199 740.021C341.413 753.993 358.738 771.952 372.97 793.534L471.962 943.708C455.018 957.345 436.103 966.344 416.336 970.91C396.425 975.515 375.597 975.649 355.04 971.513C334.288 967.331 313.76 958.808 294.713 946.083C275.467 933.243 257.71 916.129 242.756 894.938L129.766 734.883Z" fill="url(#paint0_linear_1429_6607)"/>
<path d="M36.978 68.2919C43.5171 66.6595 50.1797 66.4895 56.6091 67.5811C62.9845 68.6549 69.1197 70.9557 74.6577 74.2828C80.1446 77.57 85.0619 81.8419 89.0846 86.9128C93.0588 91.9217 96.166 97.6881 98.0714 104.014L111.424 148.083C105.556 149.73 99.5722 150.129 93.7487 149.404C87.8907 148.685 82.1833 146.83 76.9544 144C71.6619 141.141 66.8382 137.296 62.7915 132.603C58.706 127.861 55.4127 122.24 53.256 115.951L36.9877 68.3043" fill="url(#paint1_linear_1429_6607)"/>
<path d="M1667.35 298.541C1665.41 291.5 1665.05 284.288 1666.06 277.295C1667.06 270.361 1669.39 263.655 1672.85 257.568C1676.26 251.538 1680.76 246.099 1686.15 241.608C1691.47 237.172 1697.64 233.654 1704.44 231.423L1751.82 215.8C1753.76 222.112 1754.35 228.583 1753.72 234.911C1753.09 241.275 1751.23 247.506 1748.31 253.245C1745.35 259.053 1741.31 264.379 1736.33 268.886C1731.31 273.436 1725.3 277.152 1718.55 279.653L1667.36 298.53" fill="url(#paint2_linear_1429_6607)"/>
<path d="M1528.13 219.174C1521.54 209.825 1517.19 199.385 1514.97 188.54C1512.76 177.792 1512.65 166.672 1514.52 155.868C1516.36 145.17 1520.1 134.769 1525.66 125.295C1531.16 115.935 1538.38 107.484 1547.22 100.591L1608.79 52.4497C1614.99 60.7267 1619.29 69.9527 1621.71 79.614C1624.16 89.3257 1624.72 99.4958 1623.45 109.505C1622.17 119.634 1619.04 129.625 1614.09 138.905C1609.09 148.278 1602.21 156.935 1593.58 164.203L1528.14 219.151" fill="url(#paint3_linear_1429_6607)"/>
<defs>
<linearGradient id="paint0_linear_1429_6607" x1="395.872" y1="998.837" x2="183.611" y2="696.757" gradientUnits="userSpaceOnUse">
<stop stop-color="#008452"/>
<stop offset="0.52" stop-color="#006848"/>
<stop offset="0.78" stop-color="#075639"/>
<stop offset="1" stop-color="#0B4D31"/>
</linearGradient>
<linearGradient id="paint1_linear_1429_6607" x1="153.639" y1="361.061" x2="123.817" y2="271.342" gradientUnits="userSpaceOnUse">
<stop stop-color="#008452"/>
<stop offset="0.52" stop-color="#006848"/>
<stop offset="0.78" stop-color="#075639"/>
<stop offset="1" stop-color="#0B4D31"/>
</linearGradient>
<linearGradient id="paint2_linear_1429_6607" x1="1981.41" y1="164.464" x2="1885.01" y2="199.13" gradientUnits="userSpaceOnUse">
<stop stop-color="#008452"/>
<stop offset="0.52" stop-color="#006848"/>
<stop offset="0.78" stop-color="#075639"/>
<stop offset="1" stop-color="#0B4D31"/>
</linearGradient>
<linearGradient id="paint3_linear_1429_6607" x1="1919.98" y1="-144.891" x2="1796.27" y2="-42.7063" gradientUnits="userSpaceOnUse">
<stop stop-color="#008452"/>
<stop offset="0.52" stop-color="#006848"/>
<stop offset="0.78" stop-color="#075639"/>
<stop offset="1" stop-color="#0B4D31"/>
</linearGradient>
</defs>
</svg>
