<svg width="112" height="112" viewBox="0 0 112 112" fill="none" xmlns="http://www.w3.org/2000/svg">
<g filter="url(#filter0_dd_1445_2913)">
<circle cx="56" cy="56" r="36" fill="#FFCC07"/>
<path fill-rule="evenodd" clip-rule="evenodd" d="M42.9598 57.6744C42.3467 57.0648 42.3467 56.0765 42.9598 55.4669L56 42.5L69.0402 55.4669C69.6533 56.0765 69.6533 57.0648 69.0402 57.6744C68.4272 58.284 67.4333 58.284 66.8202 57.6744L56 46.915L45.1798 57.6744C44.5667 58.284 43.5728 58.284 42.9598 57.6744Z" fill="black"/>
<path fill-rule="evenodd" clip-rule="evenodd" d="M56 45.4999C56.8284 45.4999 57.5 46.1715 57.5 46.9999V68.7499C57.5 69.5783 56.8284 70.2499 56 70.2499C55.1716 70.2499 54.5 69.5783 54.5 68.7499V46.9999C54.5 46.1715 55.1716 45.4999 56 45.4999Z" fill="black"/>
</g>
<defs>
<filter id="filter0_dd_1445_2913" x="0" y="0" width="112" height="112" filterUnits="userSpaceOnUse" color-interpolation-filters="sRGB">
<feFlood flood-opacity="0" result="BackgroundImageFix"/>
<feColorMatrix in="SourceAlpha" type="matrix" values="0 0 0 0 0 0 0 0 0 0 0 0 0 0 0 0 0 0 127 0" result="hardAlpha"/>
<feOffset/>
<feGaussianBlur stdDeviation="10"/>
<feComposite in2="hardAlpha" operator="out"/>
<feColorMatrix type="matrix" values="0 0 0 0 0 0 0 0 0 0 0 0 0 0 0 0 0 0 0.25 0"/>
<feBlend mode="normal" in2="BackgroundImageFix" result="effect1_dropShadow_1445_2913"/>
<feColorMatrix in="SourceAlpha" type="matrix" values="0 0 0 0 0 0 0 0 0 0 0 0 0 0 0 0 0 0 127 0" result="hardAlpha"/>
<feOffset dy="4"/>
<feGaussianBlur stdDeviation="2"/>
<feComposite in2="hardAlpha" operator="out"/>
<feColorMatrix type="matrix" values="0 0 0 0 0 0 0 0 0 0 0 0 0 0 0 0 0 0 0.25 0"/>
<feBlend mode="normal" in2="effect1_dropShadow_1445_2913" result="effect2_dropShadow_1445_2913"/>
<feBlend mode="normal" in="SourceGraphic" in2="effect2_dropShadow_1445_2913" result="shape"/>
</filter>
</defs>
</svg>
