<svg width="24" height="25" viewBox="0 0 24 25" fill="none" xmlns="http://www.w3.org/2000/svg">
<path fill-rule="evenodd" clip-rule="evenodd" d="M1.22781 12.8274C0.924065 12.5236 0.924065 12.0312 1.22781 11.7274L6.17755 6.77767C6.48129 6.47393 6.97376 6.47393 7.2775 6.77767C7.58124 7.08141 7.58124 7.57387 7.2775 7.87761L3.6555 11.4996H19.3445L15.7225 7.87761C15.4188 7.57387 15.4188 7.08141 15.7225 6.77767C16.0262 6.47393 16.5187 6.47393 16.8224 6.77767L21.7722 11.7274C22.0759 12.0312 22.0759 12.5236 21.7722 12.8274L16.8224 17.7771C16.5187 18.0809 16.0262 18.0809 15.7225 17.7771C15.4188 17.4734 15.4188 16.9809 15.7225 16.6772L19.3445 13.0552H3.6555L7.2775 16.6772C7.58124 16.9809 7.58124 17.4734 7.2775 17.7771C6.97376 18.0809 6.48129 18.0809 6.17755 17.7771L1.22781 12.8274Z" fill="black"/>
</svg>
