<svg width="25" height="25" viewBox="0 0 25 25" fill="none" xmlns="http://www.w3.org/2000/svg">
<path d="M14.6111 11.2418C13.4817 8.98783 11.6171 7.54219 8.80768 7.10354C8.83406 7.06132 8.85983 7.01965 8.88537 6.97834C8.94159 6.88741 8.99677 6.79816 9.05484 6.70902C9.60858 5.8593 10.3031 5.10613 11.1415 4.46056C11.4106 4.25365 11.6922 4.06053 11.9862 3.88672C12.3398 3.67981 12.7089 3.48944 13.0812 3.31288C13.635 3.04803 14.2294 2.86595 14.8394 2.73076C15.4745 2.5873 16.119 2.49902 16.7728 2.58179C17.3203 2.65076 17.8021 2.84388 18.0587 3.31012C18.1494 3.47289 18.2088 3.65774 18.2307 3.83982C18.287 4.33641 18.1525 4.81369 17.9022 5.25511C17.7319 5.55548 17.5428 5.84819 17.3535 6.14105C17.2647 6.27856 17.1758 6.41614 17.0888 6.55452C16.9663 6.75183 16.8428 6.94895 16.7193 7.14618C16.3731 7.69905 16.0264 8.25279 15.6966 8.81402C15.4401 9.24992 15.2274 9.70789 15.0209 10.1631C14.9266 10.3746 14.8544 10.5926 14.7821 10.8109C14.7487 10.9114 14.7154 11.0121 14.6799 11.1121C14.6736 11.1315 14.6666 11.1508 14.6595 11.1701C14.6525 11.1894 14.6455 11.2087 14.6392 11.228C14.6357 11.2311 14.6301 11.2334 14.6242 11.2358C14.6197 11.2376 14.6151 11.2394 14.6111 11.2418Z" fill="black"/>
<path d="M7.15879 8.24844C7.61868 8.24292 8.16929 8.29258 8.71052 8.40845C9.21734 8.51605 9.70539 8.67054 10.1747 8.8747C10.8254 9.1561 11.4167 9.51475 11.9423 9.95341C12.5179 10.4362 13.0028 10.9825 13.3908 11.5949C13.6348 11.9784 13.8413 12.3757 14.0071 12.7895C14.1854 13.2364 14.3043 13.6972 14.4013 14.1634C14.5389 14.8228 14.8268 15.4325 15.1897 16.0174C15.6402 16.743 16.1814 17.4161 16.7414 18.0782C17.098 18.5031 17.4422 18.9362 17.7738 19.3777C18.021 19.706 18.1993 20.0674 18.2931 20.4564C18.3088 20.5198 18.315 20.586 18.3056 20.6523C18.2963 20.7488 18.3526 20.7847 18.4433 20.7957C18.5392 20.8104 18.6355 20.8236 18.7318 20.8368C18.9244 20.8631 19.117 20.8895 19.3068 20.9281C20.0013 21.0716 20.6176 21.3309 21.0056 21.8937C21.065 21.9793 21.115 22.0731 21.162 22.1669C21.1714 22.1862 21.1745 22.222 21.162 22.2414C20.8992 22.68 20.5988 23.0966 20.1828 23.4387C20.1296 23.4828 20.0545 23.5132 19.9825 23.538C19.8824 23.5739 19.8105 23.5242 19.7823 23.4442C19.5352 22.7352 18.9939 22.2193 18.3807 21.7448C18.3069 21.6871 18.226 21.6357 18.1457 21.5847C18.1068 21.56 18.0681 21.5354 18.0303 21.5103C17.974 21.4716 17.924 21.4744 17.8645 21.513C17.5986 21.6785 17.2889 21.7503 16.9729 21.7944C16.366 21.8772 15.7559 21.8524 15.1521 21.7889C14.8268 21.7558 14.5076 21.6951 14.1885 21.6316C13.4971 21.4965 12.8402 21.2702 12.2113 20.9833C11.5981 20.7019 11.0287 20.3598 10.5032 19.9625C9.83992 19.4632 9.26114 18.8949 8.76684 18.2603C8.39768 17.7886 8.07231 17.292 7.82516 16.7623C7.65622 16.4009 7.49354 16.0367 7.36214 15.667C7.30377 15.5047 7.23038 15.1164 7.1601 14.7445C7.08345 14.339 7.01051 13.9531 6.96482 13.9013C6.94042 13.8755 6.91223 13.4303 6.8906 13.089C6.8845 12.9927 6.87891 12.9044 6.87409 12.8364C6.84281 12.4336 6.6551 12.0998 6.24839 11.8929C5.91364 11.7218 5.54135 11.697 5.15967 11.7356C4.46202 11.8074 3.84883 12.0612 3.2857 12.4171C2.95095 12.6267 2.72257 12.5054 2.62246 12.2019C2.50983 11.8543 2.53798 11.5066 2.59743 11.159C2.67564 10.7038 2.84145 10.2762 3.11363 9.88168C3.41396 9.44578 3.81754 9.10644 4.30872 8.84159C4.66537 8.64847 5.05017 8.51329 5.45062 8.41949C5.98247 8.28982 6.52057 8.24016 7.15879 8.24844Z" fill="black"/>
<path d="M16.3607 16.3027C16.4412 16.4334 16.5218 16.5642 16.6006 16.6961C16.6162 16.6906 16.6319 16.6851 16.6444 16.6823C16.6444 16.6741 16.6459 16.6658 16.6475 16.6575C16.6491 16.6492 16.6506 16.641 16.6506 16.6327C16.6757 16.2409 16.7288 15.8519 16.8978 15.485C17.0573 15.1401 17.292 14.8532 17.6611 14.6573C18.0835 14.4311 18.5528 14.3593 19.0346 14.3538C19.3343 14.3524 19.6341 14.3579 19.9339 14.3634C20.2004 14.3682 20.4669 14.3731 20.7333 14.3731C21.0305 14.3731 21.3309 14.3455 21.6093 14.2297C21.9722 14.0779 22.2288 13.6503 22.0473 13.3082C21.9566 13.1372 21.8627 12.9606 21.7313 12.8116C21.0931 12.0805 20.2734 11.5535 19.3099 11.2004C19.2191 11.1673 18.6873 11.0183 18.5215 11.0045C18.4839 11.0018 18.4433 10.9962 18.4057 10.9907C17.8551 10.9024 17.3201 10.9604 16.8039 11.148C16.3253 11.3218 15.9436 11.6115 15.6088 11.9563C15.4086 12.166 15.2803 12.3812 15.2616 12.6709C15.2209 13.2806 15.2678 13.8821 15.4587 14.4669C15.5682 14.798 15.6933 15.1291 15.856 15.4408C16.0104 15.7339 16.1853 16.0179 16.3607 16.3027Z" fill="black"/>
</svg>
