<svg width="160" height="60" viewBox="0 0 160 60" fill="none" xmlns="http://www.w3.org/2000/svg">
<g clip-path="url(#clip0_2513_3250)">
<path d="M33.1599 8.7642L26.168 5.95661L19.1978 10.0542L13.561 4.08127L9.63686 8.04875L0 0.233032L0.0216802 12.1138H38.3957V0.233032L33.1599 8.7642Z" fill="#0F0400"/>
<path d="M7.28445 28.8726C7.7289 28.0704 7.95654 27.0081 7.95654 25.6748V18.7913C7.95654 17.2195 7.64218 16.0162 7.00261 15.1815C6.36304 14.3577 5.32239 13.9349 3.8915 13.9349H0.0107422V42.4553H1.6476V30.5637H3.47958L7.06765 42.4553H8.73703L5.14895 30.4336C6.12456 30.1843 6.84001 29.6639 7.28445 28.8618V28.8726ZM6.33052 25.6748C6.33052 26.7371 6.1354 27.561 5.756 28.1355C5.3766 28.7208 4.74787 29.0135 3.88066 29.0135H1.6476V15.4959H3.88066C4.74787 15.4959 5.3766 15.7778 5.756 16.3523C6.1354 16.9268 6.33052 17.7398 6.33052 18.7913V25.6748Z" fill="#0F0400"/>
<path d="M14.027 42.8672C15.4687 42.8672 16.5093 42.4878 17.1381 41.729C17.7776 40.9701 18.092 39.8536 18.092 38.3902V17.9783C18.092 16.5149 17.7776 15.4092 17.1381 14.6612C16.4985 13.9132 15.4578 13.5447 14.027 13.5447C12.5961 13.5447 11.5446 13.9132 10.9158 14.6612C10.2763 15.4092 9.96191 16.5149 9.96191 17.9783V38.3902C9.96191 39.8536 10.2763 40.9701 10.9158 41.729C11.5554 42.4878 12.5961 42.8672 14.027 42.8672ZM11.5879 17.9783C11.5879 17.0244 11.7722 16.3089 12.1625 15.8211C12.5419 15.3333 13.1706 15.084 14.0378 15.084C14.905 15.084 15.5337 15.3333 15.9131 15.8211C16.2925 16.3089 16.4877 17.0352 16.4877 17.9783V38.3902C16.4877 39.3441 16.2925 40.0704 15.9131 40.5691C15.5337 41.0677 14.905 41.3279 14.0378 41.3279C13.1706 41.3279 12.5419 41.0786 12.1625 40.5691C11.7831 40.0704 11.5879 39.3441 11.5879 38.3902V17.9783Z" fill="#0F0400"/>
<path d="M20.0869 34.3143V38.3902C20.0869 39.8536 20.4013 40.9701 21.0192 41.729C21.6479 42.4878 22.6669 42.8672 24.0761 42.8672C25.4853 42.8672 26.5043 42.4878 27.133 41.729C27.7617 40.9701 28.0652 39.8536 28.0652 38.3902V33.5013C28.0652 32.3631 27.9785 31.4634 27.8051 30.7913C27.6316 30.13 27.3715 29.588 27.0354 29.187C26.6994 28.775 26.2766 28.439 25.778 28.168C25.2793 27.897 24.7156 27.5935 24.0869 27.2683C23.6533 27.0189 23.2847 26.8021 22.9921 26.5962C22.6885 26.3902 22.4501 26.1409 22.2549 25.8374C22.0598 25.5338 21.9297 25.1544 21.843 24.6991C21.7671 24.233 21.7238 23.6368 21.7238 22.9105V17.9783C21.7238 17.0244 21.9081 16.3089 22.2766 15.8211C22.6452 15.3333 23.2522 15.084 24.0869 15.084C24.9216 15.084 25.5286 15.3333 25.8972 15.8211C26.2658 16.3089 26.4501 17.0352 26.4501 17.9783V22.0975H28.0761V17.9783C28.0761 16.5149 27.7617 15.4092 27.1438 14.6612C26.5151 13.9132 25.4961 13.5447 24.0869 13.5447C22.6777 13.5447 21.6587 13.9132 21.03 14.6612C20.4013 15.4092 20.0978 16.5149 20.0978 17.9783V22.9105C20.0978 24.0487 20.1845 24.9593 20.3579 25.6206C20.5314 26.2818 20.7915 26.8238 21.1276 27.2249C21.4636 27.6368 21.8864 27.9729 22.385 28.2439C22.8837 28.5149 23.4473 28.8184 24.0761 29.1436C24.5097 29.3929 24.8782 29.6097 25.1709 29.8157C25.4744 30.0216 25.7129 30.271 25.9081 30.5745C26.0923 30.878 26.2333 31.2574 26.32 31.7127C26.4067 32.1788 26.4392 32.775 26.4392 33.5013V38.3902C26.4392 39.3441 26.2549 40.0704 25.8864 40.5691C25.5178 41.0677 24.9108 41.3279 24.0761 41.3279C23.2414 41.3279 22.6343 41.0786 22.2658 40.5691C21.8972 40.0704 21.7129 39.3441 21.7129 38.3902V34.3143H20.0869Z" fill="#0F0400"/>
<path d="M0 59.7669H38.3957V44.504H0V59.7669ZM25.9404 46.4878L33.6694 53.7832V46.7371H35.2304V57.588L27.5014 50.2926V57.3387H25.9404V46.4878ZM13.2575 46.7262H14.8293V53.1328C14.8293 53.7723 14.8509 54.4444 15.1545 54.9973C15.5339 55.691 16.2927 56.1029 17.1816 56.1029H19.7073C20.5854 56.1029 21.3442 55.691 21.7344 54.9973C22.0379 54.4444 22.0596 53.7723 22.0596 53.1328V46.7262H23.6314V53.5555C23.6314 54.672 23.3062 55.5718 22.645 56.3089C21.897 57.1328 20.9214 57.5447 19.7182 57.5447H17.1924C15.9892 57.5447 15.0027 57.1328 14.2656 56.3089C13.6043 55.5718 13.2791 54.672 13.2791 53.5555V46.7262H13.2575ZM3.17615 46.7262H7.14363C8.09756 46.7262 9.09485 46.7696 9.94038 47.3441C11.1003 48.1246 11.187 49.4471 11.187 49.8265C11.187 51.2899 10.2656 52.439 8.83469 52.7642H8.76965L12.1084 57.3279H10.2222L7.16531 52.9485H4.72629V57.3279H3.16531V46.7154L3.17615 46.7262Z" fill="#0F0400"/>
<path d="M9.6258 49.8482C9.6258 48.7208 8.91036 48.168 7.42526 48.168H4.72607V51.626H7.3819C8.82363 51.626 9.6258 50.9972 9.6258 49.8482Z" fill="#0F0400"/>
<path d="M38.2655 42.4662V13.9025H34.2438C32.8238 13.9025 31.794 14.2819 31.1653 15.0298C30.5365 15.7778 30.2222 16.8835 30.2222 18.3252V42.4553H31.8265V30.7155H36.6504V42.4553H38.2547L38.2655 42.4662ZM31.8265 29.1979V18.3361C31.8265 17.393 32.0108 16.6775 32.3902 16.1897C32.7696 15.6911 33.3766 15.4418 34.2438 15.4418H36.6612V29.1979H31.8373H31.8265Z" fill="#0F0400"/>
<path d="M52.5128 28.8871L51.9072 29.4927L62.7764 40.3618L63.3819 39.7563L52.5128 28.8871Z" fill="#0F0400"/>
<path d="M62.7764 28.8795L51.9072 39.7487L52.5128 40.3542L63.3819 29.4851L62.7764 28.8795Z" fill="#0F0400"/>
<path d="M136.098 33.5773V45.8049H143.556V38.9214H151.057C154.981 38.9214 158.32 36.6992 159.61 33.5773H136.098Z" fill="#046949"/>
<path d="M157.333 24.6667C155.87 23.3333 153.929 22.4987 151.794 22.4987H135.75C135.783 23.1274 135.87 23.7344 136.011 24.3198C136.043 24.4499 136.076 24.58 136.108 24.71C136.119 24.7642 136.141 24.8184 136.152 24.8726C137.485 29.1003 141.431 32.1572 146.092 32.1572H159.859C159.946 31.6802 160 31.2033 160 30.7046C160 28.309 158.97 26.1626 157.333 24.6558" fill="url(#paint0_linear_2513_3250)"/>
<path d="M122.883 24.9702L117.658 36.2764H117.127V22.5095H109.712V45.8157H116C117.647 45.8157 119.154 44.851 119.848 43.355L125.073 32.0488H125.604V45.8157H133.019V22.4987H126.731C125.084 22.4987 123.577 23.4634 122.883 24.9594" fill="#046949"/>
<path d="M88.3576 25.5664L91.447 36.2764H91.9782L95.0676 25.5664C95.588 23.7561 97.2465 22.4987 99.1435 22.4987H106.547V45.8049H99.1327V32.038H98.6015L94.363 45.8049H89.0622L84.8237 32.038H84.2926V45.8049H76.8779V22.4987H84.2817C86.1679 22.4987 87.8264 23.7453 88.3576 25.5664Z" fill="#046949"/>
</g>
<defs>
<linearGradient id="paint0_linear_2513_3250" x1="135.75" y1="27.3333" x2="160" y2="27.3333" gradientUnits="userSpaceOnUse">
<stop stop-color="#44A7DF"/>
<stop offset="1" stop-color="#345CA8"/>
</linearGradient>
<clipPath id="clip0_2513_3250">
<rect width="160" height="59.5339" fill="white" transform="translate(0 0.233032)"/>
</clipPath>
</defs>
</svg>
