<svg width="60" height="60" viewBox="0 0 60 60" fill="none" xmlns="http://www.w3.org/2000/svg">
<circle opacity="0.5" cx="30" cy="30" r="30" fill="#353535"/>
<path d="M31.1523 27.7025H28.815V25.3316C28.815 25.0241 28.5633 24.7725 28.2558 24.7725C27.9482 24.7725 27.6966 25.0241 27.6966 25.3316V27.7025H25.3258C25.0182 27.7025 24.7666 27.9541 24.7666 28.2616C24.7666 28.5692 25.0182 28.8208 25.3258 28.8208H27.6966V31.1637C27.6966 31.4713 27.9482 31.7229 28.2558 31.7229C28.5633 31.7229 28.815 31.4713 28.815 31.1637V28.8208H31.1523C31.4598 28.8208 31.7114 28.5692 31.7114 28.2616C31.7114 27.9541 31.4654 27.7025 31.1523 27.7025Z" fill="white"/>
<path d="M34.2223 22.2231C30.9121 18.9185 25.5273 18.9185 22.2226 22.2231C18.918 25.5278 18.918 30.9125 22.2226 34.2228C25.5385 37.5275 30.9065 37.5275 34.2223 34.2228C37.527 30.9181 37.527 25.5334 34.2223 22.2231ZM33.4283 33.4344C30.5542 36.3029 25.8796 36.3085 23.0111 33.4344C20.137 30.5603 20.137 25.8857 23.0111 23.0171C25.8908 20.1486 30.5486 20.1486 33.4283 23.0171C36.3024 25.8857 36.3024 30.5603 33.4283 33.4344Z" fill="white"/>
<path d="M41.894 38.9807C41.8884 38.9751 41.8828 38.9695 41.8772 38.9639L37.1243 34.1999C40.4234 29.2848 39.1149 22.6196 34.1999 19.3205C29.2848 16.0214 22.6196 17.3299 19.3205 22.2449C16.0214 27.16 17.3299 33.8252 22.2449 37.1243C23.7994 38.1699 25.5999 38.785 27.4675 38.9192C27.7191 38.936 27.9708 38.9472 28.2168 38.9472C30.3472 38.9472 32.4273 38.3153 34.1943 37.1299L38.9472 41.8828C39.7524 42.6992 41.0608 42.7047 41.8716 41.9051C42.688 41.0999 42.6936 39.7915 41.894 38.9807ZM33.9259 35.95C29.6538 39.1093 23.6372 38.2035 20.4835 33.937C17.3299 29.6706 18.2301 23.6484 22.5021 20.4947C26.7741 17.341 32.7908 18.2413 35.9444 22.5133C38.4551 25.913 38.4551 30.5541 35.9333 33.9538C35.3685 34.7087 34.6919 35.3853 33.9259 35.95ZM41.0888 41.0944C40.9098 41.2733 40.6694 41.3739 40.4122 41.3739C40.1605 41.3739 39.9201 41.2733 39.7412 41.0944L35.1001 36.4533C35.3405 36.252 35.5754 36.0395 35.8047 35.8102C36.0339 35.581 36.2464 35.3461 36.4477 35.1057L41.0888 39.7468C41.4578 40.1158 41.4578 40.7197 41.0888 41.0944Z" fill="white"/>
</svg>
