<svg width="56" height="56" viewBox="0 0 56 56" fill="none" xmlns="http://www.w3.org/2000/svg">
<path d="M20.5198 31.7643L11.6665 11.4902L18.5824 4.66669L27.4067 28.773C24.7962 29.0826 22.4235 30.1558 20.5198 31.7643Z" fill="black"/>
<path d="M35.8582 11.4901H21.976L19.4787 4.66729H38.3558L35.8582 11.4901Z" fill="black"/>
<path d="M39.2528 4.66729L30.4322 28.7604C33.0461 29.0529 35.4268 30.112 37.3407 31.7064L46.1668 11.4902L39.2528 4.66729Z" fill="black"/>
<path d="M41.1575 41.5886C41.1575 48.2586 35.6981 53.6667 28.9624 53.6667C22.228 53.6667 16.7676 48.2587 16.7676 41.5886C16.7676 38.3171 18.086 35.3537 20.2182 33.1789C20.3178 33.0767 20.4214 32.9787 20.5251 32.8808L20.5405 32.8661C20.5836 32.8247 20.6274 32.7842 20.6716 32.7442C20.7371 32.685 20.8037 32.6269 20.8703 32.5686C22.7284 30.931 25.0869 29.8396 27.699 29.5728C27.8432 29.5592 27.9924 29.5592 28.138 29.5493C28.285 29.5404 28.4315 29.531 28.5793 29.528C28.7082 29.5229 28.8336 29.5084 28.9632 29.5084C29.0341 29.5084 29.1032 29.5151 29.1725 29.5194C29.2007 29.5212 29.2289 29.5226 29.2573 29.5229C29.3662 29.5254 29.4737 29.5319 29.5815 29.5383L29.6973 29.545C29.7569 29.5487 29.8168 29.5509 29.8768 29.5531C29.9642 29.5563 30.0516 29.5595 30.1376 29.5673C32.753 29.814 35.1204 30.8863 36.9909 32.5089C37.048 32.5593 37.1052 32.6104 37.1622 32.6619C37.215 32.7096 37.2676 32.7578 37.32 32.8064C37.3601 32.8441 37.4008 32.8812 37.4413 32.9184C37.5104 32.9817 37.5794 33.0449 37.6452 33.1106C39.8156 35.2923 41.1575 38.2831 41.1575 41.5886Z" fill="black"/>
</svg>
