<svg width="248" height="56" viewBox="0 0 248 56" fill="none" xmlns="http://www.w3.org/2000/svg">
<path d="M28.9901 19.7487C28.5366 19.7079 28.0626 19.6874 27.6091 19.6874C27.3205 19.6874 27.0526 19.6874 26.764 19.7079C23.2807 19.8712 20.0447 21.0554 17.3858 22.9541L7.18301 4.59956C6.93567 4.12998 6.93567 3.55831 7.20362 3.08873C7.49218 2.61915 7.98686 2.33331 8.54337 2.33331H17.8186C18.3751 2.33331 18.8698 2.61915 19.1584 3.08873L27.8358 17.7887L28.9901 19.7487Z" fill="black"/>
<path d="M48.0348 4.59956L37.832 22.9541C36.3892 21.9129 34.7815 21.0962 33.0501 20.5449L29.5874 14.665L36.0388 3.12956C36.3274 2.63956 36.8427 2.33331 37.3992 2.33331H46.6744C47.2309 2.33331 47.7256 2.61915 48.0142 3.08873C48.2821 3.55831 48.2821 4.12998 48.0348 4.59956Z" fill="black"/>
<path fill-rule="evenodd" clip-rule="evenodd" d="M13.181 37.0417C13.181 29.1609 19.6531 22.75 27.6091 22.75C35.5652 22.75 42.0373 29.1609 42.0373 37.0417C42.0373 44.9225 35.5652 51.3333 27.6091 51.3333C19.6531 51.3333 13.181 44.9225 13.181 37.0417ZM19.3645 37.0417C19.3645 41.5456 23.0622 45.2083 27.6091 45.2083C32.1561 45.2083 35.8538 41.5456 35.8538 37.0417C35.8538 32.5378 32.1561 28.875 27.6091 28.875C23.0622 28.875 19.3645 32.5378 19.3645 37.0417Z" fill="black"/>
<path d="M91.2309 12.7542L97.3537 4.66669H109.128L91.2309 28.3047L73.3335 4.66669H85.1083L91.2309 12.7542Z" fill="black"/>
<path fill-rule="evenodd" clip-rule="evenodd" d="M78.4275 40.9866C78.4275 33.9813 84.1586 28.3047 91.2309 28.3047C98.3012 28.3047 104.034 33.9813 104.034 40.9866C104.034 47.9898 98.3009 53.6667 91.2308 53.6667C84.1585 53.6667 78.4275 47.9898 78.4275 40.9866ZM91.231 45.6231L95.8468 48.0284L94.9695 42.9314L98.706 39.3247L93.5418 38.5795L91.231 33.9454L88.9211 38.5795L83.7579 39.3247L87.4954 42.9314L86.6152 48.0284L91.231 45.6231Z" fill="black"/>
<path d="M154.834 24.9401L153.254 26.5896L151.183 27.5689L152.278 29.5663L152.577 31.8206L154.834 31.4054L157.09 31.8206L157.39 29.5663L158.485 27.5689L156.414 26.5896L154.834 24.9401Z" fill="black"/>
<path fill-rule="evenodd" clip-rule="evenodd" d="M142.87 28.1832C142.87 21.6487 148.237 16.3333 154.833 16.3333C161.43 16.3333 166.796 21.6487 166.796 28.1831C166.142 43.8992 143.527 43.9037 142.87 28.1832ZM159.542 35.1632L160.167 30.4602L162.452 26.2919L158.129 24.2499L154.833 20.8088L151.537 24.2499L147.214 26.2919L149.5 30.4602L150.125 35.1632L154.833 34.2986L159.542 35.1632Z" fill="black"/>
<path d="M143.428 18.7981C141.252 21.3653 139.982 24.7619 140 28.1832C139.982 31.6046 141.252 35.0009 143.428 37.5682H136.65C133.162 37.5684 130.333 34.7664 130.333 31.3115H136.65C133.162 31.3117 130.333 28.5097 130.333 25.0548H136.65C133.162 25.055 130.333 22.2529 130.333 18.7981H143.428Z" fill="black"/>
<path d="M173.017 25.0548H179.333C179.334 28.5096 176.505 31.3116 173.017 31.3115H179.333C179.334 34.7664 176.505 37.5684 173.017 37.5682H166.239C170.793 32.2599 170.794 24.1074 166.239 18.7981H179.333C179.334 22.2529 176.505 25.055 173.017 25.0548Z" fill="black"/>
<path d="M209.51 22.7299C209.51 17.484 213.819 13.2161 219.115 13.2161C224.411 13.2161 228.72 17.484 228.72 22.7299C228.72 27.9759 224.411 32.2438 219.115 32.2438C213.819 32.2438 209.51 27.9759 209.51 22.7299Z" fill="black"/>
<path fill-rule="evenodd" clip-rule="evenodd" d="M229.29 35.371L227.028 39.007L222.749 38.4955L219.115 40.7932L215.48 38.4955L211.201 39.0071L208.939 35.3711L204.857 33.992L204.405 29.7451L201.333 26.7501L202.794 22.7299L201.333 18.7097L204.405 15.7147L204.857 11.4678L208.939 10.0887L211.201 6.45278L215.48 6.96452L219.115 4.66669L222.749 6.96433L227.028 6.45261L229.29 10.0886L233.372 11.4677L233.825 15.7146L236.896 18.7096L235.436 22.7298L236.896 26.7499L233.824 29.7449L233.372 33.9919L229.29 35.371ZM219.115 10.3432C212.219 10.3432 206.61 15.8999 206.61 22.7299C206.61 29.56 212.219 35.1167 219.115 35.1167C226.01 35.1167 231.62 29.56 231.62 22.7299C231.62 15.8999 226.01 10.3432 219.115 10.3432Z" fill="black"/>
<path d="M214.795 41.471L209.706 42.0797L207.016 37.7571L206.102 37.4484L202.159 49.6568L209.258 49.2701L214.812 53.6667L218.08 43.5478L214.795 41.471Z" fill="black"/>
<path d="M228.523 42.0797L231.212 37.7572L232.127 37.4484L236.07 49.6568L228.971 49.2701L223.417 53.6667L220.149 43.5478L223.433 41.471L228.523 42.0797Z" fill="black"/>
</svg>
