<svg width="104" height="41" viewBox="0 0 104 41" fill="none" xmlns="http://www.w3.org/2000/svg">
<g clip-path="url(#clip0_2532_34)">
<path d="M11.6707 9.18103C17.8714 3.49946 26.1157 0 35.1958 0H103.333C103.194 2.64943 102.807 5.22895 102.221 7.73488C102.078 8.29052 101.953 8.85353 101.791 9.40549C101.732 9.62996 101.665 9.85442 101.603 10.0752C95.9472 27.9994 79.1898 41 59.3837 41H0.907907C0.554423 38.9982 0.333496 36.9486 0.333496 34.8437C0.333496 24.6765 4.7189 15.5544 11.6707 9.18103Z" fill="#006848"/>
<path d="M58.6068 19.8524V27.0868H63.0179V23.0133H67.4586C69.7783 23.0133 71.7556 21.6996 72.5215 19.8524H58.6068Z" fill="white"/>
<path d="M71.1738 14.5866C70.3085 13.7955 69.1597 13.306 67.8968 13.306H58.4042C58.4227 13.674 58.4779 14.0346 58.5589 14.3842C58.5773 14.4615 58.5957 14.5388 58.6178 14.616C58.6252 14.6492 58.6362 14.6786 58.6436 14.708C59.4316 17.2066 61.766 19.0171 64.5239 19.0171H72.6725C72.7203 18.7374 72.7535 18.454 72.7535 18.1597C72.7535 16.743 72.1422 15.4734 71.1738 14.5829" fill="white"/>
<path d="M50.7859 14.7632L47.6966 21.4531H47.3836V13.3097H42.9946V27.0905H46.7172C47.6966 27.0905 48.584 26.5238 48.9927 25.6333L52.082 18.9435H52.395V27.0868H56.7841V13.306H53.0615C52.082 13.306 51.1946 13.8727 50.7859 14.7632Z" fill="white"/>
<path d="M30.3538 15.1165L32.1802 21.4494H32.4931L34.3195 15.1165C34.6288 14.042 35.6119 13.306 36.7276 13.306H41.1093V27.0868H36.7202V18.9435H36.4072L33.8997 27.0868H30.7662L28.2587 18.9435H27.9457V27.0868H23.5566V13.306H27.9384C29.054 13.306 30.0372 14.0457 30.3465 15.1165" fill="white"/>
</g>
<defs>
<clipPath id="clip0_2532_34">
<rect width="103" height="41" fill="white" transform="translate(0.333496)"/>
</clipPath>
</defs>
</svg>
