<svg width="816" height="81" viewBox="0 0 816 81" fill="none" xmlns="http://www.w3.org/2000/svg">
<g clip-path="url(#clip0_108_2775)">
<path opacity="0.56" d="M683.189 55.1443L661.581 34.7195L599.747 70.1926L572.807 33.3115L554.788 57.4078L503.271 0.5L455.252 55.1443L433.637 34.7195L371.81 70.1926L344.87 33.3115L326.844 57.4078L276.86 0.755458L276.226 1.49213L229.775 55.1443L208.167 23.6398L146.333 70.1926L134.728 33.4422L101.375 57.4078L71.9948 0.5L0.5 80.5H241.283H256.939H469.221H482.408H815.5L730.274 0.755458L683.189 55.1443Z" fill="white"/>
<path d="M586.462 68.5173L576.271 58.8811L547.114 75.6107L534.407 58.2158L525.903 69.5807L502.023 43.2031L502.113 42.8645L501.918 43.0843L501.612 42.7397L501.026 44.118L479.906 68.5173L469.715 58.8811L440.551 75.6107L427.852 58.2158L419.348 69.5807L394.568 33.4423L372.368 68.5173L362.17 58.8811L333.013 75.6107L320.306 58.2158L311.809 69.5807L287.511 42.7397L287.211 43.4586L287.357 42.8645L265.15 68.5173L254.959 58.8811L225.802 75.6107L213.095 58.2158L204.592 69.5807L180.3 42.7397L143.092 80.4703H271.458H277.961H378.996H385.172H485.552H492.717H656.109L608.669 42.8645L586.462 68.5173Z" fill="white"/>
<path opacity="0.73" d="M651.599 59.6118L633.818 42.7991L582.941 71.9926L556.349 47.5577L545.936 61.4713L504.42 14.8532L465.679 59.6118L447.891 42.7991L397.014 71.9926L374.849 41.6406L360.016 61.4713L317.622 14.6393L278.038 59.6118L260.256 42.7991L197.461 75.9195L129.988 14.6393L49.6895 80.4703H289.609H300.385H475.528H488.026H774.842L690.347 14.8532L651.599 59.6118Z" fill="white"/>
<path d="M370.325 77.4048C372.57 77.4048 372.57 74.4343 370.325 74.4343C368.081 74.4343 368.074 77.4048 370.325 77.4048Z" fill="white"/>
</g>
<defs>
<clipPath id="clip0_108_2775">
<rect width="815" height="80" fill="white" transform="translate(0.5 0.5)"/>
</clipPath>
</defs>
</svg>
