<svg width="1206" height="635" viewBox="0 0 1206 635" fill="none" xmlns="http://www.w3.org/2000/svg">
<g clip-path="url(#clip0_2701_812)">
<path d="M859.731 489.629C870.716 501.153 878.305 514.582 882.643 528.937C886.949 543.188 888.024 558.319 886.041 573.398C884.078 588.334 879.11 603.207 871.295 617.122C863.561 630.897 853.046 643.735 839.899 654.812L748.411 731.865C738.087 721.734 730.673 709.941 726.121 697.241C721.532 684.449 719.825 670.703 720.958 656.805C722.107 642.774 726.141 628.554 733.065 614.985C740.049 601.276 749.972 588.218 762.805 576.694L859.731 489.629Z" fill="url(#paint0_linear_2701_812)"/>
<path d="M22.9008 49.4155C25.1224 48.8582 27.3865 48.7978 29.5718 49.1662C31.7389 49.5286 33.8247 50.308 35.708 51.4365C37.574 52.5514 39.2467 54.0012 40.6158 55.7229C41.9684 57.4235 43.0266 59.3819 43.6766 61.5308L48.2318 76.5017C46.2383 77.0639 44.2049 77.2019 42.2256 76.9576C40.2346 76.7158 38.2943 76.0874 36.5162 75.128C34.7165 74.1584 33.0757 72.8535 31.6986 71.2605C30.3084 69.6506 29.187 67.7417 28.4515 65.6053L22.9041 49.4198" fill="url(#paint1_linear_2701_812)"/>
<path d="M1156.47 152.376C1155.65 149.428 1155.5 146.408 1155.92 143.479C1156.33 140.575 1157.3 137.765 1158.75 135.215C1160.18 132.688 1162.06 130.408 1164.31 128.525C1166.54 126.664 1169.12 125.188 1171.96 124.251L1191.8 117.685C1192.61 120.327 1192.86 123.037 1192.6 125.687C1192.34 128.353 1191.57 130.963 1190.35 133.367C1189.11 135.801 1187.42 138.034 1185.34 139.923C1183.24 141.831 1180.72 143.39 1177.9 144.441L1156.47 152.371" fill="url(#paint2_linear_2701_812)"/>
<path d="M1115.36 144.674C1109.43 140.999 1104.49 136.177 1100.66 130.617C1096.85 125.11 1094.13 118.896 1092.6 112.384C1091.08 105.938 1090.7 99.2042 1091.56 92.5575C1092.41 85.9916 1094.44 79.5223 1097.76 73.541L1120.83 31.8137C1126.29 34.9792 1130.9 39.1322 1134.57 43.9782C1138.27 48.8447 1141.01 54.4204 1142.68 60.3438C1144.38 66.3362 1145.01 72.6926 1144.45 79.0838C1143.88 85.5397 1142.09 92.0421 1138.98 98.1836L1115.36 144.658" fill="url(#paint3_linear_2701_812)"/>
</g>
<defs>
<linearGradient id="paint0_linear_2701_812" x1="706.086" y1="685.896" x2="889.097" y2="522.228" gradientUnits="userSpaceOnUse">
<stop stop-color="#008452"/>
<stop offset="0.52" stop-color="#006848"/>
<stop offset="0.78" stop-color="#075639"/>
<stop offset="1" stop-color="#0B4D31"/>
</linearGradient>
<linearGradient id="paint1_linear_2701_812" x1="62.6624" y1="148.862" x2="52.4923" y2="118.384" gradientUnits="userSpaceOnUse">
<stop stop-color="#008452"/>
<stop offset="0.52" stop-color="#006848"/>
<stop offset="0.78" stop-color="#075639"/>
<stop offset="1" stop-color="#0B4D31"/>
</linearGradient>
<linearGradient id="paint2_linear_2701_812" x1="1287.92" y1="96.0749" x2="1247.57" y2="110.639" gradientUnits="userSpaceOnUse">
<stop stop-color="#008452"/>
<stop offset="0.52" stop-color="#006848"/>
<stop offset="0.78" stop-color="#075639"/>
<stop offset="1" stop-color="#0B4D31"/>
</linearGradient>
<linearGradient id="paint3_linear_2701_812" x1="1248.42" y1="-153.284" x2="1203.36" y2="-66.3753" gradientUnits="userSpaceOnUse">
<stop stop-color="#008452"/>
<stop offset="0.52" stop-color="#006848"/>
<stop offset="0.78" stop-color="#075639"/>
<stop offset="1" stop-color="#0B4D31"/>
</linearGradient>
<clipPath id="clip0_2701_812">
<rect width="1206" height="635" fill="white"/>
</clipPath>
</defs>
</svg>
