<svg width="375" height="427" viewBox="0 0 375 427" fill="none" xmlns="http://www.w3.org/2000/svg">
<g clip-path="url(#clip0_1617_5535)">
<path d="M28.494 372.279C34.9565 367.425 42.1785 364.397 49.6753 363.065C57.1179 361.742 64.8129 362.101 72.301 363.999C79.7178 365.878 86.9249 369.269 93.4798 374.039C99.9695 378.76 105.822 384.827 110.63 392.117L144.075 442.845C138.354 447.448 131.968 450.484 125.293 452.024C118.569 453.576 111.536 453.619 104.593 452.219C97.5847 450.804 90.6515 447.923 84.218 443.623C77.7172 439.285 71.7189 433.503 66.6667 426.345L28.494 372.279Z" fill="url(#paint0_linear_1617_5535)"/>
<path d="M310.837 129.808C307.65 126.915 305.352 123.452 303.959 119.69C302.568 115.953 302.047 111.933 302.371 107.867C302.688 103.844 303.847 99.7857 305.792 95.9349C307.718 92.1215 310.431 88.5161 313.89 85.3351L337.962 63.2061C340.949 65.7342 343.169 68.7647 344.604 72.0857C346.056 75.4278 346.728 79.0756 346.621 82.8045C346.507 86.5766 345.61 90.4391 343.893 94.1835C342.173 97.9618 339.622 101.616 336.259 104.918L310.837 129.808Z" fill="url(#paint1_linear_1617_5535)"/>
<path d="M24.7535 110.374C28.2881 109.493 31.8898 109.403 35.3655 109.994C38.8121 110.576 42.1291 111.821 45.1233 113.621C48.09 115.399 50.7488 117.709 52.9242 120.452C55.0734 123.16 56.754 126.278 57.785 129.698L65.0101 153.524C61.8383 154.413 58.6036 154.627 55.4554 154.234C52.2885 153.844 49.203 152.84 46.3759 151.309C43.5144 149.763 40.9062 147.683 38.7179 145.145C36.5086 142.581 34.7274 139.542 33.5605 136.141L24.7587 110.381" fill="url(#paint2_linear_1617_5535)"/>
<path d="M329.333 259.839C328.633 257.303 328.503 254.706 328.867 252.187C329.225 249.69 330.063 247.275 331.308 245.084C332.538 242.913 334.157 240.955 336.097 239.338C338.012 237.741 340.232 236.475 342.681 235.673L359.745 230.052C360.444 232.326 360.657 234.657 360.43 236.935C360.206 239.227 359.537 241.471 358.483 243.537C357.418 245.629 355.965 247.546 354.173 249.169C352.362 250.807 350.201 252.144 347.768 253.044L329.337 259.835" fill="url(#paint3_linear_1617_5535)"/>
</g>
<defs>
<linearGradient id="paint0_linear_1617_5535" x1="118.385" y1="461.452" x2="46.6973" y2="359.394" gradientUnits="userSpaceOnUse">
<stop stop-color="#008452"/>
<stop offset="0.52" stop-color="#006848"/>
<stop offset="0.78" stop-color="#075639"/>
<stop offset="1" stop-color="#0B4D31"/>
</linearGradient>
<linearGradient id="paint1_linear_1617_5535" x1="407.291" y1="22.5164" x2="364.225" y2="73.4697" gradientUnits="userSpaceOnUse">
<stop stop-color="#008452"/>
<stop offset="0.52" stop-color="#006848"/>
<stop offset="0.78" stop-color="#075639"/>
<stop offset="1" stop-color="#0B4D31"/>
</linearGradient>
<linearGradient id="paint2_linear_1617_5535" x1="87.8643" y1="268.664" x2="71.7554" y2="220.149" gradientUnits="userSpaceOnUse">
<stop stop-color="#008452"/>
<stop offset="0.52" stop-color="#006848"/>
<stop offset="0.78" stop-color="#075639"/>
<stop offset="1" stop-color="#0B4D31"/>
</linearGradient>
<linearGradient id="paint3_linear_1617_5535" x1="442.423" y1="211.596" x2="407.716" y2="224.086" gradientUnits="userSpaceOnUse">
<stop stop-color="#008452"/>
<stop offset="0.52" stop-color="#006848"/>
<stop offset="0.78" stop-color="#075639"/>
<stop offset="1" stop-color="#0B4D31"/>
</linearGradient>
<clipPath id="clip0_1617_5535">
<rect width="374.999" height="424.824" fill="white" transform="matrix(0.999999 0.00155709 -0.000876228 1 0.630859 0.831055)"/>
</clipPath>
</defs>
</svg>
