<svg width="343" height="770" viewBox="0 0 343 770" fill="none" xmlns="http://www.w3.org/2000/svg">
<g clip-path="url(#clip0_2701_3506)">
<path d="M252.668 26.2016C254.89 25.6442 257.154 25.5838 259.339 25.9522C261.506 26.3146 263.592 27.0941 265.476 28.2225C267.342 29.3375 269.014 30.7872 270.383 32.5089C271.736 34.2095 272.794 36.1679 273.444 38.3169L277.999 53.2878C276.006 53.8499 273.973 53.9879 271.993 53.7437C270.002 53.5018 268.062 52.8734 266.284 51.914C264.484 50.9444 262.843 49.6396 261.466 48.0465C260.076 46.4366 258.955 44.5278 258.219 42.3913L252.672 26.2058" fill="url(#paint0_linear_2701_3506)"/>
<path d="M293.954 89.0847C292.219 86.566 291.086 83.762 290.527 80.8564C289.968 77.9764 289.97 75.0033 290.502 72.1205C291.025 69.2659 292.058 66.4965 293.572 63.9801C295.068 61.4941 297.024 59.256 299.408 57.4395L316.008 44.7513C317.642 46.9824 318.764 49.4615 319.383 52.0515C320.01 54.6551 320.13 57.3756 319.76 60.0477C319.388 62.7517 318.521 65.4134 317.172 67.8798C315.807 70.3706 313.943 72.6646 311.614 74.5821L293.957 89.0786" fill="url(#paint1_linear_2701_3506)"/>
<path d="M317.963 431.338C313.163 432.861 308.202 433.299 303.356 432.786C298.551 432.283 293.868 430.853 289.582 428.631C285.336 426.435 281.469 423.479 278.232 419.885C275.034 416.335 272.448 412.18 270.731 407.551L258.714 375.308C263.013 373.806 267.457 373.228 271.834 373.497C276.237 373.76 280.58 374.877 284.612 376.743C288.693 378.628 292.47 381.27 295.707 384.581C298.976 387.927 301.694 391.965 303.597 396.555L317.955 431.329" fill="url(#paint2_linear_2701_3506)"/>
<path d="M269.665 622.015C267.259 613.324 266.805 604.419 268.046 595.782C269.265 587.219 272.133 578.935 276.394 571.414C280.604 563.963 286.15 557.241 292.795 551.688C299.359 546.202 306.966 541.849 315.361 539.085L373.849 519.725C376.252 527.517 376.99 535.507 376.218 543.32C375.456 551.18 373.169 558.877 369.563 565.967C365.919 573.143 360.94 579.725 354.802 585.298C348.599 590.924 341.193 595.52 332.854 598.619L269.682 622.001" fill="url(#paint3_linear_2701_3506)"/>
</g>
<defs>
<linearGradient id="paint0_linear_2701_3506" x1="292.43" y1="125.648" x2="282.26" y2="95.1703" gradientUnits="userSpaceOnUse">
<stop stop-color="#008452"/>
<stop offset="0.52" stop-color="#006848"/>
<stop offset="0.78" stop-color="#075639"/>
<stop offset="1" stop-color="#0B4D31"/>
</linearGradient>
<linearGradient id="paint1_linear_2701_3506" x1="399.786" y1="-7.08597" x2="366.41" y2="19.8663" gradientUnits="userSpaceOnUse">
<stop stop-color="#008452"/>
<stop offset="0.52" stop-color="#006848"/>
<stop offset="0.78" stop-color="#075639"/>
<stop offset="1" stop-color="#0B4D31"/>
</linearGradient>
<linearGradient id="paint2_linear_2701_3506" x1="217.28" y1="218.442" x2="243.712" y2="283.961" gradientUnits="userSpaceOnUse">
<stop stop-color="#008452"/>
<stop offset="0.52" stop-color="#006848"/>
<stop offset="0.78" stop-color="#075639"/>
<stop offset="1" stop-color="#0B4D31"/>
</linearGradient>
<linearGradient id="paint3_linear_2701_3506" x1="657.266" y1="456.005" x2="538.284" y2="498.949" gradientUnits="userSpaceOnUse">
<stop stop-color="#008452"/>
<stop offset="0.52" stop-color="#006848"/>
<stop offset="0.78" stop-color="#075639"/>
<stop offset="1" stop-color="#0B4D31"/>
</linearGradient>
<clipPath id="clip0_2701_3506">
<rect width="342" height="770" fill="white" transform="translate(0.5)"/>
</clipPath>
</defs>
</svg>
