<svg width="31" height="31" viewBox="0 0 31 31" fill="none" xmlns="http://www.w3.org/2000/svg">
<path d="M19.8994 17.0607C19.9019 19.2698 18.1132 21.0628 15.904 21.0653C13.6949 21.0679 11.9019 19.2792 11.8994 17.07C11.8968 14.8609 13.6855 13.0679 15.8947 13.0653C18.1038 13.0628 19.8968 14.8515 19.8994 17.0607Z" fill="#FFCC07"/>
<path fill-rule="evenodd" clip-rule="evenodd" d="M9.85018 7.07241L12.1348 4.56974L19.6348 4.56098L21.9252 7.0583L25.8877 7.05367C27.2627 7.05207 28.389 8.17575 28.3906 9.55075L28.4081 24.5507C28.4097 25.9257 27.286 27.0521 25.911 27.0537L5.91105 27.077C4.53605 27.0786 3.40973 25.9549 3.40813 24.5799L3.39061 9.57995C3.389 8.20495 4.51268 7.07864 5.88768 7.07703L9.85018 7.07241ZM9.64936 17.0726C9.65339 20.5226 12.4567 23.3194 15.9067 23.3153C19.3567 23.3113 22.1534 20.508 22.1494 17.058C22.1453 13.608 19.3421 10.8113 15.8921 10.8154C12.4421 10.8194 9.64533 13.6226 9.64936 17.0726Z" fill="#FFCC07"/>
</svg>
