<svg width="32" height="32" viewBox="0 0 32 32" fill="none" xmlns="http://www.w3.org/2000/svg">
<path fill-rule="evenodd" clip-rule="evenodd" d="M15.6602 0.232059C16.3029 0.232059 16.8239 0.753106 16.8239 1.39585L16.8239 29.9239C16.8239 30.5667 16.3029 31.0877 15.6602 31.0877C15.0174 31.0877 14.4964 30.5667 14.4964 29.9239L14.4964 1.39585C14.4964 0.753106 15.0174 0.232059 15.6602 0.232059Z" fill="#FFCC07"/>
<path fill-rule="evenodd" clip-rule="evenodd" d="M31.0878 15.6602C31.0878 16.3029 30.5667 16.8239 29.924 16.8239L1.39588 16.8239C0.753135 16.8239 0.232088 16.3029 0.232086 15.6602C0.232088 15.0174 0.753135 14.4964 1.39588 14.4964L29.924 14.4964C30.5667 14.4964 31.0878 15.0174 31.0878 15.6602Z" fill="#FFCC07"/>
</svg>
