<svg width="24" height="25" viewBox="0 0 24 25" fill="none" xmlns="http://www.w3.org/2000/svg">
<path d="M9.78161 8.92385V8.69621C9.78161 8.24092 10.0946 6.73279 11.6881 6.73279C12.9117 6.73279 13.5662 7.47263 13.5662 8.75312C13.5662 9.26531 13.4808 11.3141 10.5499 11.3141H9.18405V16.4645H13.9645V13.932C16.6678 13.8751 18.3467 11.4848 18.3467 8.49702C18.3467 5.59458 16.4117 2.54987 11.6881 2.54987C7.0499 2.54987 4.94421 5.73686 5.00112 8.92385H9.78161ZM8.67185 20.6474C8.67185 22.2409 9.9808 23.5499 11.5743 23.5499C13.1678 23.5499 14.4767 22.2409 14.4767 20.6474C14.4767 19.0539 13.1678 17.745 11.5743 17.745C9.9808 17.745 8.67185 19.0539 8.67185 20.6474Z" fill="black"/>
</svg>
