<svg width="25" height="25" viewBox="0 0 25 25" fill="none" xmlns="http://www.w3.org/2000/svg">
<path d="M19.468 4.71537C19.468 5.91134 18.4708 6.88087 17.2408 6.88087C16.0108 6.88087 15.0137 5.91134 15.0137 4.71537C15.0137 3.51939 16.0108 2.54987 17.2408 2.54987C18.4708 2.54987 19.468 3.51939 19.468 4.71537Z" fill="black"/>
<path d="M20.1359 8.6535C20.4764 8.38127 20.9791 8.42458 21.2622 8.75249C21.5454 9.0804 21.6886 9.56916 21.3418 9.84757L18.1633 12.4708C18.0774 12.5636 17.9788 12.6472 17.8484 12.6936C17.8331 12.701 17.8189 12.7017 17.8045 12.7025C17.795 12.703 17.7853 12.7035 17.7752 12.7059H17.772C17.6797 12.7307 17.5875 12.7431 17.4984 12.7338C17.422 12.7307 17.3488 12.7059 17.2757 12.6812C17.2709 12.6803 17.2664 12.6796 17.2622 12.679C17.2521 12.6775 17.2432 12.6762 17.2343 12.6719C17.1198 12.6286 17.0116 12.5636 16.9289 12.4646C16.8334 12.3564 16.7889 12.2326 16.7666 12.1027L16.2066 10.655L14.4599 14.33C14.3422 14.5806 14.1767 14.794 13.9827 14.9734L16.6775 17.2069C16.9448 17.4235 17.0752 17.7297 17.0848 18.0422C17.0883 18.0665 17.0839 18.0899 17.0793 18.1139C17.0757 18.1326 17.072 18.1518 17.072 18.1721C17.0709 18.1883 17.0699 18.2045 17.069 18.2207C17.0647 18.2941 17.0605 18.3672 17.037 18.4381C16.9893 18.5959 16.9161 18.7475 16.7952 18.8805L12.885 23.1618C12.4491 23.6382 11.7014 23.6815 11.2146 23.2608C10.7247 22.8432 10.6801 22.1132 11.1128 21.6399L14.2467 18.2061L11.3196 15.7808L9.67155 18.4691C9.63978 18.522 9.59667 18.5624 9.55263 18.6036C9.53493 18.6202 9.51707 18.6369 9.49973 18.6547C9.42019 18.8001 9.3152 18.9331 9.16885 19.0352L4.43139 20.6221C3.90642 20.9995 3.1651 20.8912 2.77694 20.3808C2.38878 19.8704 2.50014 19.1527 3.02511 18.7722L7.65438 17.2657L10.4224 12.7554C10.4269 12.7412 10.4312 12.727 10.4355 12.7127C10.4528 12.6558 10.4701 12.5989 10.4956 12.542L12.7736 7.74402C12.8041 7.68213 12.8418 7.62492 12.8804 7.56628C12.8861 7.55751 12.8919 7.54871 12.8977 7.53985L11.1224 7.06036L9.88153 10.16C9.72245 10.5622 9.25793 10.7601 8.8475 10.6055C8.43707 10.4508 8.23345 9.99915 8.39253 9.6001L9.85926 5.92816C9.94835 5.70852 10.1329 5.55694 10.3461 5.48579C10.5274 5.38371 10.7469 5.34659 10.9665 5.40536L14.8672 6.46333C14.9073 6.47416 14.9411 6.49409 14.9742 6.51356C14.9884 6.5219 15.0024 6.53015 15.0167 6.53757C15.2394 6.56541 15.4621 6.61491 15.6785 6.7108C16.178 6.93353 16.5407 7.32021 16.7475 7.77186C16.8111 7.83992 16.8684 7.91725 16.9034 8.01006L17.9215 10.4632L20.1359 8.6535Z" fill="black"/>
</svg>
