<svg width="56" height="56" viewBox="0 0 56 56" fill="none" xmlns="http://www.w3.org/2000/svg">
<path d="M51.2725 13.5071C51.1717 13.2269 50.9619 12.9965 50.6887 12.871L41.3467 8.59918C39.3595 7.93237 37.335 7.40567 35.2908 7.02069C35.2188 7.00673 35.1472 7 35.0766 7C34.5705 7 34.1174 7.34605 34.0046 7.85354C33.2582 11.1087 30.3491 13.5458 26.8334 13.5458C23.3178 13.5458 20.4086 11.1089 19.6623 7.85354C19.5482 7.34605 19.0959 7 18.5902 7C18.5195 7 18.4479 7.00673 18.3759 7.02069C16.3319 7.40567 14.3074 7.93237 12.3171 8.59918L2.97839 12.8708C2.70348 12.9963 2.49225 13.2267 2.39624 13.5069C2.29693 13.7904 2.31483 14.0964 2.45477 14.3637L6.51038 22.2918C6.70023 22.6681 7.08639 22.8939 7.49494 22.8939C7.60039 22.8939 7.70733 22.8788 7.81279 22.8474L12.3172 21.525V48.1265C12.3172 48.7306 12.8148 49.2233 13.4263 49.2233H40.2409C40.8507 49.2233 41.3468 48.7304 41.3468 48.1265V21.5253L45.8544 22.8477C45.9599 22.8791 46.0667 22.8942 46.172 22.8942C46.5797 22.8942 46.9643 22.6684 47.1568 22.2921L51.2139 14.3641C51.3506 14.0965 51.3701 13.7906 51.2725 13.5071Z" fill="black"/>
</svg>
