<svg width="307" height="3956" viewBox="0 0 307 3956" fill="none" xmlns="http://www.w3.org/2000/svg">
<path d="M76.2553 4C90.1859 4.59557 134.731 3.57757 134.731 26C134.731 34.0222 125.89 33.8919 122.169 40C116.532 49.2547 99.8299 64 123.036 64C130.324 64 140.466 68.5173 138.413 78C136.415 87.2242 114.854 88.2391 108.309 92.8889C95.4806 102.001 70.709 95.9856 61.5281 112C52.7519 127.308 56.7634 132.873 56.7634 148C56.7634 164.456 43.9576 174.346 45.0683 196C46.1646 217.374 89.6209 223.069 102.678 232C128.968 249.984 160.126 257.664 185.626 278.222C205.257 294.048 208.917 324.684 179.779 335.556C151.88 345.965 135.702 375.004 115.239 396C97.0259 414.688 86.9376 450.038 97.9129 475.778C102.196 485.824 120.722 494.97 114.373 508C108.958 519.111 87.3711 520.994 77.1216 524.889C67.9879 528.36 55.1361 543.86 63.0441 553.778C67.5636 559.446 74.8478 561.868 79.2873 568C84.94 575.808 84.5112 586.289 87.9504 595.111C93.9565 610.518 108.03 632.158 119.57 644C135.312 660.152 176.382 665.744 177.613 692.889C179.132 726.41 134.107 746.58 111.341 764.889C77.8588 791.816 76.2553 823.939 76.2553 863.778C76.2553 878.979 70.8538 905.985 79.7205 918.667C98.9285 946.14 104.12 982.661 111.341 1016C114.647 1031.27 122.021 1034.83 123.036 1048.89C124.415 1067.99 149.221 1072.2 153.79 1089.78C162.8 1124.45 129.472 1130.09 103.544 1136C84.7289 1140.29 40.9957 1161.13 58.9292 1186.22C70.4946 1202.4 74.9327 1213.65 92.715 1220.89C107.667 1226.98 138.858 1227.95 132.348 1252C121.658 1291.49 28.8617 1257.28 71.9237 1307.78C84.4435 1322.46 69.1899 1346.5 71.0574 1363.11C74.1591 1390.69 96.8259 1403.11 115.022 1418.67C132.701 1433.78 150.433 1462.95 133.865 1484C116.335 1506.27 106.808 1517.81 107.442 1547.11C107.946 1570.38 112.942 1587.51 105.493 1610.44C101.619 1622.37 96.2289 1634.89 93.5814 1647.11C90.3134 1662.2 103.309 1670.53 111.341 1680.89C131.785 1707.26 134.951 1775.13 133.865 1808C132.468 1850.26 55.9313 1839.41 84.052 1884C90.9689 1894.97 146.251 1956.42 130.616 1965.78C112.642 1976.54 155.747 1996.53 164.185 2007.11C176 2021.93 142.15 2048.3 132.998 2058.44C119.345 2073.57 101.717 2095.78 110.474 2116C119.777 2137.48 121.515 2154.05 119.354 2176.22C117.45 2195.76 107.801 2215.65 120.87 2232.89C129.911 2244.82 140.659 2256.8 143.827 2270.89C148.654 2292.35 102.301 2321.99 96.6134 2345.33C90.6572 2369.78 89.2354 2392.07 84.052 2416" stroke="#FFCC07" stroke-width="8" stroke-linecap="round" stroke-linejoin="round"/>
<path d="M83.9203 2415C78.5776 2443.01 73.4864 2459.6 72.2636 2483.52C71.8079 2492.44 71.3227 2500.82 76.1492 2508.42C86.6768 2525 101.131 2541 78.092 2551.54C50.7888 2564.04 76.4216 2586.84 91.6913 2596.45C105.941 2605.42 108.133 2621.41 115.005 2633.79C124.324 2650.59 122.848 2669.15 140.045 2675.58C148.818 2678.87 198.987 2700.59 171.561 2714.71C148.611 2726.53 122.496 2723.6 97.7355 2723.6C88.1198 2723.6 48.911 2729.74 57.585 2747.61C63.7645 2760.34 85.3359 2755.61 96.4403 2755.61C116.352 2755.61 132.882 2757.25 152.133 2763.61C157.636 2765.43 182.35 2768.42 176.31 2779.62C169.036 2793.1 142.498 2786.49 130.331 2789.62C104.435 2796.29 71.1401 2802.13 45.0649 2803.63C19.627 2805.08 -0.181207 2832.82 6.20943 2849.64C14.9521 2872.65 46.7918 2889.88 57.585 2899.66C68.3781 2909.44 86.6185 2929.67 104.319 2933.89C115.976 2936.67 134.256 2927.93 140.045 2933.89C147.758 2941.83 209.229 2933.89 217 2956.68C217 2976.68 185.592 2985.1 176.31 2993.69C161.042 3007.81 154.955 3006.09 149.111 3022.81C145.979 3031.77 127.523 3039.26 121.049 3045.93C113.894 3053.3 138.724 3057.62 142.635 3062.16C148.471 3068.92 182.457 3091.12 156.882 3091.72C150.485 3091.87 67.5804 3081.76 68.3781 3095.72C69.2743 3111.41 101.427 3103.98 109.392 3111.73C117.059 3119.18 87.3648 3126.55 96.4403 3141.74C101.549 3150.28 138.685 3156.81 116.516 3165.74C97.2003 3173.53 80.9946 3180.26 63.6291 3191.75C43.2044 3205.27 62.927 3210.48 78.3078 3215.76C104.066 3224.6 131.608 3230.85 155.803 3243.77C168.296 3250.44 203.47 3267.36 178.684 3281.78C151.68 3297.5 120.531 3306.75 95.5769 3326.02C82.9437 3335.78 44.0776 3363.16 50.0297 3383.59C55.887 3403.7 110.096 3425.64 127.525 3438.94C156.303 3460.92 131.525 3474.24 122.776 3499.85C117.196 3516.18 49.1224 3541.8 63.6291 3554.87C78.1359 3567.94 35.8967 3593.45 50.0297 3604.89C74.2845 3624.51 137.346 3602 168.431 3614.89C208.797 3631.63 133.986 3651.21 129.683 3675.02C127.01 3689.82 114.832 3702.43 107.234 3715.03C94.7649 3735.72 103.348 3753.62 103.348 3775.72C103.348 3793.29 102.662 3808.01 109.176 3824.4C115.948 3841.45 125.965 3866.23 126.661 3884.87C127.963 3919.72 105.756 3929.51 83.9203 3952" stroke="#FFCC07" stroke-width="8" stroke-linecap="round" stroke-linejoin="round"/>
<path d="M165.308 145.546H160.364C164.156 141.658 165.5 140.05 165.5 137.554C165.5 134.722 163.58 131.962 159.38 131.962C154.268 131.962 153.044 135.922 152.972 138.346H157.172C157.172 137.674 157.316 135.49 159.26 135.49C160.58 135.49 161.3 136.57 161.3 137.674C161.3 138.658 160.844 139.378 159.332 141.13L152.372 149.242H165.308V145.546ZM175.112 149.242L178.952 143.65C180.224 141.802 180.8 140.17 180.8 138.058C180.8 134.362 178.232 131.962 174.368 131.962C170.048 131.962 167.84 134.818 167.84 138.058C167.84 141.274 169.856 143.578 172.856 143.578C173.456 143.578 173.864 143.482 174.248 143.362L170.144 149.242H175.112ZM174.416 135.49C175.904 135.49 176.768 136.594 176.768 138.01C176.768 139.378 175.904 140.506 174.416 140.506C172.88 140.506 172.04 139.33 172.04 138.01C172.04 136.594 172.976 135.49 174.416 135.49ZM183.643 147.226C183.643 148.57 184.747 149.674 186.091 149.674C187.435 149.674 188.539 148.57 188.539 147.226C188.539 145.882 187.435 144.778 186.091 144.778C184.747 144.778 183.643 145.882 183.643 147.226ZM197.872 149.722C199.528 149.722 204.256 149.338 204.256 140.842C204.256 132.346 199.528 131.962 197.872 131.962C196.216 131.962 191.488 132.346 191.488 140.842C191.488 149.338 196.216 149.722 197.872 149.722ZM197.872 146.194C195.808 146.194 195.76 143.026 195.76 140.842C195.76 138.658 195.808 135.49 197.872 135.49C199.936 135.49 199.984 138.658 199.984 140.842C199.984 143.026 199.936 146.194 197.872 146.194ZM213.579 149.242H217.611V145.21H219.483V141.682H217.611V132.442H212.067L206.019 141.754V145.21H213.579V149.242ZM213.579 141.682H209.859L213.579 135.802V141.682ZM222.159 147.226C222.159 148.57 223.263 149.674 224.607 149.674C225.951 149.674 227.055 148.57 227.055 147.226C227.055 145.882 225.951 144.778 224.607 144.778C223.263 144.778 222.159 145.882 222.159 147.226ZM242.339 145.546H237.395C241.187 141.658 242.531 140.05 242.531 137.554C242.531 134.722 240.611 131.962 236.411 131.962C231.299 131.962 230.075 135.922 230.003 138.346H234.203C234.203 137.674 234.347 135.49 236.291 135.49C237.611 135.49 238.331 136.57 238.331 137.674C238.331 138.658 237.875 139.378 236.363 141.13L229.403 149.242H242.339V145.546ZM251.351 149.722C253.007 149.722 257.735 149.338 257.735 140.842C257.735 132.346 253.007 131.962 251.351 131.962C249.695 131.962 244.967 132.346 244.967 140.842C244.967 149.338 249.695 149.722 251.351 149.722ZM251.351 146.194C249.287 146.194 249.239 143.026 249.239 140.842C249.239 138.658 249.287 135.49 251.351 135.49C253.415 135.49 253.463 138.658 253.463 140.842C253.463 143.026 253.415 146.194 251.351 146.194ZM272.266 145.546H267.322C271.114 141.658 272.458 140.05 272.458 137.554C272.458 134.722 270.538 131.962 266.338 131.962C261.226 131.962 260.002 135.922 259.93 138.346H264.13C264.13 137.674 264.274 135.49 266.218 135.49C267.538 135.49 268.258 136.57 268.258 137.674C268.258 138.658 267.802 139.378 266.29 141.13L259.33 149.242H272.266V145.546ZM274.798 143.842C274.87 145.162 275.446 149.722 281.014 149.722C284.95 149.722 287.422 147.562 287.422 144.37C287.422 141.658 285.814 140.434 284.422 140.05V139.978C285.982 139.594 286.894 138.274 286.894 136.546C286.894 133.282 283.99 131.962 281.182 131.962C279.838 131.962 275.806 132.154 275.134 137.266H279.334C279.286 136.258 280.126 135.49 281.134 135.49C281.758 135.49 282.79 135.778 282.79 137.266C282.79 139.042 281.254 139.138 280.87 139.138H280.342V142.018H280.87C281.734 142.018 283.222 142.066 283.222 143.866C283.222 144.658 283.03 146.194 281.11 146.194C279.286 146.194 278.974 144.658 278.998 143.842H274.798Z" fill="black"/>
<path d="M153.716 179.5H158.42V173.956L161.972 179.5H167.66L162.956 172.78C164.54 172.228 166.484 170.908 166.484 167.74C166.484 166.972 166.292 162.7 160.676 162.7H153.716V179.5ZM158.42 170.26V166.396H159.572C161.252 166.396 161.78 167.38 161.78 168.316C161.78 169.3 161.252 170.26 159.572 170.26H158.42ZM178.108 179.98C184.252 179.98 187.132 175.588 187.132 171.1C187.132 166.612 184.252 162.22 178.108 162.22C171.964 162.22 169.084 166.612 169.084 171.1C169.084 175.588 171.964 179.98 178.108 179.98ZM178.108 175.948C175.924 175.948 173.932 174.34 173.932 171.1C173.932 167.86 175.924 166.252 178.108 166.252C180.292 166.252 182.284 167.86 182.284 171.1C182.284 174.34 180.292 175.948 178.108 175.948ZM200.6 163.876C199.928 163.396 198.128 162.22 195.488 162.22C191.552 162.22 189.584 164.572 189.584 167.284C189.584 170.908 192.248 171.844 193.592 172.252C195.368 172.804 196.808 172.996 196.808 174.532C196.808 175.54 196.016 175.948 195.152 175.948C193.76 175.948 192.296 174.988 190.976 173.716L188.744 177.292C191.168 179.26 192.872 179.98 195.032 179.98C198.968 179.98 201.344 177.796 201.344 174.46C201.344 170.5 198.584 169.42 196.112 168.844C195.272 168.652 194.12 168.364 194.12 167.356C194.12 166.756 194.456 165.916 195.872 165.916C197.072 165.916 198.128 166.684 198.92 167.404L200.6 163.876ZM202.505 179.5H207.545L208.481 176.596H214.193L215.129 179.5H220.169L214.193 162.7H208.481L202.505 179.5ZM211.337 166.708L213.257 172.9H209.417L211.337 166.708ZM228.44 179.5H233.144V173.956H235.52C240.272 173.956 241.64 170.644 241.64 168.316C241.64 166.012 240.296 162.7 235.52 162.7H228.44V179.5ZM233.144 166.396H234.488C236.504 166.396 236.792 167.476 236.792 168.316C236.792 169.036 236.576 170.26 234.488 170.26H233.144V166.396ZM244.482 179.5H254.562V175.468H249.186V172.78H254.058V169.084H249.186V166.732H254.562V162.7H244.482V179.5ZM256.078 179.5H261.118L262.054 176.596H267.766L268.702 179.5H273.742L267.766 162.7H262.054L256.078 179.5ZM264.91 166.708L266.83 172.9H262.99L264.91 166.708ZM275.745 179.5H280.449V172.276L285.321 179.5H291.201L284.649 170.836L291.033 162.7H285.513L280.449 169.756V162.7H275.745V179.5Z" fill="black"/>
<path d="M122.653 184.258L159.204 247.565H86.1025L122.653 184.258Z" fill="black"/>
<path d="M88.0428 207.654L111.086 247.565H65L88.0428 207.654Z" fill="black"/>
<path d="M152.876 819.842C152.948 821.162 153.524 825.722 159.092 825.722C163.028 825.722 165.5 823.562 165.5 820.37C165.5 817.658 163.892 816.434 162.5 816.05V815.978C164.06 815.594 164.972 814.274 164.972 812.546C164.972 809.282 162.068 807.962 159.26 807.962C157.916 807.962 153.884 808.154 153.212 813.266H157.412C157.364 812.258 158.204 811.49 159.212 811.49C159.836 811.49 160.868 811.778 160.868 813.266C160.868 815.042 159.332 815.138 158.948 815.138H158.42V818.018H158.948C159.812 818.018 161.3 818.066 161.3 819.866C161.3 820.658 161.108 822.194 159.188 822.194C157.364 822.194 157.052 820.658 157.076 819.842H152.876ZM174.32 825.722C175.976 825.722 180.704 825.338 180.704 816.842C180.704 808.346 175.976 807.962 174.32 807.962C172.664 807.962 167.936 808.346 167.936 816.842C167.936 825.338 172.664 825.722 174.32 825.722ZM174.32 822.194C172.256 822.194 172.208 819.026 172.208 816.842C172.208 814.658 172.256 811.49 174.32 811.49C176.384 811.49 176.432 814.658 176.432 816.842C176.432 819.026 176.384 822.194 174.32 822.194ZM183.643 823.226C183.643 824.57 184.747 825.674 186.091 825.674C187.435 825.674 188.539 824.57 188.539 823.226C188.539 821.882 187.435 820.778 186.091 820.778C184.747 820.778 183.643 821.882 183.643 823.226ZM197.872 825.722C199.528 825.722 204.256 825.338 204.256 816.842C204.256 808.346 199.528 807.962 197.872 807.962C196.216 807.962 191.488 808.346 191.488 816.842C191.488 825.338 196.216 825.722 197.872 825.722ZM197.872 822.194C195.808 822.194 195.76 819.026 195.76 816.842C195.76 814.658 195.808 811.49 197.872 811.49C199.936 811.49 199.984 814.658 199.984 816.842C199.984 819.026 199.936 822.194 197.872 822.194ZM213.579 825.242H217.611V821.21H219.483V817.682H217.611V808.442H212.067L206.019 817.754V821.21H213.579V825.242ZM213.579 817.682H209.859L213.579 811.802V817.682ZM222.159 823.226C222.159 824.57 223.263 825.674 224.607 825.674C225.951 825.674 227.055 824.57 227.055 823.226C227.055 821.882 225.951 820.778 224.607 820.778C223.263 820.778 222.159 821.882 222.159 823.226ZM242.339 821.546H237.395C241.187 817.658 242.531 816.05 242.531 813.554C242.531 810.722 240.611 807.962 236.411 807.962C231.299 807.962 230.075 811.922 230.003 814.346H234.203C234.203 813.674 234.347 811.49 236.291 811.49C237.611 811.49 238.331 812.57 238.331 813.674C238.331 814.658 237.875 815.378 236.363 817.13L229.403 825.242H242.339V821.546ZM251.351 825.722C253.007 825.722 257.735 825.338 257.735 816.842C257.735 808.346 253.007 807.962 251.351 807.962C249.695 807.962 244.967 808.346 244.967 816.842C244.967 825.338 249.695 825.722 251.351 825.722ZM251.351 822.194C249.287 822.194 249.239 819.026 249.239 816.842C249.239 814.658 249.287 811.49 251.351 811.49C253.415 811.49 253.463 814.658 253.463 816.842C253.463 819.026 253.415 822.194 251.351 822.194ZM272.266 821.546H267.322C271.114 817.658 272.458 816.05 272.458 813.554C272.458 810.722 270.538 807.962 266.338 807.962C261.226 807.962 260.002 811.922 259.93 814.346H264.13C264.13 813.674 264.274 811.49 266.218 811.49C267.538 811.49 268.258 812.57 268.258 813.674C268.258 814.658 267.802 815.378 266.29 817.13L259.33 825.242H272.266V821.546ZM274.798 819.842C274.87 821.162 275.446 825.722 281.014 825.722C284.95 825.722 287.422 823.562 287.422 820.37C287.422 817.658 285.814 816.434 284.422 816.05V815.978C285.982 815.594 286.894 814.274 286.894 812.546C286.894 809.282 283.99 807.962 281.182 807.962C279.838 807.962 275.806 808.154 275.134 813.266H279.334C279.286 812.258 280.126 811.49 281.134 811.49C281.758 811.49 282.79 811.778 282.79 813.266C282.79 815.042 281.254 815.138 280.87 815.138H280.342V818.018H280.87C281.734 818.018 283.222 818.066 283.222 819.866C283.222 820.658 283.03 822.194 281.11 822.194C279.286 822.194 278.974 820.658 278.998 819.842H274.798Z" fill="black"/>
<path d="M153.716 855.5H158.42V849.956L161.972 855.5H167.66L162.956 848.78C164.54 848.228 166.484 846.908 166.484 843.74C166.484 842.972 166.292 838.7 160.676 838.7H153.716V855.5ZM158.42 846.26V842.396H159.572C161.252 842.396 161.78 843.38 161.78 844.316C161.78 845.3 161.252 846.26 159.572 846.26H158.42ZM178.108 855.98C184.252 855.98 187.132 851.588 187.132 847.1C187.132 842.612 184.252 838.22 178.108 838.22C171.964 838.22 169.084 842.612 169.084 847.1C169.084 851.588 171.964 855.98 178.108 855.98ZM178.108 851.948C175.924 851.948 173.932 850.34 173.932 847.1C173.932 843.86 175.924 842.252 178.108 842.252C180.292 842.252 182.284 843.86 182.284 847.1C182.284 850.34 180.292 851.948 178.108 851.948ZM200.6 839.876C199.928 839.396 198.128 838.22 195.488 838.22C191.552 838.22 189.584 840.572 189.584 843.284C189.584 846.908 192.248 847.844 193.592 848.252C195.368 848.804 196.808 848.996 196.808 850.532C196.808 851.54 196.016 851.948 195.152 851.948C193.76 851.948 192.296 850.988 190.976 849.716L188.744 853.292C191.168 855.26 192.872 855.98 195.032 855.98C198.968 855.98 201.344 853.796 201.344 850.46C201.344 846.5 198.584 845.42 196.112 844.844C195.272 844.652 194.12 844.364 194.12 843.356C194.12 842.756 194.456 841.916 195.872 841.916C197.072 841.916 198.128 842.684 198.92 843.404L200.6 839.876ZM202.505 855.5H207.545L208.481 852.596H214.193L215.129 855.5H220.169L214.193 838.7H208.481L202.505 855.5ZM211.337 842.708L213.257 848.9H209.417L211.337 842.708ZM246.056 855.5L243.776 852.908C245.672 850.796 245.744 847.772 245.744 847.1C245.744 842.588 242.864 838.22 236.72 838.22C231.536 838.22 227.696 841.532 227.696 847.1C227.696 852.644 231.536 855.98 236.72 855.98C238.784 855.98 240.176 855.5 241.352 854.876L243.032 856.94L246.056 855.5ZM239.024 848.156L236.144 849.452L238.16 851.684C237.824 851.828 237.368 851.948 236.72 851.948C234.536 851.948 232.544 850.364 232.544 847.1C232.544 843.332 235.112 842.252 236.72 842.252C238.352 842.252 240.896 843.308 240.896 847.1C240.896 848.252 240.704 849.044 240.32 849.716L239.024 848.156ZM255.971 855.98C262.979 855.98 263.363 850.508 263.363 848.708V838.7H258.659V848.612C258.659 849.644 258.467 851.948 255.971 851.948C253.475 851.948 253.283 849.644 253.283 848.612V838.7H248.579V848.708C248.579 850.508 248.963 855.98 255.971 855.98ZM266.875 855.5H276.955V851.468H271.579V848.78H276.451V845.084H271.579V842.732H276.955V838.7H266.875V855.5ZM290.663 839.876C289.991 839.396 288.191 838.22 285.551 838.22C281.615 838.22 279.647 840.572 279.647 843.284C279.647 846.908 282.311 847.844 283.655 848.252C285.431 848.804 286.871 848.996 286.871 850.532C286.871 851.54 286.079 851.948 285.215 851.948C283.823 851.948 282.359 850.988 281.039 849.716L278.807 853.292C281.231 855.26 282.935 855.98 285.095 855.98C289.031 855.98 291.407 853.796 291.407 850.46C291.407 846.5 288.647 845.42 286.175 844.844C285.335 844.652 284.183 844.364 284.183 843.356C284.183 842.756 284.519 841.916 285.935 841.916C287.135 841.916 288.191 842.684 288.983 843.404L290.663 839.876ZM296.599 855.5H301.303V842.732H304.999V838.7H292.903V842.732H296.599V855.5Z" fill="black"/>
<path d="M122.653 860.258L159.204 923.565H86.1025L122.653 860.258Z" fill="black"/>
<path d="M88.0428 883.654L111.086 923.565H65L88.0428 883.654Z" fill="black"/>
<path d="M159.356 1501.72C161.012 1501.72 165.74 1501.34 165.74 1492.84C165.74 1484.35 161.012 1483.96 159.356 1483.96C157.7 1483.96 152.972 1484.35 152.972 1492.84C152.972 1501.34 157.7 1501.72 159.356 1501.72ZM159.356 1498.19C157.292 1498.19 157.244 1495.03 157.244 1492.84C157.244 1490.66 157.292 1487.49 159.356 1487.49C161.42 1487.49 161.468 1490.66 161.468 1492.84C161.468 1495.03 161.42 1498.19 159.356 1498.19ZM173.096 1501.24H177.44V1484.44H170.528V1488.31H173.096V1501.24ZM183.643 1499.23C183.643 1500.57 184.747 1501.67 186.091 1501.67C187.435 1501.67 188.539 1500.57 188.539 1499.23C188.539 1497.88 187.435 1496.78 186.091 1496.78C184.747 1496.78 183.643 1497.88 183.643 1499.23ZM197.872 1501.72C199.528 1501.72 204.256 1501.34 204.256 1492.84C204.256 1484.35 199.528 1483.96 197.872 1483.96C196.216 1483.96 191.488 1484.35 191.488 1492.84C191.488 1501.34 196.216 1501.72 197.872 1501.72ZM197.872 1498.19C195.808 1498.19 195.76 1495.03 195.76 1492.84C195.76 1490.66 195.808 1487.49 197.872 1487.49C199.936 1487.49 199.984 1490.66 199.984 1492.84C199.984 1495.03 199.936 1498.19 197.872 1498.19ZM218.307 1488.14V1484.44H209.235L207.387 1493.35H208.179C209.259 1492.84 210.123 1492.63 211.059 1492.63C212.811 1492.63 214.779 1493.18 214.779 1495.22C214.779 1497.21 213.435 1498.19 211.467 1498.19C210.147 1498.19 208.947 1497.88 207.387 1496.2H206.883L206.523 1500.23C208.059 1501.19 209.691 1501.72 211.731 1501.72C215.595 1501.72 218.979 1499.42 218.979 1495.31C218.979 1492.31 217.011 1490.13 213.627 1490.13C212.907 1490.13 212.283 1490.2 211.707 1490.32L212.091 1488.14H218.307ZM222.159 1499.23C222.159 1500.57 223.263 1501.67 224.607 1501.67C225.951 1501.67 227.055 1500.57 227.055 1499.23C227.055 1497.88 225.951 1496.78 224.607 1496.78C223.263 1496.78 222.159 1497.88 222.159 1499.23ZM242.339 1497.55H237.395C241.187 1493.66 242.531 1492.05 242.531 1489.55C242.531 1486.72 240.611 1483.96 236.411 1483.96C231.299 1483.96 230.075 1487.92 230.003 1490.35H234.203C234.203 1489.67 234.347 1487.49 236.291 1487.49C237.611 1487.49 238.331 1488.57 238.331 1489.67C238.331 1490.66 237.875 1491.38 236.363 1493.13L229.403 1501.24H242.339V1497.55ZM251.351 1501.72C253.007 1501.72 257.735 1501.34 257.735 1492.84C257.735 1484.35 253.007 1483.96 251.351 1483.96C249.695 1483.96 244.967 1484.35 244.967 1492.84C244.967 1501.34 249.695 1501.72 251.351 1501.72ZM251.351 1498.19C249.287 1498.19 249.239 1495.03 249.239 1492.84C249.239 1490.66 249.287 1487.49 251.351 1487.49C253.415 1487.49 253.463 1490.66 253.463 1492.84C253.463 1495.03 253.415 1498.19 251.351 1498.19ZM272.266 1497.55H267.322C271.114 1493.66 272.458 1492.05 272.458 1489.55C272.458 1486.72 270.538 1483.96 266.338 1483.96C261.226 1483.96 260.002 1487.92 259.93 1490.35H264.13C264.13 1489.67 264.274 1487.49 266.218 1487.49C267.538 1487.49 268.258 1488.57 268.258 1489.67C268.258 1490.66 267.802 1491.38 266.29 1493.13L259.33 1501.24H272.266V1497.55ZM274.798 1495.84C274.87 1497.16 275.446 1501.72 281.014 1501.72C284.95 1501.72 287.422 1499.56 287.422 1496.37C287.422 1493.66 285.814 1492.43 284.422 1492.05V1491.98C285.982 1491.59 286.894 1490.27 286.894 1488.55C286.894 1485.28 283.99 1483.96 281.182 1483.96C279.838 1483.96 275.806 1484.15 275.134 1489.27H279.334C279.286 1488.26 280.126 1487.49 281.134 1487.49C281.758 1487.49 282.79 1487.78 282.79 1489.27C282.79 1491.04 281.254 1491.14 280.87 1491.14H280.342V1494.02H280.87C281.734 1494.02 283.222 1494.07 283.222 1495.87C283.222 1496.66 283.03 1498.19 281.11 1498.19C279.286 1498.19 278.974 1496.66 278.998 1495.84H274.798Z" fill="black"/>
<path d="M153.716 1531.5H158.42V1525.96L161.972 1531.5H167.66L162.956 1524.78C164.54 1524.23 166.484 1522.91 166.484 1519.74C166.484 1518.97 166.292 1514.7 160.676 1514.7H153.716V1531.5ZM158.42 1522.26V1518.4H159.572C161.252 1518.4 161.78 1519.38 161.78 1520.32C161.78 1521.3 161.252 1522.26 159.572 1522.26H158.42ZM178.108 1531.98C184.252 1531.98 187.132 1527.59 187.132 1523.1C187.132 1518.61 184.252 1514.22 178.108 1514.22C171.964 1514.22 169.084 1518.61 169.084 1523.1C169.084 1527.59 171.964 1531.98 178.108 1531.98ZM178.108 1527.95C175.924 1527.95 173.932 1526.34 173.932 1523.1C173.932 1519.86 175.924 1518.25 178.108 1518.25C180.292 1518.25 182.284 1519.86 182.284 1523.1C182.284 1526.34 180.292 1527.95 178.108 1527.95ZM200.6 1515.88C199.928 1515.4 198.128 1514.22 195.488 1514.22C191.552 1514.22 189.584 1516.57 189.584 1519.28C189.584 1522.91 192.248 1523.84 193.592 1524.25C195.368 1524.8 196.808 1525 196.808 1526.53C196.808 1527.54 196.016 1527.95 195.152 1527.95C193.76 1527.95 192.296 1526.99 190.976 1525.72L188.744 1529.29C191.168 1531.26 192.872 1531.98 195.032 1531.98C198.968 1531.98 201.344 1529.8 201.344 1526.46C201.344 1522.5 198.584 1521.42 196.112 1520.84C195.272 1520.65 194.12 1520.36 194.12 1519.36C194.12 1518.76 194.456 1517.92 195.872 1517.92C197.072 1517.92 198.128 1518.68 198.92 1519.4L200.6 1515.88ZM202.505 1531.5H207.545L208.481 1528.6H214.193L215.129 1531.5H220.169L214.193 1514.7H208.481L202.505 1531.5ZM211.337 1518.71L213.257 1524.9H209.417L211.337 1518.71ZM166.1 1553.96C165.236 1554.84 163.868 1555.78 162.116 1555.78C159.428 1555.78 157.82 1553.79 157.82 1551.24C157.82 1548.48 159.524 1546.42 162.116 1546.42C163.916 1546.42 165.236 1547.43 166.1 1548.44V1543.56C164.684 1542.6 162.98 1542.22 161.492 1542.22C156.932 1542.22 152.972 1545.48 152.972 1551.1C152.972 1556.48 156.572 1559.98 161.564 1559.98C163.004 1559.98 164.588 1559.76 166.1 1558.73V1553.96ZM167.445 1559.5H172.485L173.421 1556.6H179.133L180.069 1559.5H185.109L179.133 1542.7H173.421L167.445 1559.5ZM176.277 1546.71L178.197 1552.9H174.357L176.277 1546.71ZM187.112 1559.5H191.816V1553.96L195.368 1559.5H201.056L196.352 1552.78C197.936 1552.23 199.88 1550.91 199.88 1547.74C199.88 1546.97 199.688 1542.7 194.072 1542.7H187.112V1559.5ZM191.816 1550.26V1546.4H192.968C194.648 1546.4 195.176 1547.38 195.176 1548.32C195.176 1549.3 194.648 1550.26 192.968 1550.26H191.816ZM203.224 1559.5H207.76V1549.42L213.976 1559.5H218.848V1542.7H214.312V1552.61L208.168 1542.7H203.224V1559.5ZM222.547 1559.5H227.251V1542.7H222.547V1559.5ZM235.916 1559.5H240.452L246.836 1542.7H241.7L238.292 1553.79L234.812 1542.7H229.268L235.916 1559.5ZM247.161 1559.5H252.201L253.137 1556.6H258.849L259.785 1559.5H264.825L258.849 1542.7H253.137L247.161 1559.5ZM255.993 1546.71L257.913 1552.9H254.073L255.993 1546.71ZM266.828 1559.5H276.572V1555.47H271.532V1542.7H266.828V1559.5Z" fill="black"/>
<path d="M122.653 1536.26L159.204 1599.57H86.1025L122.653 1536.26Z" fill="black"/>
<path d="M88.0428 1559.65L111.086 1599.57H65L88.0428 1559.65Z" fill="black"/>
<path d="M159.356 2177.72C161.012 2177.72 165.74 2177.34 165.74 2168.84C165.74 2160.35 161.012 2159.96 159.356 2159.96C157.7 2159.96 152.972 2160.35 152.972 2168.84C152.972 2177.34 157.7 2177.72 159.356 2177.72ZM159.356 2174.19C157.292 2174.19 157.244 2171.03 157.244 2168.84C157.244 2166.66 157.292 2163.49 159.356 2163.49C161.42 2163.49 161.468 2166.66 161.468 2168.84C161.468 2171.03 161.42 2174.19 159.356 2174.19ZM180.272 2173.55H175.328C179.12 2169.66 180.464 2168.05 180.464 2165.55C180.464 2162.72 178.544 2159.96 174.344 2159.96C169.232 2159.96 168.008 2163.92 167.936 2166.35H172.136C172.136 2165.67 172.28 2163.49 174.224 2163.49C175.544 2163.49 176.264 2164.57 176.264 2165.67C176.264 2166.66 175.808 2167.38 174.296 2169.13L167.336 2177.24H180.272V2173.55ZM183.643 2175.23C183.643 2176.57 184.747 2177.67 186.091 2177.67C187.435 2177.67 188.539 2176.57 188.539 2175.23C188.539 2173.88 187.435 2172.78 186.091 2172.78C184.747 2172.78 183.643 2173.88 183.643 2175.23ZM197.872 2177.72C199.528 2177.72 204.256 2177.34 204.256 2168.84C204.256 2160.35 199.528 2159.96 197.872 2159.96C196.216 2159.96 191.488 2160.35 191.488 2168.84C191.488 2177.34 196.216 2177.72 197.872 2177.72ZM197.872 2174.19C195.808 2174.19 195.76 2171.03 195.76 2168.84C195.76 2166.66 195.808 2163.49 197.872 2163.49C199.936 2163.49 199.984 2166.66 199.984 2168.84C199.984 2171.03 199.936 2174.19 197.872 2174.19ZM218.307 2164.14V2160.44H209.235L207.387 2169.35H208.179C209.259 2168.84 210.123 2168.63 211.059 2168.63C212.811 2168.63 214.779 2169.18 214.779 2171.22C214.779 2173.21 213.435 2174.19 211.467 2174.19C210.147 2174.19 208.947 2173.88 207.387 2172.2H206.883L206.523 2176.23C208.059 2177.19 209.691 2177.72 211.731 2177.72C215.595 2177.72 218.979 2175.42 218.979 2171.31C218.979 2168.31 217.011 2166.13 213.627 2166.13C212.907 2166.13 212.283 2166.2 211.707 2166.32L212.091 2164.14H218.307ZM222.159 2175.23C222.159 2176.57 223.263 2177.67 224.607 2177.67C225.951 2177.67 227.055 2176.57 227.055 2175.23C227.055 2173.88 225.951 2172.78 224.607 2172.78C223.263 2172.78 222.159 2173.88 222.159 2175.23ZM242.339 2173.55H237.395C241.187 2169.66 242.531 2168.05 242.531 2165.55C242.531 2162.72 240.611 2159.96 236.411 2159.96C231.299 2159.96 230.075 2163.92 230.003 2166.35H234.203C234.203 2165.67 234.347 2163.49 236.291 2163.49C237.611 2163.49 238.331 2164.57 238.331 2165.67C238.331 2166.66 237.875 2167.38 236.363 2169.13L229.403 2177.24H242.339V2173.55ZM251.351 2177.72C253.007 2177.72 257.735 2177.34 257.735 2168.84C257.735 2160.35 253.007 2159.96 251.351 2159.96C249.695 2159.96 244.967 2160.35 244.967 2168.84C244.967 2177.34 249.695 2177.72 251.351 2177.72ZM251.351 2174.19C249.287 2174.19 249.239 2171.03 249.239 2168.84C249.239 2166.66 249.287 2163.49 251.351 2163.49C253.415 2163.49 253.463 2166.66 253.463 2168.84C253.463 2171.03 253.415 2174.19 251.351 2174.19ZM272.266 2173.55H267.322C271.114 2169.66 272.458 2168.05 272.458 2165.55C272.458 2162.72 270.538 2159.96 266.338 2159.96C261.226 2159.96 260.002 2163.92 259.93 2166.35H264.13C264.13 2165.67 264.274 2163.49 266.218 2163.49C267.538 2163.49 268.258 2164.57 268.258 2165.67C268.258 2166.66 267.802 2167.38 266.29 2169.13L259.33 2177.24H272.266V2173.55ZM274.798 2171.84C274.87 2173.16 275.446 2177.72 281.014 2177.72C284.95 2177.72 287.422 2175.56 287.422 2172.37C287.422 2169.66 285.814 2168.43 284.422 2168.05V2167.98C285.982 2167.59 286.894 2166.27 286.894 2164.55C286.894 2161.28 283.99 2159.96 281.182 2159.96C279.838 2159.96 275.806 2160.15 275.134 2165.27H279.334C279.286 2164.26 280.126 2163.49 281.134 2163.49C281.758 2163.49 282.79 2163.78 282.79 2165.27C282.79 2167.04 281.254 2167.14 280.87 2167.14H280.342V2170.02H280.87C281.734 2170.02 283.222 2170.07 283.222 2171.87C283.222 2172.66 283.03 2174.19 281.11 2174.19C279.286 2174.19 278.974 2172.66 278.998 2171.84H274.798Z" fill="black"/>
<path d="M153.716 2207.5H158.42V2201.96L161.972 2207.5H167.66L162.956 2200.78C164.54 2200.23 166.484 2198.91 166.484 2195.74C166.484 2194.97 166.292 2190.7 160.676 2190.7H153.716V2207.5ZM158.42 2198.26V2194.4H159.572C161.252 2194.4 161.78 2195.38 161.78 2196.32C161.78 2197.3 161.252 2198.26 159.572 2198.26H158.42ZM178.108 2207.98C184.252 2207.98 187.132 2203.59 187.132 2199.1C187.132 2194.61 184.252 2190.22 178.108 2190.22C171.964 2190.22 169.084 2194.61 169.084 2199.1C169.084 2203.59 171.964 2207.98 178.108 2207.98ZM178.108 2203.95C175.924 2203.95 173.932 2202.34 173.932 2199.1C173.932 2195.86 175.924 2194.25 178.108 2194.25C180.292 2194.25 182.284 2195.86 182.284 2199.1C182.284 2202.34 180.292 2203.95 178.108 2203.95ZM200.6 2191.88C199.928 2191.4 198.128 2190.22 195.488 2190.22C191.552 2190.22 189.584 2192.57 189.584 2195.28C189.584 2198.91 192.248 2199.84 193.592 2200.25C195.368 2200.8 196.808 2201 196.808 2202.53C196.808 2203.54 196.016 2203.95 195.152 2203.95C193.76 2203.95 192.296 2202.99 190.976 2201.72L188.744 2205.29C191.168 2207.26 192.872 2207.98 195.032 2207.98C198.968 2207.98 201.344 2205.8 201.344 2202.46C201.344 2198.5 198.584 2197.42 196.112 2196.84C195.272 2196.65 194.12 2196.36 194.12 2195.36C194.12 2194.76 194.456 2193.92 195.872 2193.92C197.072 2193.92 198.128 2194.68 198.92 2195.4L200.6 2191.88ZM202.505 2207.5H207.545L208.481 2204.6H214.193L215.129 2207.5H220.169L214.193 2190.7H208.481L202.505 2207.5ZM211.337 2194.71L213.257 2200.9H209.417L211.337 2194.71ZM236.264 2197.76V2201.45H240.632C240.248 2203.18 238.784 2204.28 236.888 2204.28C234.488 2204.28 232.4 2202.48 232.4 2199.12C232.4 2195.81 234.512 2194.25 236.72 2194.25C238.328 2194.25 239.624 2195.02 240.248 2196.24L244.4 2194.3C243.8 2193.2 241.856 2190.22 236.6 2190.22C231.224 2190.22 227.696 2193.72 227.696 2199.22C227.696 2204.88 231.824 2207.98 236.936 2207.98C244.496 2207.98 245.624 2201.72 245.288 2197.76H236.264ZM248.279 2207.5H252.983V2201.96L256.535 2207.5H262.223L257.519 2200.78C259.103 2200.23 261.047 2198.91 261.047 2195.74C261.047 2194.97 260.855 2190.7 255.239 2190.7H248.279V2207.5ZM252.983 2198.26V2194.4H254.135C255.815 2194.4 256.343 2195.38 256.343 2196.32C256.343 2197.3 255.815 2198.26 254.135 2198.26H252.983ZM264.391 2207.5H274.471V2203.47H269.095V2200.78H273.967V2197.08H269.095V2194.73H274.471V2190.7H264.391V2207.5ZM277.667 2207.5H287.747V2203.47H282.371V2200.78H287.243V2197.08H282.371V2194.73H287.747V2190.7H277.667V2207.5ZM290.943 2207.5H295.479V2197.42L301.695 2207.5H306.567V2190.7H302.031V2200.61L295.887 2190.7H290.943V2207.5ZM156.068 2235.5H160.772V2222.73H164.468V2218.7H152.372V2222.73H156.068V2235.5ZM166.805 2235.5H171.509V2229.96L175.061 2235.5H180.749L176.045 2228.78C177.629 2228.23 179.573 2226.91 179.573 2223.74C179.573 2222.97 179.381 2218.7 173.765 2218.7H166.805V2235.5ZM171.509 2226.26V2222.4H172.661C174.341 2222.4 174.869 2223.38 174.869 2224.32C174.869 2225.3 174.341 2226.26 172.661 2226.26H171.509ZM181.237 2235.5H186.277L187.213 2232.6H192.925L193.861 2235.5H198.901L192.925 2218.7H187.213L181.237 2235.5ZM190.069 2222.71L191.989 2228.9H188.149L190.069 2222.71ZM200.904 2235.5H205.608V2218.7H200.904V2235.5ZM209.305 2235.5H219.049V2231.47H214.009V2218.7H209.305V2235.5Z" fill="black"/>
<path d="M122.653 2212.26L159.204 2275.57H86.1025L122.653 2212.26Z" fill="black"/>
<path d="M88.0428 2235.65L111.086 2275.57H65L88.0428 2235.65Z" fill="black"/>
<path d="M159.356 2853.72C161.012 2853.72 165.74 2853.34 165.74 2844.84C165.74 2836.35 161.012 2835.96 159.356 2835.96C157.7 2835.96 152.972 2836.35 152.972 2844.84C152.972 2853.34 157.7 2853.72 159.356 2853.72ZM159.356 2850.19C157.292 2850.19 157.244 2847.03 157.244 2844.84C157.244 2842.66 157.292 2839.49 159.356 2839.49C161.42 2839.49 161.468 2842.66 161.468 2844.84C161.468 2847.03 161.42 2850.19 159.356 2850.19ZM180.272 2849.55H175.328C179.12 2845.66 180.464 2844.05 180.464 2841.55C180.464 2838.72 178.544 2835.96 174.344 2835.96C169.232 2835.96 168.008 2839.92 167.936 2842.35H172.136C172.136 2841.67 172.28 2839.49 174.224 2839.49C175.544 2839.49 176.264 2840.57 176.264 2841.67C176.264 2842.66 175.808 2843.38 174.296 2845.13L167.336 2853.24H180.272V2849.55ZM183.643 2851.23C183.643 2852.57 184.747 2853.67 186.091 2853.67C187.435 2853.67 188.539 2852.57 188.539 2851.23C188.539 2849.88 187.435 2848.78 186.091 2848.78C184.747 2848.78 183.643 2849.88 183.643 2851.23ZM197.872 2853.72C199.528 2853.72 204.256 2853.34 204.256 2844.84C204.256 2836.35 199.528 2835.96 197.872 2835.96C196.216 2835.96 191.488 2836.35 191.488 2844.84C191.488 2853.34 196.216 2853.72 197.872 2853.72ZM197.872 2850.19C195.808 2850.19 195.76 2847.03 195.76 2844.84C195.76 2842.66 195.808 2839.49 197.872 2839.49C199.936 2839.49 199.984 2842.66 199.984 2844.84C199.984 2847.03 199.936 2850.19 197.872 2850.19ZM218.307 2840.14V2836.44H209.235L207.387 2845.35H208.179C209.259 2844.84 210.123 2844.63 211.059 2844.63C212.811 2844.63 214.779 2845.18 214.779 2847.22C214.779 2849.21 213.435 2850.19 211.467 2850.19C210.147 2850.19 208.947 2849.88 207.387 2848.2H206.883L206.523 2852.23C208.059 2853.19 209.691 2853.72 211.731 2853.72C215.595 2853.72 218.979 2851.42 218.979 2847.31C218.979 2844.31 217.011 2842.13 213.627 2842.13C212.907 2842.13 212.283 2842.2 211.707 2842.32L212.091 2840.14H218.307ZM222.159 2851.23C222.159 2852.57 223.263 2853.67 224.607 2853.67C225.951 2853.67 227.055 2852.57 227.055 2851.23C227.055 2849.88 225.951 2848.78 224.607 2848.78C223.263 2848.78 222.159 2849.88 222.159 2851.23ZM242.339 2849.55H237.395C241.187 2845.66 242.531 2844.05 242.531 2841.55C242.531 2838.72 240.611 2835.96 236.411 2835.96C231.299 2835.96 230.075 2839.92 230.003 2842.35H234.203C234.203 2841.67 234.347 2839.49 236.291 2839.49C237.611 2839.49 238.331 2840.57 238.331 2841.67C238.331 2842.66 237.875 2843.38 236.363 2845.13L229.403 2853.24H242.339V2849.55ZM251.351 2853.72C253.007 2853.72 257.735 2853.34 257.735 2844.84C257.735 2836.35 253.007 2835.96 251.351 2835.96C249.695 2835.96 244.967 2836.35 244.967 2844.84C244.967 2853.34 249.695 2853.72 251.351 2853.72ZM251.351 2850.19C249.287 2850.19 249.239 2847.03 249.239 2844.84C249.239 2842.66 249.287 2839.49 251.351 2839.49C253.415 2839.49 253.463 2842.66 253.463 2844.84C253.463 2847.03 253.415 2850.19 251.351 2850.19ZM272.266 2849.55H267.322C271.114 2845.66 272.458 2844.05 272.458 2841.55C272.458 2838.72 270.538 2835.96 266.338 2835.96C261.226 2835.96 260.002 2839.92 259.93 2842.35H264.13C264.13 2841.67 264.274 2839.49 266.218 2839.49C267.538 2839.49 268.258 2840.57 268.258 2841.67C268.258 2842.66 267.802 2843.38 266.29 2845.13L259.33 2853.24H272.266V2849.55ZM274.798 2847.84C274.87 2849.16 275.446 2853.72 281.014 2853.72C284.95 2853.72 287.422 2851.56 287.422 2848.37C287.422 2845.66 285.814 2844.43 284.422 2844.05V2843.98C285.982 2843.59 286.894 2842.27 286.894 2840.55C286.894 2837.28 283.99 2835.96 281.182 2835.96C279.838 2835.96 275.806 2836.15 275.134 2841.27H279.334C279.286 2840.26 280.126 2839.49 281.134 2839.49C281.758 2839.49 282.79 2839.78 282.79 2841.27C282.79 2843.04 281.254 2843.14 280.87 2843.14H280.342V2846.02H280.87C281.734 2846.02 283.222 2846.07 283.222 2847.87C283.222 2848.66 283.03 2850.19 281.11 2850.19C279.286 2850.19 278.974 2848.66 278.998 2847.84H274.798Z" fill="black"/>
<path d="M153.716 2883.5H158.42V2877.96L161.972 2883.5H167.66L162.956 2876.78C164.54 2876.23 166.484 2874.91 166.484 2871.74C166.484 2870.97 166.292 2866.7 160.676 2866.7H153.716V2883.5ZM158.42 2874.26V2870.4H159.572C161.252 2870.4 161.78 2871.38 161.78 2872.32C161.78 2873.3 161.252 2874.26 159.572 2874.26H158.42ZM178.108 2883.98C184.252 2883.98 187.132 2879.59 187.132 2875.1C187.132 2870.61 184.252 2866.22 178.108 2866.22C171.964 2866.22 169.084 2870.61 169.084 2875.1C169.084 2879.59 171.964 2883.98 178.108 2883.98ZM178.108 2879.95C175.924 2879.95 173.932 2878.34 173.932 2875.1C173.932 2871.86 175.924 2870.25 178.108 2870.25C180.292 2870.25 182.284 2871.86 182.284 2875.1C182.284 2878.34 180.292 2879.95 178.108 2879.95ZM200.6 2867.88C199.928 2867.4 198.128 2866.22 195.488 2866.22C191.552 2866.22 189.584 2868.57 189.584 2871.28C189.584 2874.91 192.248 2875.84 193.592 2876.25C195.368 2876.8 196.808 2877 196.808 2878.53C196.808 2879.54 196.016 2879.95 195.152 2879.95C193.76 2879.95 192.296 2878.99 190.976 2877.72L188.744 2881.29C191.168 2883.26 192.872 2883.98 195.032 2883.98C198.968 2883.98 201.344 2881.8 201.344 2878.46C201.344 2874.5 198.584 2873.42 196.112 2872.84C195.272 2872.65 194.12 2872.36 194.12 2871.36C194.12 2870.76 194.456 2869.92 195.872 2869.92C197.072 2869.92 198.128 2870.68 198.92 2871.4L200.6 2867.88ZM202.505 2883.5H207.545L208.481 2880.6H214.193L215.129 2883.5H220.169L214.193 2866.7H208.481L202.505 2883.5ZM211.337 2870.71L213.257 2876.9H209.417L211.337 2870.71ZM228.44 2883.5H233.144V2877.96L236.696 2883.5H242.384L237.68 2876.78C239.264 2876.23 241.208 2874.91 241.208 2871.74C241.208 2870.97 241.016 2866.7 235.4 2866.7H228.44V2883.5ZM233.144 2874.26V2870.4H234.296C235.976 2870.4 236.504 2871.38 236.504 2872.32C236.504 2873.3 235.976 2874.26 234.296 2874.26H233.144ZM244.552 2883.5H254.632V2879.47H249.256V2876.78H254.128V2873.08H249.256V2870.73H254.632V2866.7H244.552V2883.5ZM257.828 2883.5H263.972C269.996 2883.5 272.612 2879.61 272.612 2875.1C272.612 2871.33 270.884 2866.7 263.972 2866.7H257.828V2883.5ZM262.532 2879.47V2870.73H263.06C267.716 2870.73 267.764 2874.16 267.764 2875.1C267.764 2875.96 267.716 2879.47 263.06 2879.47H262.532ZM156.068 2911.5H160.772V2898.73H164.468V2894.7H152.372V2898.73H156.068V2911.5ZM166.805 2911.5H171.509V2905.96L175.061 2911.5H180.749L176.045 2904.78C177.629 2904.23 179.573 2902.91 179.573 2899.74C179.573 2898.97 179.381 2894.7 173.765 2894.7H166.805V2911.5ZM171.509 2902.26V2898.4H172.661C174.341 2898.4 174.869 2899.38 174.869 2900.32C174.869 2901.3 174.341 2902.26 172.661 2902.26H171.509ZM181.237 2911.5H186.277L187.213 2908.6H192.925L193.861 2911.5H198.901L192.925 2894.7H187.213L181.237 2911.5ZM190.069 2898.71L191.989 2904.9H188.149L190.069 2898.71ZM200.904 2911.5H205.608V2894.7H200.904V2911.5ZM209.305 2911.5H219.049V2907.47H214.009V2894.7H209.305V2911.5Z" fill="black"/>
<path d="M122.653 2888.26L159.204 2951.57H86.1025L122.653 2888.26Z" fill="black"/>
<path d="M88.0428 2911.65L111.086 2951.57H65L88.0428 2911.65Z" fill="black"/>
<path d="M159.356 3529.72C161.012 3529.72 165.74 3529.34 165.74 3520.84C165.74 3512.35 161.012 3511.96 159.356 3511.96C157.7 3511.96 152.972 3512.35 152.972 3520.84C152.972 3529.34 157.7 3529.72 159.356 3529.72ZM159.356 3526.19C157.292 3526.19 157.244 3523.03 157.244 3520.84C157.244 3518.66 157.292 3515.49 159.356 3515.49C161.42 3515.49 161.468 3518.66 161.468 3520.84C161.468 3523.03 161.42 3526.19 159.356 3526.19ZM180.272 3525.55H175.328C179.12 3521.66 180.464 3520.05 180.464 3517.55C180.464 3514.72 178.544 3511.96 174.344 3511.96C169.232 3511.96 168.008 3515.92 167.936 3518.35H172.136C172.136 3517.67 172.28 3515.49 174.224 3515.49C175.544 3515.49 176.264 3516.57 176.264 3517.67C176.264 3518.66 175.808 3519.38 174.296 3521.13L167.336 3529.24H180.272V3525.55ZM183.643 3527.23C183.643 3528.57 184.747 3529.67 186.091 3529.67C187.435 3529.67 188.539 3528.57 188.539 3527.23C188.539 3525.88 187.435 3524.78 186.091 3524.78C184.747 3524.78 183.643 3525.88 183.643 3527.23ZM197.872 3529.72C199.528 3529.72 204.256 3529.34 204.256 3520.84C204.256 3512.35 199.528 3511.96 197.872 3511.96C196.216 3511.96 191.488 3512.35 191.488 3520.84C191.488 3529.34 196.216 3529.72 197.872 3529.72ZM197.872 3526.19C195.808 3526.19 195.76 3523.03 195.76 3520.84C195.76 3518.66 195.808 3515.49 197.872 3515.49C199.936 3515.49 199.984 3518.66 199.984 3520.84C199.984 3523.03 199.936 3526.19 197.872 3526.19ZM218.307 3516.14V3512.44H209.235L207.387 3521.35H208.179C209.259 3520.84 210.123 3520.63 211.059 3520.63C212.811 3520.63 214.779 3521.18 214.779 3523.22C214.779 3525.21 213.435 3526.19 211.467 3526.19C210.147 3526.19 208.947 3525.88 207.387 3524.2H206.883L206.523 3528.23C208.059 3529.19 209.691 3529.72 211.731 3529.72C215.595 3529.72 218.979 3527.42 218.979 3523.31C218.979 3520.31 217.011 3518.13 213.627 3518.13C212.907 3518.13 212.283 3518.2 211.707 3518.32L212.091 3516.14H218.307ZM222.159 3527.23C222.159 3528.57 223.263 3529.67 224.607 3529.67C225.951 3529.67 227.055 3528.57 227.055 3527.23C227.055 3525.88 225.951 3524.78 224.607 3524.78C223.263 3524.78 222.159 3525.88 222.159 3527.23ZM242.339 3525.55H237.395C241.187 3521.66 242.531 3520.05 242.531 3517.55C242.531 3514.72 240.611 3511.96 236.411 3511.96C231.299 3511.96 230.075 3515.92 230.003 3518.35H234.203C234.203 3517.67 234.347 3515.49 236.291 3515.49C237.611 3515.49 238.331 3516.57 238.331 3517.67C238.331 3518.66 237.875 3519.38 236.363 3521.13L229.403 3529.24H242.339V3525.55ZM251.351 3529.72C253.007 3529.72 257.735 3529.34 257.735 3520.84C257.735 3512.35 253.007 3511.96 251.351 3511.96C249.695 3511.96 244.967 3512.35 244.967 3520.84C244.967 3529.34 249.695 3529.72 251.351 3529.72ZM251.351 3526.19C249.287 3526.19 249.239 3523.03 249.239 3520.84C249.239 3518.66 249.287 3515.49 251.351 3515.49C253.415 3515.49 253.463 3518.66 253.463 3520.84C253.463 3523.03 253.415 3526.19 251.351 3526.19ZM272.266 3525.55H267.322C271.114 3521.66 272.458 3520.05 272.458 3517.55C272.458 3514.72 270.538 3511.96 266.338 3511.96C261.226 3511.96 260.002 3515.92 259.93 3518.35H264.13C264.13 3517.67 264.274 3515.49 266.218 3515.49C267.538 3515.49 268.258 3516.57 268.258 3517.67C268.258 3518.66 267.802 3519.38 266.29 3521.13L259.33 3529.24H272.266V3525.55ZM274.798 3523.84C274.87 3525.16 275.446 3529.72 281.014 3529.72C284.95 3529.72 287.422 3527.56 287.422 3524.37C287.422 3521.66 285.814 3520.43 284.422 3520.05V3519.98C285.982 3519.59 286.894 3518.27 286.894 3516.55C286.894 3513.28 283.99 3511.96 281.182 3511.96C279.838 3511.96 275.806 3512.15 275.134 3517.27H279.334C279.286 3516.26 280.126 3515.49 281.134 3515.49C281.758 3515.49 282.79 3515.78 282.79 3517.27C282.79 3519.04 281.254 3519.14 280.87 3519.14H280.342V3522.02H280.87C281.734 3522.02 283.222 3522.07 283.222 3523.87C283.222 3524.66 283.03 3526.19 281.11 3526.19C279.286 3526.19 278.974 3524.66 278.998 3523.84H274.798Z" fill="black"/>
<path d="M153.716 3559.5H158.42V3553.96L161.972 3559.5H167.66L162.956 3552.78C164.54 3552.23 166.484 3550.91 166.484 3547.74C166.484 3546.97 166.292 3542.7 160.676 3542.7H153.716V3559.5ZM158.42 3550.26V3546.4H159.572C161.252 3546.4 161.78 3547.38 161.78 3548.32C161.78 3549.3 161.252 3550.26 159.572 3550.26H158.42ZM178.108 3559.98C184.252 3559.98 187.132 3555.59 187.132 3551.1C187.132 3546.61 184.252 3542.22 178.108 3542.22C171.964 3542.22 169.084 3546.61 169.084 3551.1C169.084 3555.59 171.964 3559.98 178.108 3559.98ZM178.108 3555.95C175.924 3555.95 173.932 3554.34 173.932 3551.1C173.932 3547.86 175.924 3546.25 178.108 3546.25C180.292 3546.25 182.284 3547.86 182.284 3551.1C182.284 3554.34 180.292 3555.95 178.108 3555.95ZM200.6 3543.88C199.928 3543.4 198.128 3542.22 195.488 3542.22C191.552 3542.22 189.584 3544.57 189.584 3547.28C189.584 3550.91 192.248 3551.84 193.592 3552.25C195.368 3552.8 196.808 3553 196.808 3554.53C196.808 3555.54 196.016 3555.95 195.152 3555.95C193.76 3555.95 192.296 3554.99 190.976 3553.72L188.744 3557.29C191.168 3559.26 192.872 3559.98 195.032 3559.98C198.968 3559.98 201.344 3557.8 201.344 3554.46C201.344 3550.5 198.584 3549.42 196.112 3548.84C195.272 3548.65 194.12 3548.36 194.12 3547.36C194.12 3546.76 194.456 3545.92 195.872 3545.92C197.072 3545.92 198.128 3546.68 198.92 3547.4L200.6 3543.88ZM202.505 3559.5H207.545L208.481 3556.6H214.193L215.129 3559.5H220.169L214.193 3542.7H208.481L202.505 3559.5ZM211.337 3546.71L213.257 3552.9H209.417L211.337 3546.71ZM228.44 3559.5H233.144V3552.28L238.016 3559.5H243.896L237.344 3550.84L243.728 3542.7H238.208L233.144 3549.76V3542.7H228.44V3559.5ZM245.911 3559.5H250.615V3542.7H245.911V3559.5ZM254.312 3559.5H260.456C266.48 3559.5 269.096 3555.61 269.096 3551.1C269.096 3547.33 267.368 3542.7 260.456 3542.7H254.312V3559.5ZM259.016 3555.47V3546.73H259.544C264.2 3546.73 264.248 3550.16 264.248 3551.1C264.248 3551.96 264.2 3555.47 259.544 3555.47H259.016ZM282.554 3543.88C281.882 3543.4 280.082 3542.22 277.442 3542.22C273.506 3542.22 271.538 3544.57 271.538 3547.28C271.538 3550.91 274.202 3551.84 275.546 3552.25C277.322 3552.8 278.762 3553 278.762 3554.53C278.762 3555.54 277.97 3555.95 277.106 3555.95C275.714 3555.95 274.25 3554.99 272.93 3553.72L270.698 3557.29C273.122 3559.26 274.826 3559.98 276.986 3559.98C280.922 3559.98 283.298 3557.8 283.298 3554.46C283.298 3550.5 280.538 3549.42 278.066 3548.84C277.226 3548.65 276.074 3548.36 276.074 3547.36C276.074 3546.76 276.41 3545.92 277.826 3545.92C279.026 3545.92 280.082 3546.68 280.874 3547.4L282.554 3543.88Z" fill="black"/>
<path d="M122.653 3564.26L159.204 3627.57H86.1025L122.653 3564.26Z" fill="black"/>
<path d="M88.0428 3587.65L111.086 3627.57H65L88.0428 3587.65Z" fill="black"/>
</svg>
