<svg width="300" height="216" viewBox="0 0 300 216" fill="none" xmlns="http://www.w3.org/2000/svg">
<path d="M270 130.293V91.6661H259.194L247.711 109.967V91.6661H236.93V109.839C236.644 104.976 234.616 100.572 231.41 97.3252C227.946 93.8106 223.095 91.6491 217.671 91.6533C212.251 91.6533 207.395 93.8149 203.932 97.3252C200.465 100.836 198.369 105.699 198.374 111.035C198.374 116.371 200.482 121.213 203.962 124.685C207.433 128.161 212.281 130.284 217.675 130.284H217.688C223.078 130.284 227.921 128.161 231.393 124.685C234.607 121.472 236.653 117.09 236.939 112.23V130.297H246.692L258.176 112.001V130.297H270.004L270 130.293ZM226.192 110.992C226.192 113.35 225.262 115.486 223.726 117.017C222.194 118.553 220.057 119.49 217.675 119.49H217.671C215.289 119.49 213.152 118.553 211.616 117.017C210.08 115.486 209.15 113.345 209.15 110.992C209.15 108.639 210.076 106.491 211.607 104.942C213.135 103.389 215.281 102.435 217.671 102.435C220.065 102.435 222.207 103.389 223.739 104.942C225.27 106.491 226.196 108.639 226.192 110.992Z" fill="black"/>
<path d="M198.378 130.28V91.6484H187.601V119.565H179.144V91.6484H168.367V119.565H159.909V91.6484H149.133V117.264C149.083 114.379 148.258 111.302 146.112 108.856C143.903 106.32 140.351 104.733 135.723 104.754H132.992V91.6484H122.215V130.28H135.739C139.484 130.28 142.855 129.05 145.287 126.778C147.681 124.561 149.083 121.353 149.133 117.774V130.28H198.386H198.378ZM138.647 117.502C138.647 118.221 138.374 118.868 137.898 119.31C137.418 119.753 136.762 119.995 136.021 119.995H133V115.004H136.021C136.758 115.004 137.418 115.247 137.898 115.689C138.378 116.136 138.651 116.783 138.647 117.502Z" fill="black"/>
<path d="M120.583 130.297V91.6657H110.825L110.156 92.7379L93.076 120.106C94.4982 117.404 95.2977 114.311 95.2977 111.03C95.2977 105.699 93.2064 100.831 89.7391 97.3206C86.276 93.8059 81.4244 91.6444 76.0004 91.6486C70.5765 91.6486 65.7248 93.8102 62.2617 97.3206C58.7944 100.831 56.6989 105.694 56.7031 111.03C56.7031 112.085 56.7873 113.115 56.9472 114.124C56.6779 112.983 56.2319 111.694 55.4618 110.405C54.5655 108.907 53.2022 107.43 51.275 106.384C49.3478 105.328 46.9072 104.711 43.9238 104.716H40.8311V102.324H54.2457V91.6061L30.1431 91.5508V130.182L43.9154 130.237C43.9154 130.237 43.928 130.237 43.9323 130.237C47.6941 130.237 51.0688 129.008 53.5009 126.735C55.9415 124.467 57.3427 121.17 57.3301 117.502C57.3259 117.059 57.3049 116.277 57.1618 115.306C57.9613 118.932 59.758 122.17 62.2786 124.684C65.7501 128.161 70.5975 130.284 75.992 130.284H76.0046C81.3949 130.284 86.2382 128.161 89.7055 124.684C90.3871 124.004 91.0141 123.268 91.5864 122.489L86.7137 130.301H98.319L109.802 112V130.301H120.579L120.583 130.297ZM46.5033 117.502C46.5033 118.221 46.2297 118.868 45.7543 119.315C45.2746 119.757 44.6181 120 43.8776 120H40.8563V115.009H43.8776C44.6139 115.009 45.2746 115.251 45.7543 115.694C46.234 116.14 46.5075 116.787 46.5033 117.502ZM84.5171 110.996C84.5171 113.353 83.5872 115.489 82.0513 117.021C80.5197 118.557 78.3821 119.493 76.0004 119.493C73.6188 119.493 71.477 118.557 69.9453 117.021C68.4094 115.489 67.4795 113.349 67.4795 110.996C67.4795 108.643 68.4052 106.494 69.9327 104.946C71.4601 103.392 73.6061 102.439 76.0004 102.439C78.3947 102.439 80.5365 103.392 82.0682 104.946C83.5998 106.494 84.5256 108.643 84.5214 110.996" fill="black"/>
<path d="M263.945 141.951H267.046V135.926H269.937V133.88H261.063V135.926H263.945V141.951ZM256.59 135.616C257.511 135.616 257.932 135.794 257.932 136.484C257.932 137.173 257.515 137.36 256.59 137.36H254.898V135.616H256.59ZM251.805 141.951H254.894V139.118H257.776C260.061 139.118 261.307 138.139 261.307 136.492C261.307 134.846 260.065 133.88 257.776 133.88H251.805V141.951ZM243.756 137.918C243.756 136.505 244.471 135.739 245.801 135.739C247.13 135.739 247.846 136.505 247.846 137.918C247.846 139.33 247.13 140.088 245.801 140.088C244.471 140.088 243.756 139.33 243.756 137.918ZM240.436 137.918C240.436 140.709 242.241 142.186 245.801 142.186C249.361 142.186 251.166 140.705 251.166 137.918C251.166 135.131 249.361 133.671 245.801 133.671C242.241 133.671 240.436 135.126 240.436 137.918ZM230.089 141.951H233.177V135.892H236.708V141.951H239.796V133.88H230.089V141.951ZM226.032 137.271H229.563C229.453 134.969 227.627 133.667 224.286 133.667C220.722 133.667 218.921 135.122 218.921 137.913C218.921 140.705 220.726 142.16 224.286 142.16C227.463 142.16 229.268 140.981 229.584 138.769H226.02C225.834 139.645 225.228 140.079 224.282 140.079C222.952 140.079 222.237 139.322 222.237 137.909C222.237 136.497 222.952 135.731 224.282 135.731C225.317 135.731 225.931 136.263 226.028 137.267" fill="black"/>
<path d="M106.718 133.969V137.778H108.178V134.918H110.475V133.969H106.718ZM102.821 135.871C102.821 135.203 103.158 134.842 103.785 134.842C104.412 134.842 104.749 135.203 104.749 135.871C104.749 136.539 104.412 136.897 103.785 136.897C103.158 136.897 102.821 136.539 102.821 135.871ZM101.256 135.871C101.256 137.186 102.106 137.884 103.785 137.884C105.464 137.884 106.314 137.186 106.314 135.871C106.314 134.556 105.464 133.867 103.785 133.867C102.106 133.867 101.256 134.552 101.256 135.871ZM99.009 136.956H98.1591V136.195H99.009C99.413 136.195 99.5939 136.267 99.5939 136.578C99.5939 136.888 99.413 136.956 99.009 136.956ZM96.7031 133.969V137.778H99.5645C100.612 137.778 101.185 137.322 101.185 136.573C101.185 135.824 100.642 135.39 99.5982 135.39H98.1633V134.791H100.709V133.974H96.7073L96.7031 133.969ZM92.693 137.778H94.0606V136.556H92.693V137.778ZM88.1696 137.778H92.2807V136.799H89.6255V136.297H91.6747V135.365H89.6255V134.91H92.1544V133.978H88.1654V137.786L88.1696 137.778ZM83.7976 137.778H87.9087V136.799H85.2535V136.297H87.3028V135.365H85.2535V134.91H87.7825V133.978H83.7934V137.786L83.7976 137.778ZM78.6009 137.778H80.0568V136.237H81.7231V137.778H83.179V133.969H81.7231V135.284H80.0568V133.969H78.6009V137.778ZM76.1351 136.961H75.2851V136.199H76.1351C76.539 136.199 76.72 136.271 76.72 136.582C76.72 136.892 76.539 136.961 76.1351 136.961ZM73.8292 133.969V137.778H76.6905C77.7383 137.778 78.3063 137.322 78.3063 136.573C78.3063 135.824 77.7635 135.39 76.72 135.39H75.2851V133.974H73.8292V133.969ZM69.0238 135.927C69.0238 136.539 69.0154 136.918 68.5272 136.918C68.3716 136.918 68.2537 136.91 68.1654 136.88V137.765C68.4557 137.816 68.7376 137.846 69.028 137.846C69.5245 137.846 69.8275 137.739 70.0631 137.488C70.3366 137.186 70.4797 136.68 70.4797 135.956V134.918H71.7547V137.778H73.2106V133.969H69.028V135.927H69.0238ZM67.9508 137.778V133.969H66.3013L64.7696 136.161V133.969H63.36V137.778H64.9926L66.5748 135.514V137.778H67.9466H67.9508ZM61.3528 135.569H63.0191C62.9687 134.484 62.106 133.871 60.5323 133.871C58.8534 133.871 58.0034 134.556 58.0034 135.876C58.0034 137.195 58.8534 137.88 60.5323 137.88C62.0303 137.88 62.8803 137.322 63.0318 136.28H61.3528C61.2645 136.693 60.9783 136.901 60.5323 136.901C59.9053 136.901 59.5687 136.544 59.5687 135.876C59.5687 135.208 59.9053 134.846 60.5323 134.846C61.0204 134.846 61.3108 135.097 61.357 135.569M54.0059 137.778H55.3734V136.556H54.0059V137.778ZM49.4824 137.778H53.5935V136.799H50.9384V136.297H52.9876V135.365H50.9384V134.91H53.4673V133.978H49.4782V137.786L49.4824 137.778ZM44.879 133.969V136.773H43.7471V133.969H42.3417V137.778H48.8218V133.969H47.4164V136.773H46.2845V133.969H44.8748H44.879ZM40.2209 137.778H41.6768V133.969H40.2209V137.778ZM37.3469 136.961H36.4969V136.199H37.3469C37.7509 136.199 37.9318 136.271 37.9318 136.582C37.9318 136.892 37.7509 136.961 37.3469 136.961ZM35.041 133.969V137.778H37.936C38.9796 137.778 39.5224 137.322 39.5224 136.573C39.5224 135.824 38.9796 135.39 37.936 135.39H36.5012V133.974H35.0452L35.041 133.969ZM31.4559 136.829V136.199H32.4869C32.8824 136.199 33.0591 136.237 33.0591 136.518C33.0591 136.799 32.874 136.829 32.4869 136.829H31.4559ZM31.4559 134.863H32.4364C32.7772 134.863 32.9455 134.876 32.9455 135.131C32.9455 135.386 32.7856 135.403 32.4364 135.403H31.4559V134.863ZM33.0297 133.974H30V137.782H33.219C34.1574 137.782 34.6244 137.416 34.6244 136.697C34.6244 136.22 34.4014 135.901 33.9722 135.756C34.3004 135.582 34.4688 135.297 34.4688 134.922C34.4688 134.195 34.0059 133.974 33.0255 133.974" fill="black"/>
<path d="M119.926 137.774H124.037V136.795H121.382V136.293H123.431V135.357H121.382V134.902H123.911V133.97H119.926V137.774Z" fill="black"/>
<path d="M119.308 133.969H117.852V135.343C117.688 135.403 117.402 135.475 117.09 135.475C116.691 135.475 116.358 135.378 116.358 134.829V133.969H114.902V135.118C114.902 136.109 115.836 136.343 116.724 136.343C117.154 136.343 117.57 136.271 117.856 136.19V137.773H119.312V133.965L119.308 133.969Z" fill="black"/>
<path d="M113.568 133.97H111.717L110.088 137.778H111.649L111.784 137.399H113.387L113.514 137.778H115.092L113.572 133.97H113.568ZM112.133 136.467L112.609 135.123L113.059 136.467H112.129H112.133Z" fill="black"/>
<path d="M250.539 99.099L258.344 85.7852H250.539V99.099Z" fill="black"/>
</svg>
