<svg width="300" height="215" viewBox="0 0 300 215" fill="none" xmlns="http://www.w3.org/2000/svg">
<path d="M69.8494 99.1024C69.8494 97.4376 69.3113 96.2227 68.2801 95.4577C67.2489 94.6928 65.3657 94.3328 62.5859 94.3328H48.4623C45.6376 94.3328 43.6199 94.9628 42.499 96.1777C41.3781 97.3926 40.7952 99.5074 40.7504 102.567L40.6607 112.241C40.7056 114.131 40.9297 115.571 41.3333 116.561C41.7368 117.551 42.499 118.226 43.5751 118.676C44.6512 119.081 46.2653 119.306 48.3726 119.306H62.4962C64.3793 119.306 65.8589 119.171 66.9798 118.946C68.0559 118.721 68.863 118.316 69.3562 117.731C69.8494 117.146 70.1184 116.381 70.2081 115.346V110.442H54.4704V103.332H79.848V114.041C79.848 117.236 79.3548 119.756 78.3683 121.646C77.3819 123.535 75.8575 124.84 73.7502 125.65C71.6429 126.46 68.863 126.865 65.3209 126.865H45.9515C42.6335 126.865 39.8985 126.37 37.7463 125.425C35.5942 124.48 33.9352 122.995 32.8592 120.971C31.7831 118.946 31.2002 116.336 31.2002 113.141V101.352C31.245 97.7526 31.7831 94.9178 32.7695 92.8029C33.7559 90.6881 35.3252 89.1583 37.4773 88.2133C39.6295 87.2684 42.4542 86.7734 45.9515 86.7734H65.1415C67.7421 86.7734 69.8942 86.9534 71.6877 87.3134C73.4363 87.6734 74.9608 88.3033 76.1713 89.2032C77.3819 90.1032 78.2787 91.3631 78.9064 92.9379C79.5341 94.5578 79.848 96.5826 79.848 99.0574H69.9391L69.8494 99.1024Z" fill="#1D1D1B"/>
<path d="M86.2603 126.865V86.7285H127.151V94.2879H95.8553V103.062H126.165V110.082H95.8553V119.261H127.151V126.82H86.2603V126.865Z" fill="#1D1D1B"/>
<path d="M133.876 126.865V86.7285H143.426V118.901H168.176V126.865H133.876Z" fill="#1D1D1B"/>
<path d="M214.223 86.7286V110.262H219.649V118.181H214.223V126.865H204.673V118.226H174.812V104.727L197.141 86.6836H214.268L214.223 86.7286ZM204.673 110.262V94.6929H202.431L184.362 109.002V110.262H204.673Z" fill="#C11F21"/>
<path d="M223.325 86.7285H232.875V111.656C232.875 114.356 233.458 116.246 234.579 117.281C235.7 118.361 237.628 118.856 240.273 118.856H253.455C255.069 118.856 256.414 118.631 257.401 118.181C258.432 117.731 259.15 116.966 259.688 115.886C260.181 114.806 260.45 113.366 260.45 111.611V86.7285H270V112.601C270 115.301 269.731 117.551 269.193 119.351C268.655 121.151 267.848 122.591 266.682 123.716C265.561 124.84 264.082 125.65 262.288 126.145C260.495 126.64 258.298 126.91 255.652 126.91H238.076C233.055 126.91 229.288 125.74 226.867 123.401C224.446 121.061 223.235 117.461 223.235 112.601V86.7285H223.325Z" fill="#C11F21"/>
</svg>
