<svg width="300" height="216" viewBox="0 0 300 216" fill="none" xmlns="http://www.w3.org/2000/svg">
<path d="M44.0613 78.0367V119.262H35.5135V78.0367H44.0613Z" fill="#020A0A"/>
<path d="M96.8537 108.193C96.8537 116.374 92.6951 119.879 84.9137 119.879C77.1323 119.879 73.7292 116.283 73.7292 108.272V88.8512C73.7292 80.8933 78.456 77.4144 85.3102 77.4144C92.1645 77.4144 96.8537 80.8295 96.8537 89.0639V108.193ZM82.3895 109.246C82.3895 111.794 83.3327 113.118 85.2459 113.118C87.1591 113.118 88.1452 111.916 88.1452 109.203V88.1118C88.1452 85.5372 87.3735 84.2179 85.2245 84.2179C83.4024 84.2179 82.3895 85.4361 82.3895 88.1703V109.246Z" fill="#020A0A"/>
<path d="M100.664 119.262V78.0367H110.139C111.554 83.0689 116.012 101.74 116.366 103.549H116.575C116.098 98.0644 115.798 90.564 115.798 84.8084V78.0367H123.746V119.262H114.185C113.263 115.342 108.392 94.0057 108.108 92.6865H107.877C108.21 97.5378 108.472 105.74 108.472 112.219V119.262H100.664Z" fill="#020A0A"/>
<path d="M267.9 89.7661V88.282C267.9 81.0741 264.213 78.0367 256.753 78.0367H245.644V119.262H254.191V101.341H255.199C258.457 101.341 259.031 102.134 259.031 106.772C259.031 112.033 259.047 119.268 259.047 119.268H267.509V107.687L267.519 107.097C267.519 101.347 266.217 99.4581 263.452 98.2187C265.36 97.3835 267.895 95.6388 267.895 89.7608L267.9 89.7661ZM255.274 95.0962H254.213V84.2871H255.547C258.698 84.2871 259.299 85.6648 259.299 88.4309V90.4204C259.299 94.2557 258.13 95.0962 255.274 95.0962Z" fill="#020A0A"/>
<path d="M186.27 93.878C182.589 91.2183 182.101 89.9948 182.101 87.5107C182.101 85.1754 182.61 83.9147 184.191 83.9147C185.884 83.9147 186.329 85.1542 186.329 87.6543V90.6917H194.416V87.75C194.416 83.0317 193.092 77.3771 184.143 77.3771C175.707 77.3771 173.601 82.803 173.601 88.6916C173.601 94.5802 176.179 97.0963 181.195 101.027C185.74 104.549 186.533 105.677 186.533 109.565C186.533 111.512 186.072 113.379 184.094 113.379C182.117 113.379 181.415 112.118 181.415 109.411V105.99H173.028V109.028C173.028 115.134 175.45 119.879 183.944 119.879C192.439 119.879 195.172 114.56 195.172 108.108C195.172 101.32 192.824 98.6442 186.276 93.878H186.27Z" fill="#020A0A"/>
<path d="M235.59 78.0367H222.825L216.528 119.262H225.258L226.356 109.448H231.903L233.13 119.262H242.037L235.59 78.0367ZM227.101 102.458C227.691 97.3623 228.746 88.0852 228.902 85.2127H229.239C229.657 89.1597 230.542 97.1867 231.174 102.458H227.101Z" fill="#020A0A"/>
<path d="M217.803 85.5265L219.025 78.0367H196.897V85.5265H202.771V119.262H211.319V85.5265H217.803Z" fill="#020A0A"/>
<path d="M70.8782 89.7661V88.282C70.8782 81.0741 67.1911 78.0367 59.7313 78.0367H48.6219V119.262H57.1696V101.341H58.1771C61.4355 101.341 62.0089 102.134 62.0089 106.772C62.0089 112.033 62.025 119.268 62.025 119.268H70.487V107.687L70.4977 107.097C70.4977 101.347 69.1954 99.4581 66.4301 98.2187C68.338 97.3835 70.8728 95.6388 70.8728 89.7608L70.8782 89.7661ZM58.2522 95.0962H57.1911V84.2871H58.5255C61.6766 84.2871 62.2768 85.6648 62.2768 88.4309V90.4204C62.2768 94.2557 61.1086 95.0962 58.2522 95.0962Z" fill="#020A0A"/>
<path d="M144.153 165.956L144.223 114.81L123.896 155.764L119.003 136.098L32.3999 136.003L35.4867 129.087L122.647 129.162L124.507 133.949L153.247 75.8877L153.43 129.901L163.821 109.384L171.656 129.125H267.6L264.813 136.04H166.195L163.21 128.539L144.153 165.956Z" fill="#DEDC00"/>
</svg>
