<svg width="300" height="215" viewBox="0 0 300 215" fill="none" xmlns="http://www.w3.org/2000/svg">
<path d="M259.929 50.5705C255.774 46.7849 250.265 44.415 244.202 44.415H198.651C198.744 46.2001 198.99 47.9236 199.39 49.5856C199.482 49.9549 199.575 50.3243 199.667 50.6936C199.698 50.8475 199.759 51.0014 199.79 51.1552C203.576 63.1584 214.779 71.8376 228.013 71.8376H267.1C267.346 70.4834 267.5 69.1292 267.5 67.7134C267.5 60.9116 264.576 54.8177 259.929 50.5397" fill="url(#paint0_linear_1617_2946)"/>
<path fill-rule="evenodd" clip-rule="evenodd" d="M72.8646 83.5329L64.0931 53.125C62.585 47.9544 57.8761 44.415 52.5209 44.415H31.5V110.586H52.5516V71.499H54.0597L66.0936 110.586H81.1437L93.1776 71.499H94.6857V110.586H115.737V44.415H94.7164C89.3304 44.415 84.6215 47.9852 83.1442 53.125L74.3727 83.5329H72.8646ZM162.119 51.4322L147.284 83.5329H145.776V44.4458H124.725V110.617H142.575C147.254 110.617 151.532 107.878 153.501 103.63L168.336 71.5298H169.844V110.617H190.896V44.415H173.045C168.367 44.415 164.089 47.1542 162.119 51.4015V51.4322ZM199.636 75.8682V110.585H220.81V91.0413H242.108C253.25 91.0413 262.729 84.732 266.392 75.8682H199.636Z" fill="#046949"/>
<path d="M60.064 163.617H61.288V152.025H64.654V151.017H56.698V152.025H60.064V163.617ZM66.7936 151.017V164.121L75.3976 153.645V163.617H76.6216V150.513L68.0176 160.989V151.017H66.7936ZM82.1238 163.617H83.3478V152.025H86.7138V151.017H78.7578V152.025H82.1238V163.617ZM87.5215 151.017L92.1115 159.801L90.3655 163.617H91.6075L97.3675 151.017H96.1255L92.7235 158.523L88.9075 151.017H87.5215ZM100.671 151.017V158.865C100.671 160.971 100.437 162.717 98.5293 162.717C98.2413 162.717 98.0073 162.663 97.8453 162.609V163.617C98.3313 163.725 98.7273 163.725 98.8353 163.725C101.571 163.725 101.895 161.295 101.895 158.811V152.025H106.449V163.617H107.673V151.017H100.671ZM111.195 163.617H113.985C115.371 163.617 118.845 163.491 118.845 159.927C118.845 158.271 118.125 156.309 114.507 156.309H112.419V151.017H111.195V163.617ZM112.419 162.609V157.317H114.489C114.993 157.317 117.585 157.263 117.585 159.927C117.585 161.151 117.009 162.609 114.183 162.609H112.419ZM121.609 163.617H122.833V157.191H130.087V163.617H131.311V151.017H130.087V156.183H122.833V151.017H121.609V163.617ZM134.836 163.617H137.644C139.03 163.617 142.486 163.491 142.486 159.927C142.486 156.633 139.714 156.309 138.166 156.309H136.06V151.017H134.836V163.617ZM136.06 162.609V157.317H138.148C139.192 157.317 141.226 157.533 141.226 159.927C141.226 162.375 139.084 162.609 137.842 162.609H136.06ZM143.872 163.617H145.096V151.017H143.872V163.617ZM148.626 151.017V164.121L157.23 153.645V163.617H158.454V150.513L149.85 160.989V151.017H148.626ZM153.54 150.297C154.332 150.297 155.574 150.045 156.132 148.695L155.142 148.299C154.98 148.821 154.53 149.361 153.54 149.361C152.55 149.361 152.1 148.821 151.938 148.299L150.948 148.695C151.506 150.045 152.748 150.297 153.54 150.297ZM166.538 151.017V163.617H167.762V152.025H175.016V163.617H176.24V151.017H166.538ZM178.379 163.617H179.639L181.385 159.513H186.677L188.423 163.617H189.683L184.031 150.657L178.379 163.617ZM181.817 158.505L184.031 153.339L186.245 158.505H181.817ZM191.832 163.617H193.056V157.695H195.324C196.656 157.695 199.104 157.389 199.104 154.347C199.104 151.323 196.674 151.017 195.324 151.017H191.832V163.617ZM193.056 152.025H195.27C195.738 152.025 197.844 151.989 197.844 154.347C197.844 156.489 196.17 156.687 195.27 156.687H193.056V152.025ZM203.857 163.617H205.081V152.025H208.447V151.017H200.491V152.025H203.857V163.617ZM210.587 163.617H211.811V157.191H219.065V163.617H220.289V151.017H219.065V156.183H211.811V151.017H210.587V163.617ZM223.814 163.617H230.564V162.609H225.038V157.065H230.366V156.057H225.038V152.025H230.564V151.017H223.814V163.617ZM233.508 163.617H234.732V157.695H237C238.332 157.695 240.78 157.389 240.78 154.347C240.78 151.323 238.35 151.017 237 151.017H233.508V163.617ZM234.732 152.025H236.946C237.414 152.025 239.52 151.989 239.52 154.347C239.52 156.489 237.846 156.687 236.946 156.687H234.732V152.025Z" fill="black"/>
<defs>
<linearGradient id="paint0_linear_1617_2946" x1="198.651" y1="58.1417" x2="267.5" y2="58.1417" gradientUnits="userSpaceOnUse">
<stop stop-color="#44A7DF"/>
<stop offset="1" stop-color="#345CA8"/>
</linearGradient>
</defs>
</svg>
