<svg width="385" height="214" viewBox="0 0 385 214" fill="none" xmlns="http://www.w3.org/2000/svg">
<path d="M87.9465 108.425L86.4779 88.615C86.3418 86.7683 85.2262 85.208 83.4945 84.4427C81.7088 83.6568 79.6548 83.9174 78.1361 85.1254L60.7515 98.9471L58.7245 97.3004L63.6708 92.706C64.7774 91.6775 65.3576 90.2204 65.2601 88.7092C65.1599 87.1967 64.3961 85.8262 63.1624 84.9499L44.7008 71.807C43.3079 70.8172 41.5299 70.6029 39.9432 71.234C38.3629 71.8664 37.2216 73.2395 36.8904 74.9069L33.9006 89.8772L33.8364 89.8952C33.3165 90.0411 32.8543 90.2475 32.4243 90.5263L31.2227 91.311L31.3382 90.7676C31.6373 89.2925 31.265 87.7775 30.3163 86.6108C29.3599 85.4364 27.9453 84.7628 26.4343 84.7628L5.68757 84.7498C3.63228 84.7498 1.86199 85.9268 1.06863 87.8226C0.27912 89.7055 0.66938 91.7859 2.08793 93.2519L12.2334 103.731L7.40137 106.889C5.96871 107.826 5.12143 109.409 5.13427 111.126C5.14711 112.842 6.02391 114.415 7.47712 115.333L36.1844 133.346C37.0047 133.863 37.9239 134.119 38.843 134.119C39.766 134.119 40.6891 133.86 41.5119 133.34C43.1423 132.311 44.0268 130.483 43.8214 128.565L42.1256 112.74L44.0255 110.975L46.2554 126.556C46.4967 128.24 47.4711 129.702 48.9282 130.569C50.3993 131.445 52.1581 131.603 53.7538 131.002L76.3619 122.493C78.0064 121.87 79.2375 120.555 79.7395 118.885C80.2427 117.221 79.9475 115.399 78.9513 114.012L78.8332 113.846L82.8718 113.81C84.3174 113.791 85.6974 113.174 86.6602 112.121C87.5909 111.098 88.0479 109.785 87.9452 108.425H87.9465ZM58.0595 106.516L60.4537 104.615L64.2331 107.685L58.4742 107.719C58.1853 107.719 57.9388 107.542 57.8438 107.267C57.7463 106.991 57.831 106.698 58.0608 106.517L58.0595 106.516ZM34.0585 110.971L36.4013 98.2966L37.5118 109.697L37.4745 109.733C37.0843 110.103 36.721 110.45 36.3795 110.776L35.3923 111.713C35.2357 111.858 35.047 111.934 34.848 111.934C34.7081 111.934 34.5707 111.896 34.4475 111.823C34.1432 111.651 33.9917 111.317 34.0598 110.971H34.0585ZM9.13187 90.747C8.84303 90.4476 8.76343 90.0243 8.9239 89.6423C9.08694 89.2551 9.44896 89.0138 9.86618 89.0138L26.2623 89.0267C26.6384 89.0267 26.8399 89.1003 27.0017 89.299C27.1724 89.5081 27.2135 89.7494 27.1403 90.1043L26.2019 94.5941L18.0013 99.9498L9.13315 90.7457L9.13187 90.747ZM25.0055 100.479L24.2943 103.954C24.2095 104.371 23.9168 104.69 23.5137 104.81C23.4123 104.838 23.3045 104.853 23.1992 104.853C22.8924 104.853 22.6048 104.73 22.3905 104.509L21.0143 103.082L25.0055 100.479ZM38.6017 126.194C38.2178 126.434 37.7056 126.437 37.3179 126.194L12.7033 110.713C12.3271 110.479 12.0999 110.074 12.0935 109.63C12.0909 109.184 12.3117 108.772 12.6866 108.529L15.2605 106.848L19.2337 110.953C20.5547 112.314 22.4277 112.807 24.2442 112.271C26.0556 111.738 27.3611 110.314 27.7347 108.464L30.0313 97.1932L32.803 95.3826L29.446 112.13C29.0146 114.295 29.9774 116.394 31.8979 117.478C33.8325 118.568 36.1356 118.297 37.7647 116.786L38.2191 116.36L39.1511 125.047C39.2025 125.505 38.9919 125.944 38.6017 126.193V126.194ZM44.6584 90.4656C42.625 91.6284 41.5684 93.7927 41.8996 96.1131L43.0807 104.342L43.0422 104.379C42.4645 104.942 41.9908 105.397 41.553 105.815L41.399 105.961L40.1396 94.1811C39.9868 92.7757 39.2821 91.5432 38.1536 90.7096L38.101 90.6721L40.5709 78.2171C40.6364 77.8971 40.7699 77.4506 41.1897 77.2725C41.6005 77.0982 42.0049 77.3396 42.2745 77.5383L57.3804 88.4008C57.6911 88.624 57.8862 88.9712 57.9144 89.3545C57.9465 89.7365 57.8066 90.1095 57.5306 90.3779C57.5306 90.3779 56.2391 91.631 54.2583 93.5475L54.1941 93.6107L50.9604 90.9806C49.1259 89.4887 46.7111 89.2913 44.6597 90.4656H44.6584ZM47.2965 100.28L47.1463 100.425L46.4364 95.4691C46.3774 95.0484 46.5674 94.6586 46.9332 94.4495C47.0911 94.3579 47.2644 94.314 47.4377 94.314C47.6624 94.314 47.887 94.3902 48.0719 94.5399L50.8769 96.8241L50.7909 96.908C50.52 97.1687 50.2453 97.4346 49.9667 97.703C49.7344 97.9288 49.4982 98.156 49.2607 98.3857C49.0001 98.6374 48.7369 98.8916 48.4724 99.1471C48.0847 99.5227 47.6932 99.9008 47.2965 100.283V100.28ZM73.1782 115.962C73.0897 116.522 72.7225 116.976 72.1962 117.177L52.6626 124.585C52.4739 124.657 52.2736 124.695 52.0682 124.695C51.7665 124.695 51.4816 124.617 51.2197 124.464C50.7819 124.202 50.4879 123.762 50.4148 123.256L48.113 107.168L55.3405 100.451L57.0851 101.866L52.9142 105.186C50.8628 106.817 50.7306 109.095 51.2916 110.683C51.9822 112.655 53.8321 113.881 56.1197 113.881L71.8804 113.901L72.6224 114.508C73.0589 114.863 73.2668 115.408 73.1782 115.963V115.962ZM80.9116 107.257C80.7151 107.475 80.4327 107.6 80.1349 107.604L71.4542 107.652L64.1291 101.692L78.5379 90.2566C78.8036 90.0436 79.1207 89.8436 79.4609 89.9714C79.787 90.094 79.8383 90.3882 79.8679 90.7315L81.185 106.459C81.2081 106.756 81.1118 107.039 80.9141 107.257H80.9116Z" fill="#050F58"/>
<path d="M184.7 105.333C186.552 103.7 187.49 101.661 187.49 99.2647C187.49 96.4539 186.546 94.2007 184.685 92.5668C182.834 90.9433 180.301 90.1213 177.157 90.1213C174.532 90.1213 171.972 90.7665 170.136 91.8919C168.422 92.9424 167.017 94.3323 166.019 95.9493C167.736 97.3883 169.634 98.9924 170.591 99.8377C172.008 97.7225 174.306 96.4746 176.836 96.4746C178.102 96.4746 179.093 96.7766 179.785 97.3715C180.471 97.9626 180.804 98.7485 180.804 99.7732C180.804 100.737 180.485 101.495 179.826 102.086C179.166 102.678 178.238 102.978 177.066 102.978H173.24V108.686H177.523C179.037 108.686 180.201 108.998 180.985 109.614C181.757 110.221 182.133 111.027 182.133 112.076C182.133 113.245 181.671 114.146 180.721 114.83C179.753 115.527 178.492 115.88 176.974 115.88C173.955 115.88 171.279 114.408 169.419 111.73C167.942 112.984 166.108 114.52 164.811 115.602C165.918 117.581 167.461 119.17 169.406 120.326C171.475 121.556 174.179 122.234 177.018 122.234C180.557 122.234 183.435 121.327 185.573 119.538C187.728 117.735 188.82 115.333 188.82 112.397C188.82 109.186 187.435 106.812 184.7 105.333ZM146.888 89.7212C137.861 89.7212 130.517 97.1031 130.517 106.178C130.517 115.253 137.86 122.635 146.888 122.635C155.915 122.635 163.258 115.253 163.258 106.178C163.258 97.1031 155.915 89.7212 146.888 89.7212ZM153.4 113.124C151.666 114.934 149.495 115.84 146.886 115.84C144.278 115.84 142.071 114.936 140.352 113.124C138.632 111.313 137.772 108.998 137.772 106.178C137.772 103.358 138.632 101.043 140.352 99.2325C142.071 97.4218 144.249 96.5159 146.886 96.5159C149.523 96.5159 151.666 97.4283 153.4 99.2544C155.134 101.081 156.001 103.388 156.001 106.178C156.001 108.968 155.133 111.315 153.4 113.124ZM123.558 92.5901C120.622 90.8117 117.355 90.6736 116.424 90.6736H104.928V121.681H112.043V112.628H116.425C117.354 112.628 120.61 112.489 123.56 110.689C126.706 108.77 128.3 105.721 128.3 101.629C128.3 97.5367 126.704 94.4962 123.559 92.5914L123.558 92.5901ZM116.257 106.596H112.043V96.7508H116.257C118.318 96.7508 121.383 98.049 121.383 101.628C121.383 103.473 120.304 106.596 116.257 106.596ZM263.672 90.6736H255.284L249.675 100.145L244.021 90.6736H235.585L245.217 105.73L234.816 121.68H243.761L249.676 111.703L255.592 121.68H264.488L254.181 105.729L263.672 90.6723V90.6736ZM338.39 89.7212C329.364 89.7212 322.02 97.1031 322.02 106.178C322.02 115.253 329.363 122.635 338.39 122.635C347.417 122.635 354.76 115.253 354.76 106.178C354.76 97.1031 347.417 89.7212 338.39 89.7212ZM344.902 113.124C343.168 114.934 340.997 115.84 338.389 115.84C335.78 115.84 333.573 114.936 331.854 113.124C330.134 111.313 329.274 108.998 329.274 106.178C329.274 103.358 330.134 101.043 331.854 99.2325C333.573 97.4218 335.752 96.5159 338.389 96.5159C341.025 96.5159 343.168 97.4283 344.902 99.2544C346.637 101.081 347.503 103.388 347.503 106.178C347.503 108.968 346.635 111.315 344.902 113.124ZM377.924 92.5901C374.988 90.8117 371.721 90.6736 370.791 90.6736H359.295V121.681H366.409V112.628H370.792C371.72 112.628 374.977 112.489 377.927 110.689C381.072 108.77 382.667 105.721 382.667 101.629C382.667 97.5367 381.072 94.4962 377.926 92.5914L377.924 92.5901ZM370.624 106.596H366.409V96.7508H370.624C372.684 96.7508 375.75 98.049 375.75 101.628C375.75 103.473 374.67 106.596 370.624 106.596ZM204.011 90.6749L190.566 121.73H198.36L200.055 117.767H212.043L213.739 121.73H221.533L208.134 90.6749H204.009H204.011ZM202.276 112.01L206.049 102.025L209.822 112.01H202.276ZM295.312 97.0579H304.817V121.681H311.931V97.0566H321.48V90.6723H295.311V97.0566L295.312 97.0579ZM280.579 106.422L273.1 90.6736H265.175L277.12 114.254C276.152 115.46 274.822 116.095 273.264 116.095C273.249 116.095 273.234 116.095 273.219 116.095H271.307L271.616 121.853C272.569 122.075 273.519 122.189 274.449 122.189C276.98 122.128 279.06 121.41 280.463 120.112C281.838 118.84 283.145 116.793 284.46 113.853L294.433 90.6749H286.508L280.576 106.423L280.579 106.422Z" fill="#050F58"/>
</svg>
