<svg width="301" height="216" viewBox="0 0 301 216" fill="none" xmlns="http://www.w3.org/2000/svg">
<path d="M129.21 92.9844H116.181C107.26 92.9844 105.392 97.6732 103.94 105.723L102.861 111.366C101.077 120.08 105.143 121.989 112.197 121.989H125.227C134.148 121.989 136.015 117.3 137.467 109.25L138.546 103.607C140.331 94.8931 136.264 92.9844 129.21 92.9844ZM128.546 105.516L128.09 107.881C126.886 114.188 124.936 114.686 120.787 114.686H117.509C113.401 114.686 111.99 113.939 112.903 109.499L113.359 107.134C114.563 100.827 116.513 100.329 120.662 100.329H123.94C128.09 100.329 129.501 101.117 128.546 105.516Z" fill="#010101"/>
<path d="M94.7711 92.9844H71.7002L66.9284 117.673C66.223 121.491 67.3019 121.947 69.916 121.989H75.6838L77.302 113.773H85.269C94.5637 113.773 103.029 112.487 103.029 101.034C103.029 96.6774 100.705 93.1089 94.7297 92.9844M87.7171 106.677H78.6712L79.9162 100.329H88.9619C90.9121 100.329 92.2815 101.159 92.2815 102.819C92.2815 105.723 89.8748 106.677 87.7171 106.677Z" fill="#010101"/>
<path d="M174.939 100.412C174.939 96.1379 172.532 93.1504 166.557 92.9844H143.486L138.714 117.673C138.009 121.491 139.088 121.947 141.702 121.989H147.469L149.295 112.528H158.299L160.706 118.503C161.951 121.574 163.196 122.03 166.266 122.03H172.366L167.221 110.744C170.955 109.707 174.939 106.885 174.939 100.412ZM159.669 105.765H150.623L151.702 100.37H160.748C162.698 100.37 164.15 100.91 164.15 102.528C164.15 105.557 161.868 105.765 159.669 105.765Z" fill="#010101"/>
<path d="M207.221 92.9844H176.93L176.308 96.2624C175.561 99.9554 176.889 100.578 180.54 100.578H185.768L181.619 121.989H191.246L195.395 100.578H205.727L207.221 92.9844Z" fill="#010101"/>
<path d="M268.55 92.9844H257.761L236.848 106.968C234.566 108.918 234.193 109.831 233.819 111.74L233.28 114.644H254.898L253.487 121.989H262.907L264.359 114.561H269.048L270.334 108.088H265.645L268.55 92.9844ZM256.185 108.088H245.645L257.512 100.993L256.185 108.088Z" fill="#EBBE06"/>
<path d="M210.83 113.441C211.37 111.283 212.241 110.951 214.731 110.951H223.984C232.615 110.951 236.391 107.673 236.391 100.536C236.391 94.8931 230.831 92.9844 222.075 92.9844H207.22L205.727 100.578H223.777C225.851 100.578 226.308 101.117 226.308 102.196C226.308 103.607 225.312 104.105 222.573 104.105H215.395C203.693 104.105 202.615 107.258 201.494 113.234L199.834 121.989H226.391C229.71 121.989 230.748 121.657 231.744 118.13L232.49 114.603H210.54L210.83 113.358V113.441Z" fill="#EBBE06"/>
<path d="M57.0113 104.105H49.2103C46.8866 104.105 45.9738 103.565 45.9738 102.238C45.9738 100.827 46.8866 100.329 50.3306 100.329H62.447C67.3433 100.329 67.6752 99.499 68.3391 96.055L68.8786 92.9844H49.4593C43.2351 93.0674 38.2558 93.2748 37.0939 98.7106L36.2226 103.358C35.3927 108.42 39.5421 110.91 44.7289 110.91H52.5298C54.8535 110.91 55.7664 111.408 55.7664 112.736C55.7664 114.146 54.8535 114.644 51.4095 114.644H38.0897C33.8573 114.644 32.6955 116.014 31.9901 119.665L31.5337 121.989H48.0485C59.0445 121.989 65.4346 120.869 65.4346 111.532C65.4346 106.76 62.1565 104.063 56.9697 104.063" fill="#010101"/>
</svg>
