<svg width="300" height="216" viewBox="0 0 300 216" fill="none" xmlns="http://www.w3.org/2000/svg">
<path d="M51.0386 118.442L54.3834 113.819C56.9023 115.965 60.7013 117.369 64.1287 117.369C66.7715 117.369 68.5885 116.502 68.5885 114.686C68.5885 112.787 67.1019 112.044 63.2616 111.383C57.9347 110.475 52.2774 109.236 52.2774 102.796C52.2774 97.2647 56.9023 94.0859 63.179 94.0859C68.9188 94.0859 72.3875 95.5308 75.4846 97.9665L72.181 102.673C69.3318 100.774 66.5651 99.7003 63.9223 99.7003C61.4859 99.7003 60.1232 100.609 60.1232 102.136C60.1232 103.787 61.6511 104.448 65.1198 105.067C70.6532 105.975 76.4756 107.214 76.4756 113.447C76.4756 120.094 70.5706 122.736 64.1287 122.736C57.6869 122.736 53.8879 120.878 51.0386 118.525V118.442Z" fill="#0D0802"/>
<path d="M96.5026 94.0469C102.862 94.0469 107.28 98.8356 107.28 108.33C107.28 117.825 102.821 122.49 96.3787 122.49C92.5797 122.49 89.9782 121.169 87.8722 118.816V132.357H79.3656V102.014C79.3656 98.7117 79.1592 96.6889 78.5811 95.3266L86.8811 94.0469C87.2941 95.0376 87.6657 97.5559 87.6657 99.0833C89.5239 96.6064 92.3319 94.0469 96.5026 94.0469ZM98.8151 108.372C98.8151 103.789 97.1633 100.9 93.4056 100.9C91.2583 100.9 89.3175 102.179 87.8722 103.583V113.738C89.7304 115.431 91.217 116.257 93.4881 116.257C96.9981 116.257 98.8151 113.367 98.8151 108.372Z" fill="#0D0802"/>
<path d="M110.253 108.372C110.253 97.5971 117.768 94.0469 124.623 94.0469C131.478 94.0469 138.911 97.5971 138.911 108.372C138.911 119.146 131.395 122.655 124.623 122.655C117.851 122.655 110.253 119.064 110.253 108.372ZM130.446 108.413C130.446 103.831 128.835 100.115 124.623 100.115C120.411 100.115 118.718 103.459 118.718 108.413C118.718 112.995 120.287 116.793 124.623 116.793C128.629 116.793 130.446 113.408 130.446 108.413Z" fill="#0D0802"/>
<path d="M151.425 99.4135C152.953 97.1018 155.72 94.0469 160.51 94.0469C160.882 94.0469 161.584 94.1707 161.584 94.1707L160.964 101.436C160.964 101.436 159.519 101.271 159.023 101.271C155.679 101.271 153.118 103.005 151.549 105.028V122.077H143.084V102.056C143.084 98.753 142.877 96.7302 142.299 95.3679L150.558 94.0882C150.971 95.0789 151.343 97.8861 151.343 99.4548H151.467L151.425 99.4135Z" fill="#0D0802"/>
<path d="M178.183 115.802C179.587 115.802 181.28 115.513 182.024 115.307L183.634 121.293C182.148 121.788 179.918 122.49 175.747 122.49C167.447 122.49 167.282 117.99 167.282 112.871V101.312H162.863L163.359 94.1706H167.282V86.8224L175.706 85.2949V94.2118H182.891V101.354H175.706V112.128C175.706 114.564 176.284 115.885 178.183 115.885V115.802Z" fill="#0D0802"/>
<path d="M184.54 118.442L187.885 113.819C190.404 115.965 194.203 117.369 197.589 117.369C200.232 117.369 202.049 116.502 202.049 114.686C202.049 112.787 200.562 112.044 196.722 111.383C191.395 110.475 185.738 109.236 185.738 102.796C185.738 97.2647 190.363 94.0859 196.639 94.0859C202.379 94.0859 205.848 95.5308 208.945 97.9665L205.641 102.673C202.792 100.774 200.026 99.7003 197.383 99.7003C194.946 99.7003 193.584 100.609 193.584 102.136C193.584 103.787 195.112 104.448 198.58 105.067C204.114 105.975 209.936 107.214 209.936 113.447C209.936 120.094 204.031 122.736 197.589 122.736C191.147 122.736 187.348 120.878 184.499 118.525L184.54 118.442Z" fill="#0D0802"/>
<path d="M230.089 99.4135C231.617 97.1018 234.383 94.0469 239.173 94.0469C239.545 94.0469 240.247 94.1707 240.247 94.1707L239.628 101.436C239.628 101.436 238.182 101.271 237.687 101.271C234.342 101.271 231.782 103.005 230.213 105.028V122.077H221.747V102.056C221.747 98.753 221.541 96.7302 220.963 95.3679L229.222 94.0882C229.635 95.0789 230.006 97.8861 230.006 99.4548H230.13L230.089 99.4135Z" fill="#0D0802"/>
<path d="M260.191 117.622C258.498 119.728 255.36 122.659 250.446 122.659C245.532 122.659 242.229 120.347 242.229 114.691V94.1328H250.694V112.297C250.694 114.774 251.644 116.095 253.997 116.095C256.351 116.095 258.209 114.898 260.109 113.329V94.1741H268.574V114.155C268.574 117.457 268.78 119.975 269.4 121.379L260.935 122.7C260.522 121.627 260.233 119.026 260.233 117.664H260.109L260.191 117.622Z" fill="#0D0802"/>
<path d="M35.2233 89.2585C32.6631 89.2585 30.5571 87.1118 30.5571 84.5523C30.5571 81.9928 32.6631 79.9287 35.2233 79.9287C37.7836 79.9287 39.8895 81.9928 39.8895 84.5523C39.8895 87.1118 37.7836 89.2585 35.2233 89.2585Z" fill="#E50046"/>
<path d="M35.2233 100.9C32.6631 100.9 30.5571 98.7534 30.5571 96.1939C30.5571 93.6344 32.6631 91.5703 35.2233 91.5703C37.7836 91.5703 39.8895 93.6344 39.8895 96.1939C39.8895 98.7534 37.7836 100.9 35.2233 100.9Z" fill="#FFCC00"/>
<path d="M35.2233 112.584C32.6631 112.584 30.5571 110.437 30.5571 107.877C30.5571 105.318 32.6631 103.254 35.2233 103.254C37.7836 103.254 39.8895 105.318 39.8895 107.877C39.8895 110.437 37.7836 112.584 35.2233 112.584Z" fill="#13A538"/>
<path d="M35.2233 124.267C32.6631 124.267 30.5571 122.121 30.5571 119.561C30.5571 117.002 32.6631 114.938 35.2233 114.938C37.7836 114.938 39.8895 117.002 39.8895 119.561C39.8895 122.121 37.7836 124.267 35.2233 124.267Z" fill="#009FE3"/>
<path d="M215.14 123.026C212.58 123.026 210.474 120.879 210.474 118.32C210.474 115.76 212.58 113.696 215.14 113.696C217.7 113.696 219.806 115.76 219.806 118.32C219.806 120.879 217.7 123.026 215.14 123.026Z" fill="#0D0802"/>
<path d="M35.2233 135.947C32.6631 135.947 30.5571 133.8 30.5571 131.241C30.5571 128.681 32.6631 126.617 35.2233 126.617C37.7836 126.617 39.8895 128.681 39.8895 131.241C39.8895 133.8 37.7836 135.947 35.2233 135.947Z" fill="#A863A5"/>
</svg>
