<svg width="300" height="215" viewBox="0 0 300 215" fill="none" xmlns="http://www.w3.org/2000/svg">
<path d="M80.5151 87.3208C80.5151 85.0051 79.6051 82.8278 77.9608 81.1882C74.5709 77.8131 69.0578 77.8184 65.6733 81.1988L64.7792 82.0932L63.8959 81.2095C60.5007 77.829 54.9876 77.8397 51.603 81.2254C48.2185 84.6165 48.2292 90.121 51.6243 93.4961L60.6657 102.477L73.81 89.3118C74.9062 88.2152 74.9062 86.4318 73.8046 85.3405C72.7084 84.2492 70.9203 84.2492 69.8241 85.3458L68.9354 86.2348L67.5997 84.904L68.4884 84.0149C70.319 82.1837 73.2991 82.1783 75.135 84.0043C76.971 85.8303 76.9763 88.8061 75.1457 90.6427H75.1563L62.0067 103.808L62.7411 104.537L75.8854 91.372C76.9656 90.2914 77.5617 88.8487 77.5617 87.3208C77.5617 85.7877 76.9603 84.3503 75.8747 83.2697C73.6343 81.0391 69.9891 81.0444 67.754 83.2803L66.8653 84.1693L65.5083 82.8225L66.397 81.9335C69.3771 78.9523 74.2304 78.947 77.2158 81.9175C80.2012 84.8933 80.2118 89.7377 77.2317 92.7189L64.0874 105.879L64.8218 106.608L77.9661 93.4429C79.6051 91.8086 80.5045 89.6259 80.5045 87.3102M70.5585 86.0751C71.2503 85.3831 72.3731 85.3831 73.0649 86.0751C73.7567 86.7672 73.7567 87.8851 73.0649 88.5772L64.7899 96.8659L56.4882 88.6038C55.7964 87.9171 55.7964 86.7938 56.4882 86.1018C57.18 85.4097 58.3029 85.4097 58.9947 86.1018L64.7686 91.8458L65.503 91.1112L59.7131 85.3511C58.6115 84.2705 56.8395 84.2758 55.7485 85.3671C54.6523 86.4638 54.6576 88.2471 55.7539 89.3385L64.0555 97.6005L62.7251 98.9367L54.4235 90.6747C52.5875 88.8487 52.5822 85.8729 54.4128 84.0362C56.2434 82.205 59.2235 82.1996 61.0595 84.0256H61.0648L66.844 89.7697L67.5784 89.035L61.7938 83.275C59.5481 81.0551 55.9135 81.0657 53.6785 83.3016C52.5982 84.3876 52.0022 85.8249 52.0022 87.3581C52.0022 88.8913 52.6035 90.3286 53.6891 91.4093L61.9907 99.6714L60.6444 101.018L52.3481 92.7561C49.3627 89.7856 49.352 84.9412 52.3321 81.9601C55.3122 78.9789 60.1654 78.9683 63.1508 81.9441L68.9407 87.7095L69.6751 86.9748L70.5638 86.0805L70.5585 86.0751Z" fill="#1D1D1B"/>
<path d="M39.6543 80.6908L31.7891 80.7031L31.8264 104.51L39.6917 104.497L39.6543 80.6908Z" fill="#1D1D1B"/>
<path d="M40.5555 111.762C43.6527 111.762 46.9574 112.464 49.3095 113.721L49.3201 120.524C47.0053 119.066 44.0731 118.219 41.4123 118.256C39.8105 118.256 39.2996 118.666 39.305 119.316C39.305 121.797 50.89 120.657 50.9007 128.919C50.9113 135.009 46.3826 136.644 40.8961 136.654C37.2881 136.66 34.0472 135.883 31.4237 134.424L31.4131 127.317C34.3772 129.249 37.5488 130.096 40.1032 130.091C42.1839 130.091 42.7906 129.713 42.7906 128.93C42.7906 126.481 31.2108 127.455 31.2002 119.156C31.1949 114.157 35.3776 111.767 40.5555 111.762Z" fill="#1D1D1B"/>
<path d="M75.9009 112.251L75.9222 126.805C75.9328 134.152 70.5208 136.606 64.8693 136.617C59.2125 136.627 53.7951 134.184 53.7845 126.843L53.7632 112.288L61.6338 112.278L61.6551 126.459C61.6551 128.669 62.8152 129.584 64.864 129.584C66.9394 129.584 68.0995 128.663 68.0942 126.449L68.0729 112.267L75.9062 112.256L75.9009 112.251Z" fill="#1D1D1B"/>
<path d="M90.5094 112.224C96.5707 112.213 101.206 114.316 101.216 121.013C101.227 127.678 96.5973 129.792 90.536 129.802H87.9817L87.9923 136.031L80.1217 136.041L80.0845 112.235L90.5094 112.219V112.224ZM90.4509 118.687H87.9657V123.35H90.4615C92.2655 123.345 93.4256 122.658 93.4203 121.029C93.4203 119.363 92.2602 118.687 90.4562 118.687" fill="#1D1D1B"/>
<path d="M121.991 112.176L122.002 118.367L111.816 118.383L111.822 121.135L120.778 121.119L120.789 126.901L111.832 126.917V129.738L122.225 129.722L122.236 135.977L103.978 136.009L103.94 112.202L121.991 112.176Z" fill="#1D1D1B"/>
<path d="M126.068 135.972L126.03 112.165L137.099 112.149C142.176 112.144 147.253 114.039 147.263 120.534C147.269 124.239 145.571 126.454 143.187 127.646L149.328 135.935L140.675 135.951L135.758 128.918H133.917L133.927 135.961L126.062 135.972H126.068ZM133.917 123.036H136.95C138.483 123.031 139.366 122.11 139.366 120.784C139.366 119.459 138.477 118.543 136.945 118.543H133.912V123.036H133.917Z" fill="#1D1D1B"/>
<path d="M159.955 111.568C163.058 111.568 166.363 112.271 168.715 113.527L168.725 120.331C166.405 118.872 163.478 118.026 160.818 118.063C159.216 118.063 158.705 118.473 158.71 119.122C158.71 121.603 170.295 120.464 170.306 128.726C170.317 134.816 165.788 136.45 160.301 136.461C156.693 136.466 153.452 135.689 150.829 134.231L150.818 127.124C153.788 129.056 156.954 129.903 159.508 129.897C161.584 129.897 162.201 129.519 162.196 128.737C162.196 126.288 150.611 127.257 150.6 118.963C150.595 113.964 154.778 111.574 159.955 111.568Z" fill="#1D1D1B"/>
<path d="M184.009 112.08C190.076 112.069 194.705 114.172 194.716 120.869C194.727 127.534 190.097 129.647 184.036 129.658H181.481L181.492 135.886L173.627 135.897L173.589 112.09L184.009 112.074V112.08ZM183.95 118.542H181.465V123.206H183.961C185.765 123.2 186.925 122.514 186.92 120.885C186.92 119.218 185.76 118.542 183.95 118.542Z" fill="#1D1D1B"/>
<path d="M209.574 111.495C218.158 111.479 222.489 117.085 222.5 123.92C222.511 130.756 218.195 136.372 209.611 136.388C201.027 136.404 196.69 130.798 196.68 123.963C196.669 117.127 200.985 111.511 209.569 111.495M209.579 118.602C206.514 118.602 204.747 120.684 204.753 123.947C204.758 127.21 206.53 129.281 209.6 129.276C212.666 129.276 214.432 127.194 214.427 123.931C214.427 120.668 212.65 118.597 209.585 118.602" fill="#1D1D1B"/>
<path d="M225.788 135.819L225.751 112.012L236.82 111.996C241.897 111.985 246.973 113.886 246.984 120.381C246.989 124.086 245.292 126.3 242.908 127.493L249.049 135.782L240.396 135.798L235.479 128.765H233.638L233.648 135.808L225.783 135.819H225.788ZM233.638 122.883H236.671C238.203 122.877 239.087 121.956 239.087 120.631C239.087 119.305 238.198 118.39 236.666 118.39H233.632V122.883H233.638Z" fill="#1D1D1B"/>
<path d="M269.99 111.941L270 118.809L263.593 118.819L263.62 135.759L255.786 135.769L255.76 118.835L249.358 118.841L249.347 111.973L269.99 111.941Z" fill="#1D1D1B"/>
</svg>
