<svg width="301" height="216" viewBox="0 0 301 216" fill="none" xmlns="http://www.w3.org/2000/svg">
<path d="M103.669 113.044C103.669 116.229 100.703 118.539 96.5204 118.539H86.7378V98.7549H96.1967C100.265 98.7549 103.127 100.951 103.127 104.031C103.127 106.122 102.024 107.444 100.379 108.205C102.138 108.861 103.678 110.62 103.678 113.044H103.669ZM91.0253 102.377V106.665H96.0829C97.6229 106.665 98.6117 105.781 98.6117 104.574C98.6117 103.366 97.5092 102.377 96.0829 102.377H91.0253ZM96.5204 114.908C98.1654 114.908 99.3817 113.919 99.3817 112.493C99.3817 111.066 98.2792 110.078 96.5204 110.078H91.0253V114.916H96.5204V114.908Z" fill="black"/>
<path d="M119.83 118.434L113.014 110.629H111.912V118.434H107.51V98.7549H111.912V106.341H113.014L119.612 98.7549H124.783L116.54 108.214L125.553 118.443H119.839L119.83 118.434Z" fill="black"/>
<path d="M125.553 108.642C125.553 102.701 129.955 98.4131 136.106 98.4131C142.257 98.4131 146.658 102.701 146.658 108.642C146.658 114.583 142.257 118.871 136.106 118.871C129.955 118.871 125.553 114.583 125.553 108.642ZM142.047 108.642C142.047 104.906 139.632 102.377 136.106 102.377C132.58 102.377 130.173 104.906 130.173 108.642C130.173 112.378 132.588 114.907 136.106 114.907C139.623 114.907 142.047 112.378 142.047 108.642Z" fill="black"/>
<path d="M163.485 98.7549H167.887V118.434H163.485V110.515H154.691V118.434H150.29V98.7549H154.691V106.56H163.485V98.7549Z" fill="black"/>
<path d="M177.337 118.434V102.71H170.521V98.7549H188.441V102.71H181.624V118.434H177.337Z" fill="black"/>
<path d="M207.358 107.435V118.434H204.173L203.289 115.354C202.3 116.999 200.209 118.872 197.024 118.872C193.069 118.872 190.208 116.229 190.208 112.607C190.208 108.984 193.069 106.447 198.896 106.447H203.184C202.965 103.918 201.644 102.159 199.229 102.159C197.251 102.159 195.93 103.262 195.274 104.469L191.319 103.813C192.308 100.4 195.72 98.4229 199.456 98.4229C204.295 98.4229 207.375 101.722 207.375 107.435H207.358ZM203.07 109.85H199.001C195.703 109.85 194.6 110.953 194.6 112.379C194.6 114.024 195.921 115.127 198.118 115.127C200.979 115.127 203.061 113.036 203.061 109.85H203.07Z" fill="black"/>
<path d="M224.289 118.434L217.473 110.629H216.371V118.434H211.969V98.7549H216.371V106.341H217.473L224.071 98.7549H229.242L220.999 108.214L230.012 118.443H224.298L224.289 118.434Z" fill="black"/>
<path d="M237.922 118.434V102.71H231.105V98.7549H249.026V102.71H242.209V118.434H237.922Z" fill="black"/>
<path d="M271.015 109.858H255.186C255.624 112.938 257.829 114.916 261.127 114.916C263.437 114.916 265.196 113.927 266.185 112.501L270.254 113.157C268.827 116.893 264.977 118.871 260.795 118.871C254.862 118.871 250.575 114.583 250.575 108.642C250.575 102.701 254.862 98.4131 260.795 98.4131C266.727 98.4131 271.024 102.701 271.024 108.414C271.137 108.966 271.024 109.403 271.024 109.841L271.015 109.858ZM255.51 106.446H266.395C265.625 104.031 263.647 102.272 260.9 102.272C258.257 102.158 256.175 103.917 255.51 106.446Z" fill="black"/>
<path d="M30.667 107.146C30.667 97.643 30.667 92.8917 33.6158 89.9341C36.5646 86.9766 41.3246 86.9854 50.8272 86.9854H52.5073C62.0099 86.9854 66.7612 86.9854 69.7187 89.9341C72.6675 92.8829 72.6675 97.6342 72.6675 107.146V108.826C72.6675 118.328 72.6675 123.08 69.7187 126.037C66.7699 128.986 62.0186 128.986 52.5073 128.986H50.8272C41.3246 128.986 36.5733 128.986 33.6158 126.037C30.667 123.08 30.667 118.328 30.667 108.826V107.146Z" fill="#0077FF"/>
<path d="M53.0151 117.243C43.4425 117.243 37.9824 110.681 37.7549 99.7607H42.5499C42.7074 107.776 46.2425 111.171 49.0425 111.871V99.7607H53.5576V106.673C56.3226 106.376 59.2276 103.226 60.2077 99.7607H64.7227C63.9702 104.031 60.8202 107.181 58.5801 108.476C60.8202 109.526 64.4077 112.273 65.7727 117.243H60.8027C59.7352 113.918 57.0751 111.346 53.5576 110.996V117.243H53.0151Z" fill="white"/>
</svg>
