<svg width="301" height="215" viewBox="0 0 301 215" fill="none" xmlns="http://www.w3.org/2000/svg">
<path d="M93.0996 104.107H106.231V116.159L113.503 104.107H127.923L116.745 119.976L128.256 137.558H113.129L106.231 124.846V137.558H93.0996V104.107Z" fill="#0067B2"/>
<path d="M89.7746 136.504C87.7176 137.598 84.8918 138.547 80.944 138.547C70.2434 138.547 62.6387 131.531 62.6387 120.821C62.6387 108.687 72.4043 103.095 80.757 103.095C83.4373 103.095 87.1358 103.755 89.7746 105.633V117.333C87.7591 114.795 84.8087 113.805 82.5023 113.805C77.6195 113.805 75.2716 117.106 75.2716 121.172C75.2716 125.423 78.326 127.858 82.4608 127.858C85.3697 127.858 87.9046 126.516 89.7746 124.804V136.504Z" fill="#0067B2"/>
<path d="M44.9983 129.531V124.516H46.5982C47.8657 124.516 49.8811 124.764 49.8811 127.013C49.8811 129.345 47.8033 129.551 46.5982 129.551H44.9983V129.531ZM31.8667 104.107V137.558H51.294C60.3947 137.558 62.3686 131.636 62.3686 128.231C62.3686 123.691 59.3143 120.389 55.0964 119.687V119.584C57.8183 118.78 60.8311 116.386 60.8311 112.609C60.8311 110.03 59.8545 104.107 50.4006 104.107H31.8667ZM44.9983 116.819V112.135H46.2242C48.5098 112.135 49.1331 113.332 49.1331 114.487C49.1331 115.622 48.5098 116.819 46.2242 116.819H44.9983Z" fill="#0067B2"/>
<path d="M205.051 108.357L201.311 108.523L200.957 107.594L197.363 107.346L197.321 106.686L193.457 106.624L194.101 108.007L195.825 108.213L195.617 107.759L197.176 108.791L199.773 109.389L201.498 109.451L205.861 108.873L205.051 108.357Z" fill="#62BAEA"/>
<path d="M195.493 105.118L193.727 104.871C193.727 104.871 193.768 104.251 193.083 103.921C192.397 103.57 192.543 103.901 192.543 103.901L191.878 103.405L190.631 103.199L190.527 102.27L188.927 102.188L188.969 101.734L187.701 101.61L187.161 101.135L187.327 100.62L187.016 100.145L185.499 99.4433L184.231 98.948L183.4 97.9988L182.403 97.1527L181.115 95.9146L177.936 94.8002L174.923 92.5922L173.739 92.035L172.45 91.3953L169.708 89.9302L165.656 87.6809L156.701 83.368L154.145 82.233C152.691 81.6139 152.462 81.2837 152.42 81.098C151.111 80.7885 150.675 80.5615 149.989 79.8805C149.304 79.9011 147.745 79.0138 147.33 78.6217C147.33 78.6011 144.691 77.8376 144.525 77.6931C144.525 77.528 137.689 75.1343 136.858 74.9279C136.255 74.8866 134.614 74.5771 134.385 74.4739C134.115 74.4739 133.055 74.1437 132.64 74.1025C131.206 73.9374 129.856 73.7104 128.401 73.7104C127.362 73.7104 126.76 73.7104 125.846 73.4834C125.513 73.6898 123.373 73.2977 122.625 73.8755C121.773 73.9168 119.799 74.3501 119.259 74.5977C118.095 74.639 116.101 75.9184 115.436 76.2486C115.103 76.4137 114.75 76.5788 114.397 76.7439C116.537 77.4868 118.968 78.3741 118.968 78.4773C119.134 78.6217 121.773 79.3853 121.773 79.4059C122.189 79.8186 123.747 80.7059 124.433 80.6853C125.118 81.3663 125.555 81.5933 126.864 81.9028C126.905 82.0885 127.134 82.4187 128.567 83.0378L131.123 84.1521L140.078 88.465L144.13 90.7143L146.873 92.1795L148.161 92.8192L149.387 93.3351L150.384 94.078L152.358 94.8415L156.805 96.286L162.165 98.3702L164.16 99.0512L166.175 99.6703L167.131 99.5052L168.17 99.856L169.334 100.888L170.518 100.496L171.328 100.64L171.972 101.466L172.388 101.961L173.406 102.27L174.362 102.353L175.546 102.147L176.938 102.27L177.437 103.096L179.39 103.405L180.782 103.509L182.195 103.612L183.276 104.107L184.252 105.159L185.665 105.448L189.301 105.964L192.584 105.572L194.724 105.675L195.493 105.118Z" fill="#62BAEA"/>
<path d="M166.009 110.422L169.873 110.463L169.915 111.144L173.51 111.392L173.863 112.32L177.603 112.155L178.413 112.651L174.05 113.228L172.325 113.166L169.728 112.589L168.17 111.557L168.377 112.011L166.653 111.804L166.009 110.422Z" fill="#0067B2"/>
<path d="M166.403 108.833C166.403 108.833 166.445 108.213 165.759 107.883C165.073 107.533 165.219 107.863 165.219 107.863L164.533 107.367L163.286 107.161L163.183 106.232L161.583 106.15L161.624 105.696L160.357 105.551L159.816 105.077L159.983 104.54L159.671 104.066L158.175 103.343L156.908 102.848L156.076 101.899L155.079 101.032L153.812 99.7941L150.633 98.6797L147.62 96.4717L146.394 95.9558L145.085 95.3161L142.342 93.8509L138.332 91.6223L129.398 87.3094L126.842 86.1744C125.388 85.5553 125.159 85.2252 125.117 85.0394C123.808 84.7299 123.372 84.5029 122.686 83.8219C122.001 83.8632 120.442 82.9758 120.027 82.5631C120.027 82.5425 117.388 81.779 117.222 81.6139C117.222 81.4694 110.386 79.055 109.555 78.8487C108.952 78.828 107.311 78.5185 107.082 78.4153C106.791 78.4153 105.752 78.0852 105.337 78.0439C103.924 77.8788 102.553 77.6724 101.098 77.6518C100.039 77.6312 99.4568 77.6518 98.5425 77.4248C98.2101 77.6312 96.07 77.2391 95.3012 77.7962C94.4493 77.8375 92.4962 78.2709 91.956 78.5185C90.7924 78.5598 88.7977 79.8392 88.1121 80.1694C87.5303 80.4583 86.8446 80.7472 86.3044 81.0773C86.055 81.2837 82.315 83.1203 82.0657 83.3473C82.128 83.4711 78.4088 85.6791 78.0556 85.9887C77.8893 86.1538 76.9128 86.5458 76.6635 86.7935C76.4141 87.0411 75.4168 87.9284 75.0843 88.0935C74.9389 88.4031 73.9831 88.7332 73.8377 89.0428C73.6091 89.3523 72.4871 89.8889 72.3001 90.1158C72.2585 90.1365 71.6352 90.6524 71.1365 91.0651C70.9288 91.3334 70.721 91.6223 70.5132 91.8905C70.2639 91.9731 69.2665 92.5509 69.0172 92.7366C69.038 93.335 69.0795 94.2637 68.1445 94.0779L67.0433 94.7176C67.168 94.7176 66.4615 95.7494 65.8797 96.4923C65.5265 96.905 63.9266 97.5035 63.6149 97.9368C62.9708 98.8242 62.1397 99.6496 61.4956 100.516V100.578H61.5787C61.5787 100.702 62.2021 100.681 62.2852 100.908C62.4098 101.259 62.0358 101.569 61.9319 101.858H62.0151V101.92C62.5137 101.899 62.9916 101.383 63.3864 101.177C63.7188 101.053 64.0513 100.908 64.3837 100.785C64.9863 100.434 65.5681 100.083 66.1706 99.7322C70.5963 97.3384 75.022 94.9446 79.4477 92.5715C81.567 91.4365 83.25 90.3841 85.5979 89.1047C86.1589 88.7952 88.2991 87.3713 89.899 87.2681C91.9352 87.1443 94.3662 87.6602 95.0311 87.9284C95.6544 88.1554 97.192 88.919 97.9815 89.1047C98.2101 89.1872 98.6672 89.5174 98.7711 89.4968C98.8542 89.6 100.309 89.8269 101.077 90.0952C101.348 90.2603 101.597 90.4047 101.867 90.5698C103.134 90.9413 106.293 91.6842 107.435 92.035C108.412 92.3239 108.994 92.8811 109.472 92.9842C110.137 93.4382 110.282 93.2112 111.092 93.6033C112.318 93.7271 113.066 94.1605 113.108 94.2017C113.482 94.3668 113.752 94.5113 114.126 94.6764C114.438 94.7176 115.04 95.1923 115.29 95.2954C115.58 95.3574 117.575 95.9558 117.762 96.059C118.095 96.0177 119.507 96.6368 119.674 96.7812C120.068 96.9669 120.526 97.0701 120.983 97.1527L125.055 98.7416L129.502 100.186L134.862 102.27L136.878 102.951L138.893 103.57L139.828 103.405L140.888 103.756L142.051 104.788L143.194 104.416L144.005 104.561L144.649 105.386L145.064 105.882L146.082 106.171L147.08 106.294L148.264 106.088L149.656 106.212L150.155 107.037L152.108 107.367L153.5 107.471L154.913 107.574L155.993 108.069L156.97 109.121L158.383 109.41L162.019 109.947L165.302 109.555L167.442 109.658L168.211 109.08L166.403 108.833Z" fill="#0067B2"/>
<path d="M139.205 137.165C138.582 137.496 137.73 137.785 136.608 137.785C134.759 137.785 133.658 137.145 132.764 136.34C131.559 135.184 131.081 133.884 131.081 132.337C131.081 130.459 131.871 129.076 132.764 128.251C133.824 127.26 135.133 126.868 136.629 126.868C137.356 126.868 138.249 126.992 139.226 127.508V129.881C138.27 128.787 137.065 128.705 136.67 128.705C134.572 128.705 133.18 130.438 133.18 132.357C133.18 134.669 134.967 135.927 136.753 135.927C137.73 135.927 138.603 135.515 139.205 134.792V137.165Z" fill="#0067B2"/>
<path d="M145.209 137.538H143.152V128.851H140.784V127.097H147.578V128.851H145.209V137.538Z" fill="#0067B2"/>
<path d="M149.656 127.097V137.538H151.713V133.68H153.043C154.248 133.68 155.121 133.329 155.703 132.751C156.513 131.967 156.575 130.832 156.575 130.419C156.575 129.676 156.347 128.644 155.495 127.901C154.726 127.22 153.895 127.097 152.711 127.097H149.656ZM151.713 128.851H152.42C152.918 128.851 153.438 128.871 153.874 129.181C154.186 129.408 154.456 129.8 154.456 130.357C154.456 130.811 154.269 131.286 153.895 131.575C153.459 131.905 152.939 131.905 152.544 131.905H151.713V128.851Z" fill="#0067B2"/>
<path d="M165.344 137.537H167.547L163.121 126.889H161.563L157.012 137.537H159.235L160.17 135.349H164.409L165.344 137.537ZM160.815 133.678L162.331 129.922L163.807 133.678H160.815Z" fill="#0067B2"/>
<path d="M172.241 132.029L169.104 127.097H171.556L173.405 130.337L175.337 127.097H177.81L174.569 132.029L178.163 137.538H175.711L173.405 133.721L170.974 137.538H168.501L172.241 132.029Z" fill="#0067B2"/>
<path d="M185.581 126.868C182.278 126.868 179.971 129.159 179.971 132.337C179.971 135.515 182.278 137.785 185.581 137.785C188.885 137.785 191.191 135.515 191.191 132.337C191.191 129.138 188.885 126.868 185.581 126.868ZM185.581 135.927C183.524 135.927 182.07 134.442 182.07 132.316C182.07 130.211 183.524 128.705 185.581 128.705C187.638 128.705 189.093 130.211 189.093 132.316C189.093 134.442 187.638 135.927 185.581 135.927Z" fill="#0067B2"/>
<path d="M195.929 132.999H196.677C197.113 132.999 197.633 132.999 198.069 133.205C198.734 133.494 198.838 134.072 198.838 134.402C198.838 134.814 198.692 135.31 198.194 135.599C197.736 135.867 197.175 135.888 196.781 135.888H195.908V132.999H195.929ZM193.893 127.097V137.538H197.425C198.339 137.538 199.295 137.394 200.105 136.692C200.832 136.053 200.999 135.186 200.999 134.587C200.999 134.051 200.874 133.226 200.23 132.627C199.96 132.379 199.544 132.091 198.858 131.967C199.149 131.802 200.043 131.265 200.043 129.924C200.043 129.057 199.69 128.232 199.066 127.757C198.214 127.097 197.072 127.097 196.49 127.097H193.893ZM195.929 128.768H196.531C197.362 128.768 198.11 129.119 198.11 130.089C198.11 131.43 196.843 131.451 196.511 131.451H195.929V128.768Z" fill="#0067B2"/>
<path d="M208.79 126.868C205.487 126.868 203.18 129.159 203.18 132.337C203.18 135.515 205.487 137.785 208.79 137.785C212.115 137.785 214.4 135.515 214.4 132.337C214.4 129.138 212.094 126.868 208.79 126.868ZM208.79 135.927C206.733 135.927 205.279 134.442 205.279 132.316C205.279 130.211 206.733 128.705 208.79 128.705C210.847 128.705 212.302 130.211 212.302 132.316C212.281 134.442 210.826 135.927 208.79 135.927Z" fill="#0067B2"/>
<path d="M220.301 123.773C220.634 124.64 221.506 124.681 221.714 124.681C221.922 124.681 222.795 124.64 223.127 123.773L224.54 124.331C224.124 125.383 223.148 126.085 221.693 126.085C220.239 126.085 219.262 125.404 218.847 124.331L220.301 123.773ZM219.138 127.096V134.112L224.935 126.869H226.368V137.538H224.311V130.501L218.514 137.744H217.102V127.116H219.138V127.096Z" fill="#0067B2"/>
<path d="M235.032 127.097V131.637C235.032 133.081 234.866 133.865 234.658 134.381C234.347 135.165 233.744 135.826 232.996 135.784V139.891H234.887V137.538H241.349V139.891H243.24V135.784H242.138V127.097H235.032ZM237.006 128.851H240.061V135.784H235.822C236.113 135.495 236.424 135.124 236.653 134.546C236.84 134.051 237.006 133.246 237.006 131.637V128.851Z" fill="#0067B2"/>
<path d="M250.491 126.868C247.188 126.868 244.881 129.159 244.881 132.337C244.881 135.515 247.188 137.785 250.491 137.785C253.816 137.785 256.101 135.515 256.101 132.337C256.101 129.138 253.795 126.868 250.491 126.868ZM250.491 135.927C248.434 135.927 246.98 134.442 246.98 132.316C246.98 130.211 248.434 128.705 250.491 128.705C252.548 128.705 254.003 130.211 254.003 132.316C254.003 134.442 252.548 135.927 250.491 135.927Z" fill="#0067B2"/>
<path d="M258.262 137.537L260.215 126.909H261.628L264.496 133.74L267.467 126.909H268.9L270.667 137.537H268.568L267.633 131.098L264.745 137.681H264.163L261.4 131.098L260.34 137.537H258.262Z" fill="#0067B2"/>
</svg>
