<svg width="301" height="215" viewBox="0 0 301 215" fill="none" xmlns="http://www.w3.org/2000/svg">
<mask id="mask0_1445_1008" style="mask-type:luminance" maskUnits="userSpaceOnUse" x="30" y="81" width="53" height="53">
<path d="M69.5911 81.0029H43.4244C36.1945 81.0029 30.3335 86.8848 30.3335 94.1404V120.4C30.3335 127.656 36.1945 133.538 43.4244 133.538H69.5911C76.821 133.538 82.682 127.656 82.682 120.4V94.1404C82.682 86.8848 76.821 81.0029 69.5911 81.0029Z" fill="white"/>
</mask>
<g mask="url(#mask0_1445_1008)">
<path d="M31.8671 112.092C28.4046 94.2911 33.9629 86.0154 51.7009 82.5405C69.439 79.0656 77.6853 84.6437 81.1479 102.445C84.6105 120.246 79.0521 128.522 61.3141 131.997C43.5761 135.472 35.3297 129.893 31.8671 112.092Z" fill="#00CCA7"/>
<path d="M50.5013 101.316C51.9288 105.736 49.909 110.339 46.0212 111.619C42.1334 112.884 37.8204 110.324 36.3929 105.904C36.3473 105.767 36.3017 105.614 36.2714 105.477L33.9326 106.178C33.9782 106.331 34.0237 106.498 34.0693 106.651C35.9524 112.518 41.6778 115.932 46.8565 114.24C52.0351 112.564 54.6928 106.437 52.8097 100.554C52.8097 100.524 52.7945 100.493 52.7793 100.463L50.4405 101.164C50.4405 101.164 50.4709 101.255 50.4861 101.301L50.5013 101.316Z" fill="white"/>
<path d="M46.0213 111.62C49.9091 110.355 51.9138 105.737 50.5014 101.317C50.5014 101.271 50.471 101.225 50.4558 101.18L36.2715 105.478C36.317 105.615 36.3474 105.767 36.393 105.904C37.8205 110.324 42.1184 112.885 46.0213 111.62Z" fill="#121215"/>
<path d="M43.1049 110.965C43.1961 111.971 42.4519 112.855 41.4496 112.946C40.4473 113.037 39.5664 112.291 39.4753 111.285C39.3842 110.279 40.1284 109.395 41.1307 109.303C42.133 109.212 43.0138 109.959 43.1049 110.965Z" fill="white"/>
<path d="M52.7944 100.479L33.3555 106.438" stroke="black" stroke-width="0.62" stroke-linecap="round" stroke-linejoin="round"/>
<path d="M74.1014 94.1836C75.5289 98.6034 73.5091 103.221 69.6213 104.486C65.7335 105.751 61.4205 103.191 59.993 98.771C59.9474 98.6338 59.9018 98.4814 59.8715 98.3443L57.5327 99.0453C57.5783 99.1978 57.6238 99.3654 57.6694 99.5178C59.5525 105.385 65.2779 108.799 70.4566 107.108C75.6352 105.431 78.2929 99.3044 76.4098 93.4215C76.4098 93.391 76.3946 93.3606 76.3794 93.3301L74.0406 94.0312C74.0406 94.0312 74.071 94.1226 74.0862 94.1683L74.1014 94.1836Z" fill="white"/>
<path d="M69.6209 104.472C73.5087 103.207 75.5286 98.6044 74.101 94.1694C74.101 94.1237 74.0706 94.0779 74.0555 94.0322L59.8711 98.3301C59.9167 98.4673 59.947 98.6197 59.9926 98.7568C61.4201 103.177 65.718 105.737 69.6209 104.472Z" fill="#121215"/>
<path d="M66.6899 103.831C66.781 104.837 66.0369 105.721 65.0346 105.812C64.0322 105.904 63.1514 105.157 63.0603 104.151C62.9692 103.145 63.7133 102.261 64.7156 102.17C65.718 102.078 66.5988 102.825 66.6899 103.831Z" fill="white"/>
<path d="M76.3792 93.3301L56.8491 99.2435" stroke="black" stroke-width="0.62" stroke-linecap="round" stroke-linejoin="round"/>
<path d="M57.3657 116.406C57.3657 116.406 62.4988 117.488 63.2126 112.504" stroke="#301E0D" stroke-width="0.62" stroke-linecap="round" stroke-linejoin="round"/>
</g>
<path d="M107.679 123.981V114.791C107.679 114.242 107.619 113.694 107.482 113.145C107.345 112.566 107.178 112.078 106.966 111.697L95.9248 90.9546C95.8185 90.7869 95.7729 90.5888 95.7729 90.3907C95.7729 90.1164 95.8793 89.8725 96.0767 89.6744C96.3197 89.4305 96.5778 89.3086 96.836 89.3086H103.533C103.913 89.3086 104.262 89.4153 104.612 89.6134C104.991 89.7811 105.249 90.0554 105.371 90.4364C106.601 92.6768 107.71 94.6886 108.697 96.4717C109.274 97.5691 109.73 98.453 110.079 99.1084C110.458 99.7332 110.777 100.312 111.051 100.861C111.354 101.41 111.613 101.882 111.81 102.248C112.053 102.629 112.19 102.858 112.22 102.919C112.281 103.025 112.372 103.071 112.478 103.071C112.585 103.071 112.645 103.025 112.676 102.919C112.706 102.842 112.828 102.629 113.04 102.248C113.283 101.836 113.557 101.334 113.86 100.754C114.194 100.175 114.574 99.5046 114.984 98.7426C115.394 97.9806 115.804 97.2338 116.214 96.4717C117.201 94.6886 118.31 92.6768 119.54 90.4364C119.981 89.6744 120.603 89.3086 121.378 89.3086H128.075C128.348 89.3086 128.591 89.4305 128.789 89.6744C129.032 89.8877 129.153 90.1164 129.153 90.3907C129.153 90.6041 129.108 90.7869 129.001 90.9546C127.027 94.6733 125.235 98.011 123.64 100.968C122.684 102.797 121.924 104.229 121.347 105.296C120.801 106.332 120.284 107.308 119.813 108.238C119.343 109.137 118.933 109.899 118.583 110.554C118.249 111.179 118.037 111.53 117.976 111.636C117.733 112.078 117.551 112.581 117.414 113.13C117.308 113.648 117.262 114.151 117.262 114.623V123.966C117.262 124.377 117.141 124.713 116.898 124.941C116.655 125.155 116.336 125.246 115.926 125.246H108.97C108.591 125.246 108.287 125.124 108.044 124.88C107.801 124.637 107.679 124.332 107.679 123.951V123.981Z" fill="#00CCA7"/>
<path d="M107.679 123.981V114.791C107.679 114.242 107.619 113.694 107.482 113.145C107.345 112.566 107.178 112.078 106.966 111.697L95.9248 90.9546C95.8185 90.7869 95.7729 90.5888 95.7729 90.3907C95.7729 90.1164 95.8793 89.8725 96.0767 89.6744C96.3197 89.4305 96.5778 89.3086 96.836 89.3086H103.533C103.913 89.3086 104.262 89.4153 104.612 89.6134C104.991 89.7811 105.249 90.0554 105.371 90.4364C106.601 92.6768 107.71 94.6886 108.697 96.4717C109.274 97.5691 109.73 98.453 110.079 99.1084C110.458 99.7332 110.777 100.312 111.051 100.861C111.354 101.41 111.613 101.882 111.81 102.248C112.053 102.629 112.19 102.858 112.22 102.919C112.281 103.025 112.372 103.071 112.478 103.071C112.585 103.071 112.645 103.025 112.676 102.919C112.706 102.842 112.828 102.629 113.04 102.248C113.283 101.836 113.557 101.334 113.86 100.754C114.194 100.175 114.574 99.5046 114.984 98.7426C115.394 97.9806 115.804 97.2338 116.214 96.4717C117.201 94.6886 118.31 92.6768 119.54 90.4364C119.981 89.6744 120.603 89.3086 121.378 89.3086H128.075C128.348 89.3086 128.591 89.4305 128.789 89.6744C129.032 89.8877 129.153 90.1164 129.153 90.3907C129.153 90.6041 129.108 90.7869 129.001 90.9546C127.027 94.6733 125.235 98.011 123.64 100.968C122.684 102.797 121.924 104.229 121.347 105.296C120.801 106.332 120.284 107.308 119.813 108.238C119.343 109.137 118.933 109.899 118.583 110.554C118.249 111.179 118.037 111.53 117.976 111.636C117.733 112.078 117.551 112.581 117.414 113.13C117.308 113.648 117.262 114.151 117.262 114.623V123.966C117.262 124.377 117.141 124.713 116.898 124.941C116.655 125.155 116.336 125.246 115.926 125.246H108.97C108.591 125.246 108.287 125.124 108.044 124.88C107.801 124.637 107.679 124.332 107.679 123.951V123.981Z" fill="#5E5C66"/>
<path d="M130.656 125.017C130.459 124.743 130.353 124.484 130.353 124.24C130.353 123.996 130.368 123.844 130.398 123.783L142.259 90.8627C142.639 89.8721 143.322 89.3691 144.309 89.3691H152.237C153.224 89.3691 153.907 89.8721 154.287 90.8627L166.148 123.783C166.148 123.783 166.193 124.011 166.193 124.24C166.193 124.514 166.072 124.773 165.829 125.017C165.631 125.231 165.388 125.322 165.115 125.322H158.524C157.673 125.322 157.096 124.941 156.793 124.194L154.135 116.924C152.905 117.412 151.659 117.808 150.399 118.113C149.138 118.418 147.908 118.662 146.724 118.829C145.57 118.967 144.476 119.073 143.459 119.134C142.441 119.165 141.545 119.18 140.801 119.18H139.571C139.267 119.18 139.024 119.165 138.857 119.134C139.465 119.241 139.966 119.576 140.345 120.171C140.755 120.75 140.801 121.451 140.497 122.228L139.783 124.194C139.48 124.956 138.903 125.322 138.052 125.322H131.461C131.218 125.322 130.96 125.215 130.702 125.017H130.656ZM143.641 111.803C144.598 111.727 145.585 111.621 146.602 111.438C147.483 111.301 148.409 111.118 149.366 110.874C150.353 110.599 151.295 110.218 152.176 109.746L148.242 98.3916L143.641 111.803Z" fill="#00CCA7"/>
<path d="M130.656 125.017C130.459 124.743 130.353 124.484 130.353 124.24C130.353 123.996 130.368 123.844 130.398 123.783L142.259 90.8627C142.639 89.8721 143.322 89.3691 144.309 89.3691H152.237C153.224 89.3691 153.907 89.8721 154.287 90.8627L166.148 123.783C166.148 123.783 166.193 124.011 166.193 124.24C166.193 124.514 166.072 124.773 165.829 125.017C165.631 125.231 165.388 125.322 165.115 125.322H158.524C157.673 125.322 157.096 124.941 156.793 124.194L154.135 116.924C152.905 117.412 151.659 117.808 150.399 118.113C149.138 118.418 147.908 118.662 146.724 118.829C145.57 118.967 144.476 119.073 143.459 119.134C142.441 119.165 141.545 119.18 140.801 119.18H139.571C139.267 119.18 139.024 119.165 138.857 119.134C139.465 119.241 139.966 119.576 140.345 120.171C140.755 120.75 140.801 121.451 140.497 122.228L139.783 124.194C139.48 124.956 138.903 125.322 138.052 125.322H131.461C131.218 125.322 130.96 125.215 130.702 125.017H130.656ZM143.641 111.803C144.598 111.727 145.585 111.621 146.602 111.438C147.483 111.301 148.409 111.118 149.366 110.874C150.353 110.599 151.295 110.218 152.176 109.746L148.242 98.3916L143.641 111.803Z" fill="#5E5C66"/>
<path d="M200.273 101.136C200.273 103.3 199.893 105.144 199.149 106.653C198.405 108.132 197.372 109.336 196.081 110.265C194.821 111.164 193.333 111.82 191.632 112.231C189.931 112.612 188.108 112.795 186.164 112.795H181.867C181.457 112.795 181.092 112.932 180.788 113.207C180.485 113.481 180.333 113.862 180.333 114.334V123.875C180.333 124.226 180.196 124.531 179.923 124.805C179.68 125.049 179.391 125.171 179.057 125.171H171.752C171.418 125.171 171.099 125.049 170.826 124.805C170.583 124.531 170.461 124.226 170.461 123.875V93.6985C170.461 92.9822 170.598 92.3421 170.871 91.7935C171.145 91.2143 171.509 90.7266 171.95 90.3456C172.39 89.9646 172.876 89.6902 173.377 89.5226C173.894 89.3092 174.395 89.2178 174.911 89.2178H186.149C188.093 89.2178 189.916 89.4464 191.616 89.8884C193.348 90.2999 194.851 90.9857 196.112 91.9459C197.403 92.8755 198.405 94.0948 199.134 95.6036C199.878 97.1125 200.258 98.9566 200.258 101.121L200.273 101.136ZM190.356 101.09C190.356 99.6424 189.961 98.5451 189.187 97.7831C188.442 96.9905 187.349 96.5943 185.921 96.5943H177.28C177.554 96.5943 177.857 96.6705 178.207 96.8077C178.541 96.9143 178.86 97.082 179.133 97.3258C179.437 97.5697 179.695 97.8745 179.892 98.2555C180.09 98.6061 180.196 99.0023 180.196 99.4443V103.879C180.196 104.367 180.348 104.763 180.652 105.068C180.986 105.342 181.365 105.48 181.776 105.48H185.921C187.319 105.48 188.412 105.099 189.187 104.352C189.976 103.59 190.356 102.508 190.356 101.106V101.09Z" fill="#00CCA7"/>
<path d="M200.273 101.136C200.273 103.3 199.893 105.144 199.149 106.653C198.405 108.132 197.372 109.336 196.081 110.265C194.821 111.164 193.333 111.82 191.632 112.231C189.931 112.612 188.108 112.795 186.164 112.795H181.867C181.457 112.795 181.092 112.932 180.788 113.207C180.485 113.481 180.333 113.862 180.333 114.334V123.875C180.333 124.226 180.196 124.531 179.923 124.805C179.68 125.049 179.391 125.171 179.057 125.171H171.752C171.418 125.171 171.099 125.049 170.826 124.805C170.583 124.531 170.461 124.226 170.461 123.875V93.6985C170.461 92.9822 170.598 92.3421 170.871 91.7935C171.145 91.2143 171.509 90.7266 171.95 90.3456C172.39 89.9646 172.876 89.6902 173.377 89.5226C173.894 89.3092 174.395 89.2178 174.911 89.2178H186.149C188.093 89.2178 189.916 89.4464 191.616 89.8884C193.348 90.2999 194.851 90.9857 196.112 91.9459C197.403 92.8755 198.405 94.0948 199.134 95.6036C199.878 97.1125 200.258 98.9566 200.258 101.121L200.273 101.136ZM190.356 101.09C190.356 99.6424 189.961 98.5451 189.187 97.7831C188.442 96.9905 187.349 96.5943 185.921 96.5943H177.28C177.554 96.5943 177.857 96.6705 178.207 96.8077C178.541 96.9143 178.86 97.082 179.133 97.3258C179.437 97.5697 179.695 97.8745 179.892 98.2555C180.09 98.6061 180.196 99.0023 180.196 99.4443V103.879C180.196 104.367 180.348 104.763 180.652 105.068C180.986 105.342 181.365 105.48 181.776 105.48H185.921C187.319 105.48 188.412 105.099 189.187 104.352C189.976 103.59 190.356 102.508 190.356 101.106V101.09Z" fill="#5E5C66"/>
<path d="M234.974 101.136C234.974 103.3 234.594 105.144 233.85 106.653C233.106 108.132 232.073 109.336 230.782 110.265C229.522 111.164 228.033 111.82 226.332 112.231C224.631 112.612 222.809 112.795 220.865 112.795H216.567C216.157 112.795 215.793 112.932 215.489 113.207C215.185 113.481 215.033 113.862 215.033 114.334V123.875C215.033 124.226 214.897 124.531 214.623 124.805C214.38 125.049 214.092 125.171 213.758 125.171H206.453C206.119 125.171 205.8 125.049 205.527 124.805C205.284 124.531 205.162 124.226 205.162 123.875V93.6985C205.162 92.9822 205.299 92.3421 205.572 91.7935C205.846 91.2143 206.195 90.7266 206.65 90.3456C207.091 89.9646 207.577 89.6902 208.078 89.5226C208.594 89.3092 209.095 89.2178 209.612 89.2178H220.865C222.809 89.2178 224.631 89.4464 226.332 89.8884C228.079 90.2999 229.567 90.9857 230.828 91.9459C232.118 92.8755 233.121 94.0948 233.85 95.6036C234.594 97.1125 234.974 98.9566 234.974 101.121V101.136ZM225.057 101.09C225.057 99.6424 224.662 98.5451 223.887 97.7831C223.143 96.9905 222.05 96.5943 220.622 96.5943H211.981C212.254 96.5943 212.558 96.6705 212.907 96.8077C213.241 96.9143 213.56 97.082 213.834 97.3258C214.137 97.5697 214.396 97.8745 214.593 98.2555C214.806 98.6061 214.897 99.0023 214.897 99.4443V103.879C214.897 104.367 215.049 104.763 215.352 105.068C215.686 105.342 216.066 105.48 216.476 105.48H220.622C222.019 105.48 223.113 105.099 223.887 104.352C224.677 103.59 225.057 102.508 225.057 101.106V101.09Z" fill="#00CCA7"/>
<path d="M234.974 101.136C234.974 103.3 234.594 105.144 233.85 106.653C233.106 108.132 232.073 109.336 230.782 110.265C229.522 111.164 228.033 111.82 226.332 112.231C224.631 112.612 222.809 112.795 220.865 112.795H216.567C216.157 112.795 215.793 112.932 215.489 113.207C215.185 113.481 215.033 113.862 215.033 114.334V123.875C215.033 124.226 214.897 124.531 214.623 124.805C214.38 125.049 214.092 125.171 213.758 125.171H206.453C206.119 125.171 205.8 125.049 205.527 124.805C205.284 124.531 205.162 124.226 205.162 123.875V93.6985C205.162 92.9822 205.299 92.3421 205.572 91.7935C205.846 91.2143 206.195 90.7266 206.65 90.3456C207.091 89.9646 207.577 89.6902 208.078 89.5226C208.594 89.3092 209.095 89.2178 209.612 89.2178H220.865C222.809 89.2178 224.631 89.4464 226.332 89.8884C228.079 90.2999 229.567 90.9857 230.828 91.9459C232.118 92.8755 233.121 94.0948 233.85 95.6036C234.594 97.1125 234.974 98.9566 234.974 101.121V101.136ZM225.057 101.09C225.057 99.6424 224.662 98.5451 223.887 97.7831C223.143 96.9905 222.05 96.5943 220.622 96.5943H211.981C212.254 96.5943 212.558 96.6705 212.907 96.8077C213.241 96.9143 213.56 97.082 213.834 97.3258C214.137 97.5697 214.396 97.8745 214.593 98.2555C214.806 98.6061 214.897 99.0023 214.897 99.4443V103.879C214.897 104.367 215.049 104.763 215.352 105.068C215.686 105.342 216.066 105.48 216.476 105.48H220.622C222.019 105.48 223.113 105.099 223.887 104.352C224.677 103.59 225.057 102.508 225.057 101.106V101.09Z" fill="#5E5C66"/>
<path d="M247.7 123.981V114.791C247.7 114.242 247.624 113.694 247.487 113.145C247.351 112.566 247.184 112.078 246.971 111.697L235.93 90.9546C235.824 90.7869 235.778 90.5888 235.778 90.3907C235.778 90.1164 235.885 89.8725 236.082 89.6744C236.325 89.4305 236.568 89.3086 236.857 89.3086H243.554C243.934 89.3086 244.283 89.4153 244.632 89.6134C245.012 89.7811 245.255 90.0554 245.407 90.4364C246.637 92.6768 247.745 94.6886 248.733 96.4717C249.31 97.5691 249.765 98.453 250.115 99.1084C250.494 99.7332 250.813 100.312 251.086 100.861C251.39 101.41 251.648 101.882 251.861 102.248C252.104 102.629 252.241 102.858 252.271 102.919C252.332 103.025 252.423 103.071 252.529 103.071C252.636 103.071 252.696 103.025 252.727 102.919C252.757 102.842 252.879 102.629 253.091 102.248C253.334 101.836 253.607 101.334 253.911 100.754C254.245 100.175 254.625 99.5046 255.035 98.7426C255.445 97.9806 255.855 97.2338 256.265 96.4717C257.252 94.6886 258.361 92.6768 259.591 90.4364C260.031 89.6744 260.654 89.3086 261.429 89.3086H268.126C268.399 89.3086 268.642 89.4305 268.84 89.6744C269.083 89.8877 269.204 90.1164 269.204 90.3907C269.204 90.6041 269.159 90.7869 269.052 90.9546C267.078 94.6733 265.286 98.011 263.691 100.968C262.735 102.797 261.975 104.229 261.398 105.296C260.852 106.332 260.335 107.308 259.864 108.238C259.394 109.137 258.984 109.899 258.634 110.554C258.3 111.179 258.088 111.53 258.027 111.636C257.784 112.078 257.602 112.581 257.465 113.13C257.359 113.648 257.313 114.151 257.313 114.623V123.966C257.313 124.377 257.192 124.713 256.949 124.941C256.706 125.155 256.387 125.246 255.977 125.246H249.021C248.641 125.246 248.338 125.124 248.095 124.88C247.852 124.637 247.73 124.332 247.73 123.951L247.7 123.981Z" fill="#00CCA7"/>
<path d="M247.7 123.981V114.791C247.7 114.242 247.624 113.694 247.487 113.145C247.351 112.566 247.184 112.078 246.971 111.697L235.93 90.9546C235.824 90.7869 235.778 90.5888 235.778 90.3907C235.778 90.1164 235.885 89.8725 236.082 89.6744C236.325 89.4305 236.568 89.3086 236.857 89.3086H243.554C243.934 89.3086 244.283 89.4153 244.632 89.6134C245.012 89.7811 245.255 90.0554 245.407 90.4364C246.637 92.6768 247.745 94.6886 248.733 96.4717C249.31 97.5691 249.765 98.453 250.115 99.1084C250.494 99.7332 250.813 100.312 251.086 100.861C251.39 101.41 251.648 101.882 251.861 102.248C252.104 102.629 252.241 102.858 252.271 102.919C252.332 103.025 252.423 103.071 252.529 103.071C252.636 103.071 252.696 103.025 252.727 102.919C252.757 102.842 252.879 102.629 253.091 102.248C253.334 101.836 253.607 101.334 253.911 100.754C254.245 100.175 254.625 99.5046 255.035 98.7426C255.445 97.9806 255.855 97.2338 256.265 96.4717C257.252 94.6886 258.361 92.6768 259.591 90.4364C260.031 89.6744 260.654 89.3086 261.429 89.3086H268.126C268.399 89.3086 268.642 89.4305 268.84 89.6744C269.083 89.8877 269.204 90.1164 269.204 90.3907C269.204 90.6041 269.159 90.7869 269.052 90.9546C267.078 94.6733 265.286 98.011 263.691 100.968C262.735 102.797 261.975 104.229 261.398 105.296C260.852 106.332 260.335 107.308 259.864 108.238C259.394 109.137 258.984 109.899 258.634 110.554C258.3 111.179 258.088 111.53 258.027 111.636C257.784 112.078 257.602 112.581 257.465 113.13C257.359 113.648 257.313 114.151 257.313 114.623V123.966C257.313 124.377 257.192 124.713 256.949 124.941C256.706 125.155 256.387 125.246 255.977 125.246H249.021C248.641 125.246 248.338 125.124 248.095 124.88C247.852 124.637 247.73 124.332 247.73 123.951L247.7 123.981Z" fill="#5E5C66"/>
</svg>
